<?xml version="1.0" encoding="utf-8"?>
<!-- Generator: Adobe Illustrator 18.0.0, SVG Export Plug-In . SVG Version: 6.00 Build 0)  -->
<!DOCTYPE svg PUBLIC "-//W3C//DTD SVG 1.1//EN" "http://www.w3.org/Graphics/SVG/1.1/DTD/svg11.dtd">
<svg version="1.1" id="Layer_1" xmlns="http://www.w3.org/2000/svg" xmlns:xlink="http://www.w3.org/1999/xlink" x="0px" y="0px"
	 width="30px" height="30px" viewBox="0 0 30 30" enable-background="new 0 0 30 30" xml:space="preserve">
<path fill="#010101" d="M15,0.5C7,0.5,0.5,7,0.5,15C0.5,23,7,29.5,15,29.5S29.5,23,29.5,15C29.5,7,23,0.5,15,0.5z M17.6,15.4
	l4.2,4.2c0.2,0.2,0.2,0.5,0,0.8l-1.5,1.5c-0.2,0.2-0.5,0.2-0.8,0l-4.2-4.2c-0.2-0.2-0.5-0.2-0.8,0l-4.2,4.1c-0.2,0.2-0.5,0.2-0.8,0
	l-1.5-1.5c-0.2-0.2-0.2-0.5,0-0.8l4.2-4.2c0.2-0.2,0.2-0.5,0-0.8l-4.2-4.2C8,10.3,8,9.9,8.2,9.7l1.5-1.5c0.2-0.2,0.5-0.2,0.8,0
	l4.2,4.2c0.2,0.2,0.5,0.2,0.8,0l4.2-4.1c0.2-0.2,0.5-0.2,0.8,0l1.5,1.5c0.2,0.2,0.2,0.5,0,0.8l-4.2,4.2
	C17.4,14.8,17.4,15.2,17.6,15.4z"/>
</svg>
