<?xml version="1.0" encoding="utf-8"?>
<!-- Generator: Adobe Illustrator 18.0.0, SVG Export Plug-In . SVG Version: 6.00 Build 0)  -->
<!DOCTYPE svg PUBLIC "-//W3C//DTD SVG 1.1//EN" "http://www.w3.org/Graphics/SVG/1.1/DTD/svg11.dtd">
<svg version="1.1" id="FINAL_SCENE_-_DINO_1_" xmlns="http://www.w3.org/2000/svg" xmlns:xlink="http://www.w3.org/1999/xlink"
	 x="0px" y="0px" width="758px" height="275px" viewBox="0 0 758 275" enable-background="new 0 0 758 275" xml:space="preserve">
<g class="crash" id="Part_6_1_">
	<g id="Layer_2_xA0_Image_1_">
	</g>
	<g id="Rectangle_2_xA0_Image_1_">
	</g>
	<g id="Vector_Smart_Object_xA0_Image_3_">
		<g>
			<rect shape-rendering="crispEdges" x="314.1" y="105.7" fill="#535353" width="5.6" height="0.9"/>
			<rect shape-rendering="crispEdges" x="322.8" y="101.2" fill="#535353" width="5.6" height="0.9"/>
			<rect shape-rendering="crispEdges" x="314.8" y="95.7" fill="#535353" width="22.5" height="0.9"/>
			<rect shape-rendering="crispEdges" x="334.9" y="105.7" fill="#535353" width="2.7" height="0.9"/>
			<rect shape-rendering="crispEdges" x="365.7" y="95.7" fill="#535353" width="41.1" height="0.9"/>
			<rect shape-rendering="crispEdges" x="373.8" y="104.7" fill="#535353" width="1" height="0.9"/>
			<rect shape-rendering="crispEdges" x="383.8" y="105.7" fill="#535353" width="5.6" height="0.9"/>
			<rect shape-rendering="crispEdges" x="393.1" y="100.3" fill="#535353" width="5.6" height="0.9"/>
			<path shape-rendering="crispEdges" fill="#535353" d="M366.5,85.6h2.8v-10h2.6v2.7h2.7V72h-5.5v-5.4H381v-2.8h-9.1v-2.7h14.6V47.4h-2.7v-2.7H360v2.7h-2.7v19.1
				h-2.7v2.7H350V72h-4.5v2.7h-2.6v3.6h-3.1v-2.7h-4.4v-2.7h-3.5h-0.2v-6.4h-3.5v17.3h0.8h2.6h0.2v2.7h2.7v2.7h2.7v3.6h2.7v2.7h2.7
				v2.7v2.7v2.7v3.6h2.6h3.7v-3.6h-3.7v-2.5h3.7v-2.7h2.7v-2.7h2.7v2.7h2.7v8.9h1.4h1.4h3.5v-3.6h-3.5v-8.2v-2.7h3.5v-2.7h2.6v-4.5
				H366.5z M365.7,52.1h-2.8v-2.8h2.8V52.1z"/>
		</g>
		<g>
			<g>
				<path shape-rendering="crispEdges" d="M340.1,49.1v1.8h10v1.7h1.8v1.6h1.6V56h1.8v1.6h12.1V56h1.8v-1.6h1.6v-1.8h3.5v1.6h1.6V56H388v-1.8h1.8v-1.6h1.6v-1.7
					v-0.8v-1H340.1z"/>
				<rect shape-rendering="crispEdges" x="336.7" y="50.8" width="3.4" height="1.7"/>
			</g>
			<rect shape-rendering="crispEdges" x="355.3" y="52.5" fill="#FFFFFF" width="1.6" height="1.6"/>
			<rect shape-rendering="crispEdges" x="358.7" y="52.5" fill="#FFFFFF" width="1.8" height="1.6"/>
			<rect shape-rendering="crispEdges" x="356.9" y="50.8" fill="#FFFFFF" width="1.8" height="1.7"/>
			<rect shape-rendering="crispEdges" x="353.5" y="50.8" fill="#FFFFFF" width="1.8" height="1.7"/>
			<rect shape-rendering="crispEdges" x="377.6" y="52.5" fill="#FFFFFF" width="1.6" height="1.6"/>
			<rect shape-rendering="crispEdges" x="381" y="52.5" fill="#FFFFFF" width="1.7" height="1.6"/>
			<rect shape-rendering="crispEdges" x="379.2" y="50.8" fill="#FFFFFF" width="1.8" height="1.7"/>
			<rect shape-rendering="crispEdges" x="375.8" y="50.8" fill="#FFFFFF" width="1.8" height="1.7"/>
			<rect shape-rendering="crispEdges" x="356.9" y="54.1" fill="#FFFFFF" width="1.8" height="1.8"/>
			<rect shape-rendering="crispEdges" x="360.5" y="54.1" fill="#FFFFFF" width="1.8" height="1.8"/>
		</g>
	</g>
	<g id="Unable_to_connect_to_the_Internet_1_">
		<g>
			<path shape-rendering="crispEdges" fill="#525252" d="M147.1,132.5h2.7v11.6c0,2-0.2,3.6-0.7,4.8c-0.5,1.2-1.3,2.2-2.5,2.9c-1.2,0.7-2.8,1.1-4.7,1.1
				c-1.9,0-3.4-0.3-4.6-1c-1.2-0.6-2-1.6-2.6-2.8c-0.5-1.2-0.8-2.9-0.8-5v-11.6h2.7v11.6c0,1.7,0.2,3,0.5,3.9
				c0.3,0.8,0.9,1.5,1.7,1.9c0.8,0.4,1.8,0.7,2.9,0.7c2,0,3.3-0.4,4.2-1.3c0.8-0.9,1.2-2.6,1.2-5.1V132.5z"/>
			<path shape-rendering="crispEdges" fill="#525252" d="M153.6,152.6v-14.6h2.2v2.1c1.1-1.6,2.6-2.4,4.6-2.4c0.9,0,1.7,0.2,2.4,0.5c0.7,0.3,1.3,0.7,1.6,1.2
				c0.4,0.5,0.6,1.1,0.8,1.8c0.1,0.5,0.1,1.3,0.1,2.4v8.9h-2.5v-8.9c0-1-0.1-1.8-0.3-2.3c-0.2-0.5-0.5-0.9-1-1.2
				c-0.5-0.3-1.1-0.4-1.7-0.4c-1,0-2,0.3-2.7,1c-0.8,0.7-1.1,1.9-1.1,3.8v7.9H153.6z"/>
			<path shape-rendering="crispEdges" fill="#525252" d="M178.3,150.8c-0.9,0.8-1.8,1.3-2.6,1.6c-0.8,0.3-1.8,0.5-2.7,0.5c-1.6,0-2.8-0.4-3.7-1.2
				c-0.9-0.8-1.3-1.8-1.3-3c0-0.7,0.2-1.4,0.5-2c0.3-0.6,0.7-1.1,1.3-1.4c0.5-0.4,1.1-0.6,1.8-0.8c0.5-0.1,1.2-0.3,2.2-0.4
				c2-0.2,3.5-0.5,4.4-0.8c0-0.3,0-0.6,0-0.6c0-1-0.2-1.7-0.7-2.1c-0.6-0.6-1.6-0.8-2.8-0.8c-1.2,0-2,0.2-2.6,0.6s-1,1.1-1.2,2.2
				l-2.4-0.3c0.2-1,0.6-1.9,1.1-2.5s1.2-1.1,2.2-1.5c0.9-0.3,2-0.5,3.3-0.5c1.2,0,2.2,0.1,3,0.4c0.8,0.3,1.3,0.7,1.7,1.1
				c0.4,0.4,0.6,1,0.8,1.7c0.1,0.4,0.1,1.2,0.1,2.3v3.3c0,2.3,0.1,3.7,0.2,4.4s0.3,1.2,0.6,1.7h-2.6
				C178.5,152.1,178.4,151.5,178.3,150.8z M178.1,145.3c-0.9,0.4-2.2,0.7-4,0.9c-1,0.1-1.7,0.3-2.1,0.5c-0.4,0.2-0.7,0.5-1,0.8
				c-0.2,0.4-0.3,0.7-0.3,1.2c0,0.7,0.2,1.2,0.7,1.6c0.5,0.4,1.2,0.7,2.2,0.7c0.9,0,1.8-0.2,2.5-0.6c0.7-0.4,1.3-1,1.6-1.7
				c0.3-0.6,0.4-1.4,0.4-2.5V145.3z"/>
			<path shape-rendering="crispEdges" fill="#525252" d="M186.3,152.6H184v-20.1h2.5v7.2c1-1.3,2.4-2,4-2c0.9,0,1.7,0.2,2.5,0.5c0.8,0.4,1.5,0.9,2,1.5
				c0.5,0.7,0.9,1.4,1.2,2.4c0.3,0.9,0.4,1.9,0.4,3c0,2.5-0.6,4.4-1.8,5.8s-2.7,2-4.4,2c-1.7,0-3.1-0.7-4-2.2V152.6z M186.3,145.3
				c0,1.7,0.2,3,0.7,3.8c0.8,1.3,1.8,1.9,3.1,1.9c1.1,0,2-0.5,2.8-1.4c0.8-0.9,1.2-2.3,1.2-4.2c0-1.9-0.4-3.3-1.1-4.2
				c-0.8-0.9-1.7-1.4-2.7-1.4c-1.1,0-2,0.5-2.8,1.4C186.7,142.1,186.3,143.5,186.3,145.3z"/>
			<path shape-rendering="crispEdges" fill="#525252" d="M199.3,152.6v-20.1h2.5v20.1H199.3z"/>
			<path shape-rendering="crispEdges" fill="#525252" d="M215.3,148l2.5,0.3c-0.4,1.5-1.1,2.6-2.2,3.5s-2.5,1.2-4.2,1.2c-2.1,0-3.8-0.7-5.1-2
				c-1.2-1.3-1.9-3.1-1.9-5.5c0-2.4,0.6-4.3,1.9-5.7c1.3-1.4,2.9-2,4.9-2c1.9,0,3.5,0.7,4.8,2c1.2,1.3,1.8,3.2,1.8,5.6
				c0,0.1,0,0.4,0,0.7h-10.8c0.1,1.6,0.5,2.8,1.4,3.7c0.8,0.8,1.8,1.3,3,1.3c0.9,0,1.7-0.2,2.3-0.7C214.4,149.8,214.9,149,215.3,148
				z M207.2,144h8.1c-0.1-1.2-0.4-2.1-0.9-2.8c-0.8-1-1.8-1.4-3.1-1.4c-1.1,0-2.1,0.4-2.9,1.1C207.7,141.7,207.3,142.7,207.2,144z"
				/>
			<path shape-rendering="crispEdges" fill="#525252" d="M234.1,150.4l0.4,2.2c-0.7,0.1-1.3,0.2-1.9,0.2c-0.9,0-1.6-0.1-2.1-0.4c-0.5-0.3-0.8-0.7-1-1.1
				c-0.2-0.5-0.3-1.4-0.3-2.9V140h-1.8v-1.9h1.8v-3.6l2.4-1.5v5.1h2.5v1.9h-2.5v8.5c0,0.7,0,1.2,0.1,1.4c0.1,0.2,0.2,0.4,0.4,0.5
				c0.2,0.1,0.5,0.2,0.8,0.2C233.3,150.5,233.6,150.5,234.1,150.4z"/>
			<path shape-rendering="crispEdges" fill="#525252" d="M235.1,145.4c0-2.7,0.7-4.7,2.2-6c1.3-1.1,2.8-1.6,4.6-1.6c2,0,3.6,0.7,4.9,2s1.9,3.1,1.9,5.4
				c0,1.9-0.3,3.3-0.8,4.4c-0.6,1.1-1.4,1.9-2.5,2.5s-2.2,0.9-3.5,0.9c-2,0-3.7-0.7-4.9-2C235.7,149.7,235.1,147.8,235.1,145.4z
				 M237.6,145.4c0,1.9,0.4,3.3,1.2,4.2c0.8,0.9,1.8,1.4,3.1,1.4c1.2,0,2.2-0.5,3.1-1.4c0.8-0.9,1.2-2.4,1.2-4.3
				c0-1.8-0.4-3.2-1.2-4.1c-0.8-0.9-1.8-1.4-3-1.4c-1.2,0-2.3,0.5-3.1,1.4S237.6,143.5,237.6,145.4z"/>
			<path shape-rendering="crispEdges" fill="#525252" d="M268.9,147.3l2.4,0.3c-0.3,1.7-0.9,3-2,3.9c-1.1,0.9-2.4,1.4-4,1.4c-2,0-3.6-0.7-4.8-2
				c-1.2-1.3-1.8-3.2-1.8-5.6c0-1.6,0.3-2.9,0.8-4.1c0.5-1.2,1.3-2.1,2.4-2.7c1.1-0.6,2.2-0.9,3.5-0.9c1.6,0,2.9,0.4,3.9,1.2
				c1,0.8,1.6,1.9,1.9,3.4l-2.4,0.4c-0.2-1-0.6-1.7-1.2-2.2c-0.6-0.5-1.3-0.7-2.1-0.7c-1.2,0-2.2,0.4-3,1.3
				c-0.8,0.9-1.2,2.3-1.2,4.2c0,2,0.4,3.4,1.1,4.3c0.7,0.9,1.7,1.3,2.9,1.3c1,0,1.8-0.3,2.4-0.9S268.7,148.5,268.9,147.3z"/>
			<path shape-rendering="crispEdges" fill="#525252" d="M272.7,145.4c0-2.7,0.7-4.7,2.2-6c1.3-1.1,2.8-1.6,4.6-1.6c2,0,3.6,0.7,4.9,2s1.9,3.1,1.9,5.4
				c0,1.9-0.3,3.3-0.8,4.4c-0.6,1.1-1.4,1.9-2.5,2.5s-2.2,0.9-3.5,0.9c-2,0-3.7-0.7-4.9-2C273.3,149.7,272.7,147.8,272.7,145.4z
				 M275.2,145.4c0,1.9,0.4,3.3,1.2,4.2c0.8,0.9,1.8,1.4,3.1,1.4c1.2,0,2.2-0.5,3.1-1.4c0.8-0.9,1.2-2.4,1.2-4.3
				c0-1.8-0.4-3.2-1.2-4.1c-0.8-0.9-1.8-1.4-3-1.4c-1.2,0-2.3,0.5-3.1,1.4S275.2,143.5,275.2,145.4z"/>
			<path shape-rendering="crispEdges" fill="#525252" d="M289.1,152.6v-14.6h2.2v2.1c1.1-1.6,2.6-2.4,4.6-2.4c0.9,0,1.7,0.2,2.4,0.5c0.7,0.3,1.3,0.7,1.6,1.2
				c0.4,0.5,0.6,1.1,0.8,1.8c0.1,0.5,0.1,1.3,0.1,2.4v8.9h-2.5v-8.9c0-1-0.1-1.8-0.3-2.3c-0.2-0.5-0.5-0.9-1-1.2
				c-0.5-0.3-1.1-0.4-1.7-0.4c-1,0-2,0.3-2.7,1c-0.8,0.7-1.1,1.9-1.1,3.8v7.9H289.1z"/>
			<path shape-rendering="crispEdges" fill="#525252" d="M304.3,152.6v-14.6h2.2v2.1c1.1-1.6,2.6-2.4,4.6-2.4c0.9,0,1.7,0.2,2.4,0.5c0.7,0.3,1.3,0.7,1.6,1.2
				c0.4,0.5,0.6,1.1,0.8,1.8c0.1,0.5,0.1,1.3,0.1,2.4v8.9h-2.5v-8.9c0-1-0.1-1.8-0.3-2.3c-0.2-0.5-0.5-0.9-1-1.2
				c-0.5-0.3-1.1-0.4-1.7-0.4c-1,0-2,0.3-2.7,1c-0.8,0.7-1.1,1.9-1.1,3.8v7.9H304.3z"/>
			<path shape-rendering="crispEdges" fill="#525252" d="M330.2,148l2.5,0.3c-0.4,1.5-1.1,2.6-2.2,3.5c-1.1,0.8-2.5,1.2-4.2,1.2c-2.1,0-3.8-0.7-5.1-2
				c-1.2-1.3-1.9-3.1-1.9-5.5c0-2.4,0.6-4.3,1.9-5.7c1.3-1.4,2.9-2,4.9-2c1.9,0,3.5,0.7,4.8,2c1.2,1.3,1.8,3.2,1.8,5.6
				c0,0.1,0,0.4,0,0.7H322c0.1,1.6,0.5,2.8,1.4,3.7c0.8,0.8,1.8,1.3,3,1.3c0.9,0,1.7-0.2,2.3-0.7C329.3,149.8,329.8,149,330.2,148z
				 M322.1,144h8.1c-0.1-1.2-0.4-2.1-0.9-2.8c-0.8-1-1.8-1.4-3.1-1.4c-1.1,0-2.1,0.4-2.9,1.1C322.6,141.7,322.2,142.7,322.1,144z"/>
			<path shape-rendering="crispEdges" fill="#525252" d="M345.8,147.3l2.4,0.3c-0.3,1.7-0.9,3-2,3.9c-1.1,0.9-2.4,1.4-4,1.4c-2,0-3.6-0.7-4.8-2
				c-1.2-1.3-1.8-3.2-1.8-5.6c0-1.6,0.3-2.9,0.8-4.1c0.5-1.2,1.3-2.1,2.4-2.7c1.1-0.6,2.2-0.9,3.5-0.9c1.6,0,2.9,0.4,3.9,1.2
				s1.6,1.9,1.9,3.4l-2.4,0.4c-0.2-1-0.6-1.7-1.2-2.2c-0.6-0.5-1.3-0.7-2.1-0.7c-1.2,0-2.2,0.4-3,1.3c-0.8,0.9-1.2,2.3-1.2,4.2
				c0,2,0.4,3.4,1.1,4.3c0.7,0.9,1.7,1.3,2.9,1.3c1,0,1.8-0.3,2.4-0.9S345.6,148.5,345.8,147.3z"/>
			<path shape-rendering="crispEdges" fill="#525252" d="M355.7,150.4l0.4,2.2c-0.7,0.1-1.3,0.2-1.9,0.2c-0.9,0-1.6-0.1-2.1-0.4c-0.5-0.3-0.8-0.7-1-1.1
				c-0.2-0.5-0.3-1.4-0.3-2.9V140h-1.8v-1.9h1.8v-3.6l2.5-1.5v5.1h2.5v1.9h-2.5v8.5c0,0.7,0,1.2,0.1,1.4s0.2,0.4,0.4,0.5
				c0.2,0.1,0.5,0.2,0.8,0.2C354.9,150.5,355.2,150.5,355.7,150.4z"/>
			<path shape-rendering="crispEdges" fill="#525252" d="M371.2,150.4l0.4,2.2c-0.7,0.1-1.3,0.2-1.9,0.2c-0.9,0-1.6-0.1-2.1-0.4c-0.5-0.3-0.8-0.7-1-1.1
				c-0.2-0.5-0.3-1.4-0.3-2.9V140h-1.8v-1.9h1.8v-3.6l2.5-1.5v5.1h2.5v1.9h-2.5v8.5c0,0.7,0,1.2,0.1,1.4s0.2,0.4,0.4,0.5
				c0.2,0.1,0.5,0.2,0.8,0.2C370.4,150.5,370.8,150.5,371.2,150.4z"/>
			<path shape-rendering="crispEdges" fill="#525252" d="M372.9,145.4c0-2.7,0.7-4.7,2.2-6c1.3-1.1,2.8-1.6,4.6-1.6c2,0,3.6,0.7,4.9,2s1.9,3.1,1.9,5.4
				c0,1.9-0.3,3.3-0.8,4.4c-0.6,1.1-1.4,1.9-2.5,2.5s-2.2,0.9-3.5,0.9c-2,0-3.7-0.7-4.9-2S372.9,147.8,372.9,145.4z M375.4,145.4
				c0,1.9,0.4,3.3,1.2,4.2c0.8,0.9,1.8,1.4,3.1,1.4c1.2,0,2.2-0.5,3.1-1.4c0.8-0.9,1.2-2.4,1.2-4.3c0-1.8-0.4-3.2-1.2-4.1
				c-0.8-0.9-1.8-1.4-3-1.4c-1.2,0-2.3,0.5-3.1,1.4C375.8,142.1,375.4,143.5,375.4,145.4z"/>
			<path shape-rendering="crispEdges" fill="#525252" d="M403.1,150.4l0.4,2.2c-0.7,0.1-1.3,0.2-1.9,0.2c-0.9,0-1.6-0.1-2.1-0.4c-0.5-0.3-0.8-0.7-1-1.1
				c-0.2-0.5-0.3-1.4-0.3-2.9V140h-1.8v-1.9h1.8v-3.6l2.5-1.5v5.1h2.5v1.9h-2.5v8.5c0,0.7,0,1.2,0.1,1.4s0.2,0.4,0.4,0.5
				c0.2,0.1,0.5,0.2,0.8,0.2C402.3,150.5,402.7,150.5,403.1,150.4z"/>
			<path shape-rendering="crispEdges" fill="#525252" d="M406,152.6v-20.1h2.5v7.2c1.2-1.3,2.6-2,4.4-2c1.1,0,2,0.2,2.8,0.6c0.8,0.4,1.4,1,1.7,1.8
				c0.3,0.7,0.5,1.8,0.5,3.3v9.2h-2.5v-9.2c0-1.2-0.3-2.1-0.8-2.7c-0.5-0.6-1.3-0.8-2.3-0.8c-0.7,0-1.4,0.2-2.1,0.6
				c-0.6,0.4-1.1,0.9-1.4,1.5c-0.3,0.6-0.4,1.5-0.4,2.7v8H406z"/>
			<path shape-rendering="crispEdges" fill="#525252" d="M431.3,148l2.5,0.3c-0.4,1.5-1.1,2.6-2.2,3.5c-1.1,0.8-2.5,1.2-4.2,1.2c-2.1,0-3.8-0.7-5.1-2
				c-1.2-1.3-1.9-3.1-1.9-5.5c0-2.4,0.6-4.3,1.9-5.7c1.3-1.4,2.9-2,4.9-2c1.9,0,3.5,0.7,4.8,2c1.2,1.3,1.8,3.2,1.8,5.6
				c0,0.1,0,0.4,0,0.7H423c0.1,1.6,0.5,2.8,1.4,3.7c0.8,0.8,1.8,1.3,3,1.3c0.9,0,1.7-0.2,2.3-0.7C430.4,149.8,430.9,149,431.3,148z
				 M423.2,144h8.1c-0.1-1.2-0.4-2.1-0.9-2.8c-0.8-1-1.8-1.4-3.1-1.4c-1.1,0-2.1,0.4-2.9,1.1C423.7,141.7,423.3,142.7,423.2,144z"/>
			<path shape-rendering="crispEdges" fill="#525252" d="M444.9,152.6v-20.1h2.7v20.1H444.9z"/>
			<path shape-rendering="crispEdges" fill="#525252" d="M451.6,152.6v-14.6h2.2v2.1c1.1-1.6,2.6-2.4,4.6-2.4c0.9,0,1.7,0.2,2.4,0.5c0.7,0.3,1.3,0.7,1.6,1.2
				c0.4,0.5,0.6,1.1,0.8,1.8c0.1,0.5,0.1,1.3,0.1,2.4v8.9h-2.5v-8.9c0-1-0.1-1.8-0.3-2.3s-0.5-0.9-1-1.2s-1.1-0.4-1.7-0.4
				c-1,0-2,0.3-2.7,1c-0.8,0.7-1.1,1.9-1.1,3.8v7.9H451.6z"/>
			<path shape-rendering="crispEdges" fill="#525252" d="M472,150.4l0.4,2.2c-0.7,0.1-1.3,0.2-1.9,0.2c-0.9,0-1.6-0.1-2.1-0.4c-0.5-0.3-0.8-0.7-1-1.1
				c-0.2-0.5-0.3-1.4-0.3-2.9V140h-1.8v-1.9h1.8v-3.6l2.5-1.5v5.1h2.5v1.9h-2.5v8.5c0,0.7,0,1.2,0.1,1.4s0.2,0.4,0.4,0.5
				c0.2,0.1,0.5,0.2,0.8,0.2C471.2,150.5,471.5,150.5,472,150.4z"/>
			<path shape-rendering="crispEdges" fill="#525252" d="M483.9,148l2.5,0.3c-0.4,1.5-1.1,2.6-2.2,3.5c-1.1,0.8-2.5,1.2-4.2,1.2c-2.1,0-3.8-0.7-5.1-2
				c-1.2-1.3-1.9-3.1-1.9-5.5c0-2.4,0.6-4.3,1.9-5.7c1.3-1.4,2.9-2,4.9-2c1.9,0,3.5,0.7,4.8,2c1.2,1.3,1.8,3.2,1.8,5.6
				c0,0.1,0,0.4,0,0.7h-10.8c0.1,1.6,0.5,2.8,1.4,3.7c0.8,0.8,1.8,1.3,3,1.3c0.9,0,1.7-0.2,2.3-0.7C483,149.8,483.5,149,483.9,148z
				 M475.8,144h8.1c-0.1-1.2-0.4-2.1-0.9-2.8c-0.8-1-1.8-1.4-3.1-1.4c-1.1,0-2.1,0.4-2.9,1.1C476.3,141.7,475.9,142.7,475.8,144z"/>
			<path shape-rendering="crispEdges" fill="#525252" d="M489.3,152.6v-14.6h2.2v2.2c0.6-1,1.1-1.7,1.6-2c0.5-0.3,1-0.5,1.6-0.5c0.8,0,1.7,0.3,2.5,0.8l-0.8,2.3
				c-0.6-0.4-1.2-0.5-1.8-0.5c-0.5,0-1,0.2-1.5,0.5c-0.4,0.3-0.7,0.8-0.9,1.3c-0.3,0.9-0.4,1.8-0.4,2.9v7.6H489.3z"/>
			<path shape-rendering="crispEdges" fill="#525252" d="M498.7,152.6v-14.6h2.2v2.1c1.1-1.6,2.6-2.4,4.6-2.4c0.9,0,1.7,0.2,2.4,0.5c0.7,0.3,1.3,0.7,1.6,1.2
				c0.4,0.5,0.6,1.1,0.8,1.8c0.1,0.5,0.1,1.3,0.1,2.4v8.9h-2.5v-8.9c0-1-0.1-1.8-0.3-2.3s-0.5-0.9-1-1.2s-1.1-0.4-1.7-0.4
				c-1,0-2,0.3-2.7,1c-0.8,0.7-1.1,1.9-1.1,3.8v7.9H498.7z"/>
			<path shape-rendering="crispEdges" fill="#525252" d="M524,148l2.5,0.3c-0.4,1.5-1.1,2.6-2.2,3.5c-1.1,0.8-2.5,1.2-4.2,1.2c-2.1,0-3.8-0.7-5.1-2
				c-1.2-1.3-1.9-3.1-1.9-5.5c0-2.4,0.6-4.3,1.9-5.7c1.3-1.4,2.9-2,4.9-2c1.9,0,3.5,0.7,4.8,2c1.2,1.3,1.8,3.2,1.8,5.6
				c0,0.1,0,0.4,0,0.7h-10.8c0.1,1.6,0.5,2.8,1.4,3.7c0.8,0.8,1.8,1.3,3,1.3c0.9,0,1.7-0.2,2.3-0.7C523.1,149.8,523.6,149,524,148z
				 M515.9,144h8.1c-0.1-1.2-0.4-2.1-0.9-2.8c-0.8-1-1.8-1.4-3.1-1.4c-1.1,0-2.1,0.4-2.9,1.1C516.4,141.7,516,142.7,515.9,144z"/>
			<path shape-rendering="crispEdges" fill="#525252" d="M534.4,150.4l0.4,2.2c-0.7,0.1-1.3,0.2-1.9,0.2c-0.9,0-1.6-0.1-2.1-0.4c-0.5-0.3-0.8-0.7-1-1.1
				c-0.2-0.5-0.3-1.4-0.3-2.9V140h-1.8v-1.9h1.8v-3.6l2.5-1.5v5.1h2.5v1.9h-2.5v8.5c0,0.7,0,1.2,0.1,1.4s0.2,0.4,0.4,0.5
				c0.2,0.1,0.5,0.2,0.8,0.2C533.6,150.5,534,150.5,534.4,150.4z"/>
		</g>
	</g>
	<g id="Rectangle_4_xA0_Image_1_">
		<rect shape-rendering="crispEdges" x="287.1" y="197.8" fill="#ECECEC" stroke="#8C8C8C" stroke-miterlimit="10" width="90.2" height="47.6"/>
	</g>
	<g id="More">
		<g>
			<path shape-rendering="crispEdges" fill="#525252" d="M312.6,227v-13.4h2.7l3.2,9.5c0.3,0.9,0.5,1.5,0.6,2c0.2-0.5,0.4-1.2,0.7-2.1l3.2-9.3h2.4V227h-1.7v-11.2
				l-3.9,11.2h-1.6l-3.9-11.4V227H312.6z"/>
			<path shape-rendering="crispEdges" fill="#525252" d="M327.1,222.2c0-1.8,0.5-3.1,1.5-4c0.8-0.7,1.8-1.1,3-1.1c1.3,0,2.4,0.4,3.3,1.3s1.3,2.1,1.3,3.6
				c0,1.2-0.2,2.2-0.6,2.9s-0.9,1.3-1.6,1.7c-0.7,0.4-1.5,0.6-2.3,0.6c-1.4,0-2.5-0.4-3.3-1.3C327.5,225.1,327.1,223.8,327.1,222.2z
				 M328.8,222.2c0,1.2,0.3,2.2,0.8,2.8c0.5,0.6,1.2,0.9,2,0.9c0.8,0,1.5-0.3,2-0.9c0.5-0.6,0.8-1.6,0.8-2.8c0-1.2-0.3-2.1-0.8-2.7
				c-0.5-0.6-1.2-0.9-2-0.9c-0.8,0-1.5,0.3-2,0.9C329.1,220,328.8,220.9,328.8,222.2z"/>
			<path shape-rendering="crispEdges" fill="#525252" d="M338,227v-9.7h1.5v1.5c0.4-0.7,0.7-1.1,1-1.4c0.3-0.2,0.7-0.3,1.1-0.3c0.6,0,1.1,0.2,1.7,0.5l-0.6,1.5
				c-0.4-0.2-0.8-0.4-1.2-0.4c-0.4,0-0.7,0.1-1,0.3c-0.3,0.2-0.5,0.5-0.6,0.9c-0.2,0.6-0.3,1.2-0.3,1.9v5.1H338z"/>
			<path shape-rendering="crispEdges" fill="#525252" d="M351.1,223.9l1.7,0.2c-0.3,1-0.8,1.8-1.5,2.3c-0.7,0.5-1.6,0.8-2.8,0.8c-1.4,0-2.5-0.4-3.4-1.3
				c-0.8-0.9-1.2-2.1-1.2-3.7c0-1.6,0.4-2.9,1.3-3.8c0.8-0.9,1.9-1.4,3.3-1.4c1.3,0,2.4,0.4,3.2,1.3c0.8,0.9,1.2,2.1,1.2,3.7
				c0,0.1,0,0.2,0,0.4h-7.2c0.1,1.1,0.4,1.9,0.9,2.4c0.5,0.6,1.2,0.8,2,0.8c0.6,0,1.1-0.2,1.5-0.5
				C350.6,225.1,350.9,224.6,351.1,223.9z M345.7,221.2h5.4c-0.1-0.8-0.3-1.4-0.6-1.8c-0.5-0.6-1.2-1-2-1c-0.8,0-1.4,0.3-1.9,0.8
				C346.1,219.7,345.8,220.4,345.7,221.2z"/>
		</g>
	</g>
	<g id="Vector_Smart_Object_xA0_Image_1_">
	</g>
</g>
</svg>
