<?xml version="1.0" encoding="utf-8"?>
<!-- Generator: Adobe Illustrator 18.0.0, SVG Export Plug-In . SVG Version: 6.00 Build 0)  -->
<!DOCTYPE svg PUBLIC "-//W3C//DTD SVG 1.1//EN" "http://www.w3.org/Graphics/SVG/1.1/DTD/svg11.dtd">
<svg version="1.1" id="Layer_1" xmlns="http://www.w3.org/2000/svg" xmlns:xlink="http://www.w3.org/1999/xlink" x="0px" y="0px"
	 viewBox="0 0 758 274" enable-background="new 0 0 758 274" xml:space="preserve">
<g>
	<g>
		<path fill="#010101" d="M359.1,133.1v1.8h10v1.7h1.8v1.6h1.6v1.8h1.8v1.6h12.1V140h1.8v-1.6h1.6v-1.8h3.5v1.6h1.6v1.8H407v-1.8
			h1.8v-1.6h1.6v-1.7v-0.8v-1H359.1z"/>
		<rect x="355.7" y="134.8" fill="#010101" width="3.4" height="1.7"/>
	</g>
	<rect x="374.3" y="136.5" fill="#FFFFFF" width="1.6" height="1.6"/>
	<rect x="377.7" y="136.5" fill="#FFFFFF" width="1.8" height="1.6"/>
	<rect x="375.9" y="134.8" fill="#FFFFFF" width="1.8" height="1.7"/>
	<rect x="372.5" y="134.8" fill="#FFFFFF" width="1.8" height="1.7"/>
	<rect x="396.6" y="136.5" fill="#FFFFFF" width="1.6" height="1.6"/>
	<rect x="400" y="136.5" fill="#FFFFFF" width="1.7" height="1.6"/>
	<rect x="398.2" y="134.8" fill="#FFFFFF" width="1.8" height="1.7"/>
	<rect x="394.8" y="134.8" fill="#FFFFFF" width="1.8" height="1.7"/>
	<rect x="375.9" y="138.1" fill="#FFFFFF" width="1.8" height="1.8"/>
	<rect x="379.5" y="138.1" fill="#FFFFFF" width="1.8" height="1.8"/>
</g>
</svg>
