<?xml version="1.0" encoding="utf-8"?>
<!-- Generator: Adobe Illustrator 18.1.0, SVG Export Plug-In . SVG Version: 6.00 Build 0)  -->
<!DOCTYPE svg PUBLIC "-//W3C//DTD SVG 1.1//EN" "http://www.w3.org/Graphics/SVG/1.1/DTD/svg11.dtd">
<svg version="1.1" id="Layer_1" xmlns="http://www.w3.org/2000/svg" xmlns:xlink="http://www.w3.org/1999/xlink" x="0px" y="0px"
	 viewBox="0 0 26 26" enable-background="new 0 0 26 26" xml:space="preserve">
<path fill="#FFFFFF" d="M13,2c6.1,0,11,4.9,11,11c0,6.1-4.9,11-11,11C6.9,24,2,19.1,2,13C2,6.9,6.9,2,13,2 M13,0C5.8,0,0,5.8,0,13
	c0,7.2,5.8,13,13,13s13-5.8,13-13C26,5.8,20.2,0,13,0L13,0z"/>
<polygon fill="#FFFFFF" points="9.3,7.4 19.8,13 9.3,18.6 "/>
</svg>
