<?xml version="1.0" encoding="utf-8"?>
<!-- Generator: Adobe Illustrator 18.1.0, SVG Export Plug-In . SVG Version: 6.00 Build 0)  -->
<!DOCTYPE svg PUBLIC "-//W3C//DTD SVG 1.1//EN" "http://www.w3.org/Graphics/SVG/1.1/DTD/svg11.dtd">
<svg version="1.1" id="Layer_1" xmlns="http://www.w3.org/2000/svg" xmlns:xlink="http://www.w3.org/1999/xlink" x="0px" y="0px"
	 viewBox="0 0 26 26" enable-background="new 0 0 26 26" xml:space="preserve">
<path fill="#FFFFFF" d="M13,2c6.1,0,11,4.9,11,11c0,6.1-4.9,11-11,11C6.9,24,2,19.1,2,13C2,6.9,6.9,2,13,2 M13,0C5.8,0,0,5.8,0,13
	c0,7.2,5.8,13,13,13s13-5.8,13-13C26,5.8,20.2,0,13,0L13,0z"/>
<g>
	<path fill="#FFFFFF" d="M10.9,8.4c0.5-0.3,1.2-0.5,2-0.5c1,0,1.9,0.2,2.6,0.7c0.7,0.5,1,1.2,1,2.2c0,0.6-0.1,1.1-0.4,1.5
		c-0.2,0.2-0.5,0.6-1,0.9l-0.5,0.4c-0.3,0.2-0.4,0.4-0.5,0.7c-0.1,0.2-0.1,0.4-0.1,0.8h-1.9c0-0.8,0.1-1.3,0.2-1.6
		c0.1-0.3,0.4-0.6,0.9-1l0.5-0.4c0.2-0.1,0.3-0.3,0.4-0.4c0.2-0.3,0.3-0.5,0.3-0.8c0-0.3-0.1-0.7-0.3-0.9c-0.2-0.3-0.6-0.4-1.1-0.4
		c-0.5,0-0.9,0.2-1.1,0.5c-0.2,0.4-0.3,0.7-0.3,1.1h-2C9.6,9.9,10,9,10.9,8.4z M12,16.1h2v2h-2V16.1z"/>
</g>
</svg>
