<?xml version="1.0" encoding="utf-8"?>
<!-- Generator: Adobe Illustrator 18.0.0, SVG Export Plug-In . SVG Version: 6.00 Build 0)  -->
<!DOCTYPE svg PUBLIC "-//W3C//DTD SVG 1.1//EN" "http://www.w3.org/Graphics/SVG/1.1/DTD/svg11.dtd">
<svg version="1.1" id="Layer_1" xmlns="http://www.w3.org/2000/svg" xmlns:xlink="http://www.w3.org/1999/xlink" x="0px" y="0px"
	 width="30px" height="30px" viewBox="0 0 30 30" enable-background="new 0 0 30 30" xml:space="preserve">
<path fill="#FFFFFF" d="M15,2.7c6.8,0,12.3,5.5,12.3,12.3S21.8,27.3,15,27.3S2.7,21.8,2.7,15S8.2,2.7,15,2.7 M15,0.5
	C7,0.5,0.5,7,0.5,15S7,29.5,15,29.5S29.5,23,29.5,15S23,0.5,15,0.5L15,0.5z"/>
<g>
	<path fill="#FFFFFF" d="M12.7,9.9c0.6-0.3,1.4-0.6,2.2-0.6c1.2,0,2.1,0.2,2.9,0.8c0.8,0.6,1.2,1.4,1.2,2.4c0,0.7-0.1,1.3-0.5,1.6
		c-0.2,0.2-0.6,0.7-1.2,1l-0.6,0.5c-0.3,0.2-0.5,0.5-0.6,0.8c-0.1,0.2-0.1,0.5-0.1,0.9h-2c0-0.9,0.1-1.5,0.2-1.7
		c0.1-0.3,0.5-0.7,1-1.2l0.6-0.5c0.2-0.1,0.3-0.3,0.5-0.5c0.2-0.3,0.3-0.6,0.3-0.9c0-0.3-0.1-0.8-0.3-1C16.1,11.2,15.6,11,15,11
		c-0.6,0-1,0.2-1.3,0.6c-0.2,0.5-0.3,0.8-0.3,1.3h-2.2C11.2,11.5,11.6,10.6,12.7,9.9z M13.8,18.5h2.2v2.2h-2.2V18.5z"/>
</g>
</svg>
