<svg version="1.1" id="Layer_1" xmlns="http://www.w3.org/2000/svg" xmlns:xlink="http://www.w3.org/1999/xlink" x="0px" y="0px"
	 viewBox="0 0 33.6 33.3" enable-background="new 0 0 33.6 33.3" xml:space="preserve">
<path fill="#000000" d="M16.8,0C7.5,0,0,7.4,0,16.6s7.5,16.6,16.8,16.6c9.3,0,16.8-7.4,16.8-16.6S26.1,0,16.8,0z M26.9,9.2l-10,7.6
	l-10-7.6H26.9z M6.8,11.3l5.9,4.5l-5.9,5.8L6.8,11.3L6.8,11.3z M6.8,24l7.2-7.2l2.8,2.1l2.8-2.1l7.2,7.2L6.8,24L6.8,24z M26.9,21.7
	L21,15.8l5.9-4.5V21.7z"/>
</svg>
