<svg version="1.1" id="Layer_1" xmlns="http://www.w3.org/2000/svg" xmlns:xlink="http://www.w3.org/1999/xlink" x="0px" y="0px"
	 viewBox="0 0 33.6 33.2" enable-background="new 0 0 33.6 33.2" xml:space="preserve">
<path fill="#000000" d="M33.6,16.6c0,9.2-7.5,16.6-16.8,16.6C7.6,33.2,0,25.8,0,16.6C0,7.4,7.6,0,16.8,0C26.1,0,33.6,7.4,33.6,16.6z
	 M23.9,12.4c0.7-0.4,1.2-1.1,1.5-1.8c-0.7,0.3-1.4,0.7-2.2,0.8c-0.6-0.7-1.4-1.1-2.4-1.1c-1.9,0-3.4,1.5-3.4,3.4
	c0,0.2,0,0.5,0.1,0.8c-2.9-0.1-5.3-1.5-7-3.6c-0.3,0.5-0.4,1.1-0.4,1.7c0,1.2,0.5,2.2,1.5,2.8c-0.6,0-1.1-0.1-1.5-0.4c0,0,0,0,0,0
	c0,1.6,1.1,3,2.7,3.3c-0.2,0-0.5,0.1-0.9,0.1c-0.2,0-0.4,0-0.6-0.1c0.4,1.3,1.6,2.3,3.2,2.4c-1.1,0.9-2.6,1.4-4.2,1.4
	c-0.3,0-0.6,0-0.8,0c1.5,0.9,3.3,1.5,5.2,1.5c6.3,0,9.7-5.1,9.7-9.6c0-0.1,0-0.3,0-0.4c0.7-0.5,1.3-1.1,1.7-1.8
	C25.3,12.1,24.7,12.3,23.9,12.4z"/>
</svg>
