<svg version="1.1" id="Layer_1" xmlns="http://www.w3.org/2000/svg" xmlns:xlink="http://www.w3.org/1999/xlink" x="0px" y="0px"
	 viewBox="0 0 33.6 33.3" enable-background="new 0 0 33.6 33.3" xml:space="preserve">
<path fill="#000000" d="M18.2,22.7c0,1.6-1.3,2.9-4.1,2.9c-2.2,0-3.7-1.4-3.7-3c0-1.6,1.8-3,4-3C16.8,19.6,18.2,21.1,18.2,22.7z
	 M33.6,16.7c0,9.2-7.5,16.7-16.8,16.7C7.5,33.3,0,25.9,0,16.7S7.5,0,16.8,0C26.1,0,33.6,7.5,33.6,16.7z M20.1,22.5
	c0-1.5-0.6-2.5-2.3-3.8c-1.7-1.3-2.2-2-0.5-3.3c0.9-0.7,1.6-1.7,1.6-2.9c0-1.3-0.5-2.5-1.5-3h1.4L20,8.3c0,0-4.6,0-5.4,0
	c-3.4,0-5,2-5,4.2c0,2.3,1.6,4,4.6,4c-0.5,0.9-0.3,1.8,0.5,2.4c-5.2,0-6.3,2.3-6.3,4c0,2.3,2.6,3.6,5.8,3.6
	C18.4,26.6,20.1,24.4,20.1,22.5z M27.1,11h-2.5V8.6h-1.2V11h-2.5v1.2h2.5v2.5h1.2v-2.5h2.5V11z M16.7,12.7c-0.3-1.9-1.5-3.5-3-3.5
	c-1.5,0-2.4,1.4-2.2,3.3c0.3,1.9,1.6,3.2,3.1,3.3C16.1,15.8,16.9,14.6,16.7,12.7z"/>
</svg>
