<?xml version="1.0" encoding="utf-8"?>
<!-- Generator: Adobe Illustrator 18.1.0, SVG Export Plug-In . SVG Version: 6.00 Build 0)  -->
<!DOCTYPE svg PUBLIC "-//W3C//DTD SVG 1.1//EN" "http://www.w3.org/Graphics/SVG/1.1/DTD/svg11.dtd">
<svg version="1.1" id="Layer_1" xmlns="http://www.w3.org/2000/svg" xmlns:xlink="http://www.w3.org/1999/xlink" x="0px" y="0px"
	 viewBox="0 0 459 54.8" enable-background="new 0 0 459 54.8" xml:space="preserve">
<g>
	<path d="M4.4,6.6v2.1c0,1.1-0.5,1.7-1.7,1.7H2c-1.1,0-1.7-0.5-1.7-1.7V3c0-1.1,0.5-1.7,1.7-1.7h0.7c1.1,0,1.6,0.5,1.6,1.6v1.8H3V3
		c0-0.4-0.2-0.5-0.5-0.5H2.3C1.9,2.5,1.7,2.7,1.7,3v5.6c0,0.4,0.2,0.5,0.5,0.5h0.3C2.9,9.2,3,9,3,8.6v-2H4.4z"/>
	<path d="M7.6,10.4H6.9c-1.1,0-1.7-0.5-1.7-1.7V3c0-1.1,0.5-1.7,1.7-1.7h0.7c1.1,0,1.7,0.5,1.7,1.7v5.8C9.3,9.8,8.7,10.4,7.6,10.4z
		 M7.4,2.5H7.1C6.8,2.5,6.6,2.7,6.6,3v5.6c0,0.4,0.2,0.5,0.5,0.5h0.3c0.3,0,0.5-0.2,0.5-0.5V3C7.9,2.7,7.8,2.5,7.4,2.5z"/>
	<path d="M10.2,1.4h2.1c1.3,0,1.9,0.6,1.9,1.9v5c0,1.3-0.6,1.9-1.9,1.9h-2.1V1.4z M11.6,9.1h0.5c0.5,0,0.8-0.3,0.8-0.8V3.4
		c0-0.5-0.2-0.8-0.8-0.8h-0.5V9.1z"/>
	<path d="M18.2,1.4v1.2h-1.7v2.5h1.6v1.2h-1.6v2.7h1.7v1.2h-3.1V1.4H18.2z"/>
	<path d="M23.4,10.3l-1.4-6l0,1.6v4.4h-1.2V1.4h1.6l1.3,5.5l0-1.5v-4h1.2v8.9H23.4z"/>
	<path d="M27.2,10.3h-1.4V1.4h1.4V10.3z"/>
	<path d="M30.7,10.3l-1.4-6l0,1.6v4.4h-1.2V1.4h1.6L31,6.9l0-1.5v-4h1.2v8.9H30.7z"/>
	<path d="M35.5,8.6c0,1.1-0.5,1.7-1.7,1.7H33V9.1h0.6c0.4,0,0.5-0.2,0.5-0.5V1.4h1.4V8.6z"/>
	<path d="M40.5,10.3h-1.4L39,8.9h-1.4l-0.2,1.4h-1.3l1.3-8.9h1.8L40.5,10.3z M37.8,7.7h1.1l-0.6-4.5L37.8,7.7z"/>
	<path d="M45.1,7.3v1.5c0,1.1-0.5,1.7-1.7,1.7h-0.6c-1.1,0-1.6-0.5-1.6-1.6V6.8h1.3v1.8c0,0.3,0.2,0.5,0.5,0.5h0.2
		c0.4,0,0.5-0.2,0.5-0.5V7.5c0-0.4-0.1-0.5-0.4-0.7l-1.4-1c-0.6-0.4-0.8-0.9-0.8-1.5V3c0-1.1,0.5-1.7,1.7-1.7h0.6
		c1.1,0,1.6,0.5,1.6,1.6v1.6h-1.3V3c0-0.3-0.2-0.5-0.5-0.5h-0.2c-0.3,0-0.5,0.2-0.5,0.5v1c0,0.4,0.1,0.5,0.4,0.7l1.4,1
		C44.9,6.2,45.1,6.5,45.1,7.3z"/>
	<path d="M49.6,0.9h1.8c1.5,0,2.2,0.7,2.2,2.2v6c0,1.5-0.7,2.2-2.2,2.2h-1.8V0.9z M50.5,10.5h0.9c0.9,0,1.4-0.4,1.4-1.4v-6
		c0-0.9-0.4-1.4-1.4-1.4h-0.9V10.5z"/>
	<path d="M59.3,11.4h-0.9l-0.3-2h-2.2l-0.3,2h-0.9l1.7-10.4h1.1L59.3,11.4z M56.1,8.6H58l-1-6.2L56.1,8.6z"/>
	<path d="M63.8,11.4l-2.4-8.6l0,4.1v4.5h-0.8V0.9h1.1L64,9.3l0-4V0.9h0.8v10.4H63.8z"/>
	<path d="M72.2,7.4v2.2c0,1.2-0.6,1.8-1.8,1.8H70c-1.2,0-1.8-0.6-1.8-1.8V2.7c0-1.2,0.6-1.8,1.8-1.8h0.4c1.2,0,1.8,0.6,1.8,1.8v1.9
		h-0.9V2.6c0-0.6-0.3-1-1-1H70c-0.7,0-1,0.3-1,1v7c0,0.6,0.3,1,1,1h0.4c0.7,0,1-0.3,1-1V7.4H72.2z"/>
	<path d="M77.5,7.9v3.5h-0.9V7.9c0-0.7-0.4-1.1-1.1-1.1h-1v4.6h-0.9V0.9h2.1c1.2,0,1.8,0.6,1.8,1.8v2c0,1-0.4,1.4-1,1.6
		C77.2,6.6,77.5,7,77.5,7.9z M75.7,1.8h-1.1V6h1c0.7,0,1.1-0.3,1.1-1.1V2.7C76.6,2.1,76.3,1.8,75.7,1.8z"/>
	<path d="M82.1,0.9v0.8h-2.2v3.9H82v0.8h-2.2v4.1h2.3v0.8H79V0.9H82.1z"/>
	<path d="M87.9,11.4H87l-0.3-2h-2.2l-0.3,2h-0.9l1.7-10.4h1.1L87.9,11.4z M84.6,8.6h1.9l-1-6.2L84.6,8.6z"/>
	<path d="M90,2.5l0,6.8v2.1h-0.8V0.9h1.3l1.7,8.8l1.7-8.8h1.3v10.4h-0.9V9.2l0-6.7l-1.7,8.9h-0.9L90,2.5z"/>
	<path d="M99.8,0.9v0.8h-2.2v3.9h2.2v0.8h-2.2v4.1h2.3v0.8h-3.2V0.9H99.8z"/>
	<path d="M105.1,7.9v3.5h-0.9V7.9c0-0.7-0.4-1.1-1.1-1.1h-1v4.6h-0.9V0.9h2.1c1.2,0,1.8,0.6,1.8,1.8v2c0,1-0.4,1.4-1,1.6
		C104.7,6.6,105.1,7,105.1,7.9z M103.2,1.8h-1.1V6h1c0.7,0,1.1-0.3,1.1-1.1V2.7C104.2,2.1,103.9,1.8,103.2,1.8z"/>
	<path d="M113.3,10.8c-0.6,0-0.8-0.2-0.9-0.6c-0.3,0.4-0.8,0.6-1.3,0.6c-0.7,0-1.1-0.4-1.1-1.1V8.2c0-0.7,0.2-1,0.9-1.3l1.3-0.5V5.1
		c0-0.5-0.2-0.7-0.7-0.7h-0.1c-0.5,0-0.7,0.2-0.7,0.7V6h-0.7V5.1c0-0.9,0.5-1.4,1.4-1.4h0.1c0.9,0,1.4,0.5,1.4,1.4V10
		c0,0.3,0.1,0.5,0.5,0.5h0.1c0.4,0,0.6-0.2,0.6-0.7V4.6c0-1.5-0.5-2-1.8-2h-1.5c-1.4,0-1.8,0.5-1.8,2v5.3c0,1.5,0.5,2,1.8,2h3.5v0.4
		h-3.5c-1.7,0-2.3-0.6-2.3-2.4V4.6c0-1.8,0.6-2.4,2.3-2.4h1.5c1.7,0,2.3,0.6,2.3,2.4v5.1c0,0.8-0.3,1.1-1,1.1H113.3z M112.3,9.7V7.2
		l-1,0.4c-0.4,0.1-0.5,0.3-0.5,0.7v1.3c0,0.4,0.2,0.6,0.6,0.6C111.6,10.2,111.9,10,112.3,9.7z"/>
	<path d="M116.6,11.4V1.8h-1.6V0.9h4.2v0.8h-1.6v9.6H116.6z"/>
	<path d="M124.2,7.9v3.5h-0.9V7.9c0-0.7-0.4-1.1-1.1-1.1h-1v4.6h-0.9V0.9h2.1c1.2,0,1.8,0.6,1.8,1.8v2c0,1-0.4,1.4-1,1.6
		C123.9,6.6,124.2,7,124.2,7.9z M122.3,1.8h-1.1V6h1c0.7,0,1.1-0.3,1.1-1.1V2.7C123.3,2.1,123,1.8,122.3,1.8z"/>
	<path d="M126.6,11.4h-0.9V0.9h0.9V11.4z"/>
	<path d="M132,7.4v2.2c0,1.2-0.6,1.8-1.8,1.8h-0.4c-1.2,0-1.8-0.6-1.8-1.8V2.7c0-1.2,0.6-1.8,1.8-1.8h0.4c1.2,0,1.8,0.6,1.8,1.8v1.9
		h-0.9V2.6c0-0.6-0.3-1-1-1h-0.3c-0.7,0-1,0.3-1,1v7c0,0.6,0.3,1,1,1h0.4c0.7,0,1-0.3,1-1V7.4H132z"/>
	<path d="M136.5,0.9v0.8h-2.2v3.9h2.2v0.8h-2.2v4.1h2.3v0.8h-3.2V0.9H136.5z"/>
	<path d="M141.8,7.9v3.5h-0.9V7.9c0-0.7-0.4-1.1-1.1-1.1h-1v4.6h-0.9V0.9h2.1c1.2,0,1.8,0.6,1.8,1.8v2c0,1-0.4,1.4-1,1.6
		C141.5,6.6,141.8,7,141.8,7.9z M140,1.8h-1.1V6h1c0.7,0,1.1-0.3,1.1-1.1V2.7C140.9,2.1,140.6,1.8,140,1.8z"/>
	<path d="M147.7,11.4h-0.9l-0.3-2h-2.2l-0.3,2h-0.9l1.7-10.4h1.1L147.7,11.4z M144.4,8.6h1.9l-1-6.2L144.4,8.6z"/>
	<path d="M149.5,11.4V1.8h-1.6V0.9h4.2v0.8h-1.6v9.6H149.5z"/>
	<path d="M155.5,11.4H155c-1.2,0-1.8-0.6-1.8-1.8V2.7c0-1.2,0.6-1.8,1.8-1.8h0.5c1.2,0,1.8,0.6,1.8,1.8v6.9
		C157.3,10.8,156.7,11.4,155.5,11.4z M155.5,1.7h-0.4c-0.7,0-1,0.3-1,1v7c0,0.6,0.3,1,1,1h0.4c0.7,0,1-0.3,1-1v-7
		C156.4,2,156.1,1.7,155.5,1.7z"/>
	<path d="M159.6,11.4h-0.9V0.9h1.9c1.2,0,1.9,0.6,1.9,1.8v2.7c0,1.3-0.6,1.9-1.9,1.9h-1V11.4z M160.6,1.8h-1v4.7h1c0.7,0,1-0.3,1-1
		V2.7C161.6,2.1,161.3,1.8,160.6,1.8z"/>
	<path d="M167,11.4l-2.4-8.6l0,4.1v4.5h-0.8V0.9h1.1l2.3,8.3l0-4V0.9h0.8v10.4H167z"/>
	<path d="M171.8,11.4h-0.5c-1.2,0-1.8-0.6-1.8-1.8V2.7c0-1.2,0.6-1.8,1.8-1.8h0.5c1.2,0,1.8,0.6,1.8,1.8v6.9
		C173.6,10.8,173,11.4,171.8,11.4z M171.8,1.7h-0.4c-0.7,0-1,0.3-1,1v7c0,0.6,0.3,1,1,1h0.4c0.7,0,1-0.3,1-1v-7
		C172.7,2,172.4,1.7,171.8,1.7z"/>
	<path d="M176.4,11.4V1.8h-1.6V0.9h4.2v0.8h-1.6v9.6H176.4z"/>
	<path d="M184.1,7.4v2.2c0,1.2-0.6,1.8-1.8,1.8h-0.4c-1.2,0-1.8-0.6-1.8-1.8V2.7c0-1.2,0.6-1.8,1.8-1.8h0.4c1.2,0,1.8,0.6,1.8,1.8
		v1.9h-0.9V2.6c0-0.6-0.3-1-1-1h-0.3c-0.7,0-1,0.3-1,1v7c0,0.6,0.3,1,1,1h0.4c0.7,0,1-0.3,1-1V7.4H184.1z"/>
	<path d="M188.7,5.6V0.9h0.9v10.4h-0.9V6.5h-2.3v4.9h-0.9V0.9h0.9v4.7H188.7z"/>
	<path d="M196.6,12.4h-0.7V0h0.7V12.4z"/>
	<path d="M203.8,2.5l0,6.8v2.1H203V0.9h1.3l1.7,8.8l1.7-8.8h1.3v10.4h-0.9V9.2l0-6.7l-1.7,8.9h-0.9L203.8,2.5z"/>
	<path d="M211.4,11.4h-0.9V0.9h0.9V11.4z"/>
	<path d="M216.8,7.4v2.2c0,1.2-0.6,1.8-1.8,1.8h-0.4c-1.2,0-1.8-0.6-1.8-1.8V2.7c0-1.2,0.6-1.8,1.8-1.8h0.4c1.2,0,1.8,0.6,1.8,1.8
		v1.9h-0.9V2.6c0-0.6-0.3-1-1-1h-0.3c-0.7,0-1,0.3-1,1v7c0,0.6,0.3,1,1,1h0.4c0.7,0,1-0.3,1-1V7.4H216.8z"/>
	<path d="M221.4,5.6V0.9h0.9v10.4h-0.9V6.5h-2.3v4.9h-0.9V0.9h0.9v4.7H221.4z"/>
	<path d="M228.1,11.4h-0.9l-0.3-2h-2.2l-0.3,2h-0.9l1.7-10.4h1.1L228.1,11.4z M224.9,8.6h1.9l-1-6.2L224.9,8.6z"/>
	<path d="M232.5,0.9v0.8h-2.2v3.9h2.2v0.8h-2.2v4.1h2.3v0.8h-3.2V0.9H232.5z"/>
	<path d="M234.8,0.9v9.6h2.1v0.8h-3V0.9H234.8z"/>
	<path d="M243.2,11.4l-2.4-8.6l0,4.1v4.5H240V0.9h1.1l2.3,8.3l0-4V0.9h0.8v10.4H243.2z"/>
	<path d="M247.7,6.8V5.9h2.1v3.7c0,1.2-0.6,1.8-1.8,1.8h-0.5c-1.2,0-1.8-0.6-1.8-1.8V2.7c0-1.2,0.6-1.8,1.8-1.8h0.5
		c1.2,0,1.8,0.6,1.8,1.8v1.5h-0.9V2.6c0-0.6-0.3-1-1-1h-0.4c-0.7,0-1,0.3-1,1v7c0,0.6,0.3,1,1,1h0.4c0.6,0,1-0.3,1-1V6.8H247.7z"/>
	<path d="M253.4,11.4H253c-1.2,0-1.8-0.6-1.8-1.8V2.7c0-1.2,0.6-1.8,1.8-1.8h0.5c1.2,0,1.8,0.6,1.8,1.8v6.9
		C255.3,10.8,254.7,11.4,253.4,11.4z M253.4,1.7H253c-0.7,0-1,0.3-1,1v7c0,0.6,0.3,1,1,1h0.4c0.7,0,1-0.3,1-1v-7
		C254.4,2,254.1,1.7,253.4,1.7z"/>
	<path d="M263.4,10.8c-0.6,0-0.8-0.2-0.9-0.6c-0.3,0.4-0.8,0.6-1.3,0.6c-0.7,0-1.1-0.4-1.1-1.1V8.2c0-0.7,0.2-1,0.9-1.3l1.3-0.5V5.1
		c0-0.5-0.2-0.7-0.7-0.7h-0.1c-0.5,0-0.7,0.2-0.7,0.7V6h-0.7V5.1c0-0.9,0.5-1.4,1.4-1.4h0.1c0.9,0,1.4,0.5,1.4,1.4V10
		c0,0.3,0.1,0.5,0.5,0.5h0.1c0.4,0,0.6-0.2,0.6-0.7V4.6c0-1.5-0.5-2-1.8-2h-1.5c-1.4,0-1.8,0.5-1.8,2v5.3c0,1.5,0.5,2,1.8,2h3.5v0.4
		h-3.5c-1.7,0-2.3-0.6-2.3-2.4V4.6c0-1.8,0.6-2.4,2.3-2.4h1.5c1.7,0,2.3,0.6,2.3,2.4v5.1c0,0.8-0.3,1.1-1,1.1H263.4z M262.4,9.7V7.2
		l-1,0.4c-0.4,0.1-0.5,0.3-0.5,0.7v1.3c0,0.4,0.2,0.6,0.6,0.6C261.8,10.2,262.1,10,262.4,9.7z"/>
	<path d="M269.4,5.6V0.9h0.9v10.4h-0.9V6.5h-2.3v4.9h-0.9V0.9h0.9v4.7H269.4z"/>
	<path d="M274.8,0.9v0.8h-2.2v3.9h2.2v0.8h-2.2v4.1h2.3v0.8h-3.2V0.9H274.8z"/>
	<path d="M277.1,0.9v9.6h2.1v0.8h-3V0.9H277.1z"/>
	<path d="M281.4,0.9v9.6h2.1v0.8h-3V0.9H281.4z"/>
	<path d="M287,11.4h-0.5c-1.2,0-1.8-0.6-1.8-1.8V2.7c0-1.2,0.6-1.8,1.8-1.8h0.5c1.2,0,1.8,0.6,1.8,1.8v6.9
		C288.8,10.8,288.2,11.4,287,11.4z M287,1.7h-0.4c-0.7,0-1,0.3-1,1v7c0,0.6,0.3,1,1,1h0.4c0.7,0,1-0.3,1-1v-7
		C287.9,2,287.6,1.7,287,1.7z"/>
	<path d="M291.1,2.5l0,6.8v2.1h-0.8V0.9h1.3l1.7,8.8l1.7-8.8h1.3v10.4h-0.9V9.2l0-6.7l-1.7,8.9h-0.9L291.1,2.5z"/>
	<path d="M298.6,11.4h-0.9V0.9h0.9V11.4z"/>
	<path d="M304.1,7.4v2.2c0,1.2-0.6,1.8-1.8,1.8h-0.4c-1.2,0-1.8-0.6-1.8-1.8V2.7c0-1.2,0.6-1.8,1.8-1.8h0.4c1.2,0,1.8,0.6,1.8,1.8
		v1.9h-0.9V2.6c0-0.6-0.3-1-1-1h-0.3c-0.7,0-1,0.3-1,1v7c0,0.6,0.3,1,1,1h0.4c0.7,0,1-0.3,1-1V7.4H304.1z"/>
	<path d="M308.7,5.6V0.9h0.9v10.4h-0.9V6.5h-2.3v4.9h-0.9V0.9h0.9v4.7H308.7z"/>
	<path d="M315.4,11.4h-0.9l-0.3-2H312l-0.3,2h-0.9l1.7-10.4h1.1L315.4,11.4z M312.1,8.6h1.9l-1-6.2L312.1,8.6z"/>
	<path d="M319.8,0.9v0.8h-2.2v3.9h2.2v0.8h-2.2v4.1h2.3v0.8h-3.2V0.9H319.8z"/>
	<path d="M322.1,0.9v9.6h2.1v0.8h-3V0.9H322.1z"/>
	<path d="M328.6,11.4l-2.4-8.6l0,4.1v4.5h-0.8V0.9h1.1l2.3,8.3l0-4V0.9h0.8v10.4H328.6z"/>
	<path d="M333.1,6.8V5.9h2.1v3.7c0,1.2-0.6,1.8-1.8,1.8h-0.5c-1.2,0-1.8-0.6-1.8-1.8V2.7c0-1.2,0.6-1.8,1.8-1.8h0.5
		c1.2,0,1.8,0.6,1.8,1.8v1.5h-0.9V2.6c0-0.6-0.3-1-1-1H333c-0.7,0-1,0.3-1,1v7c0,0.6,0.3,1,1,1h0.4c0.6,0,1-0.3,1-1V6.8H333.1z"/>
	<path d="M338.9,11.4h-0.5c-1.2,0-1.8-0.6-1.8-1.8V2.7c0-1.2,0.6-1.8,1.8-1.8h0.5c1.2,0,1.8,0.6,1.8,1.8v6.9
		C340.7,10.8,340.1,11.4,338.9,11.4z M338.9,1.7h-0.4c-0.7,0-1,0.3-1,1v7c0,0.6,0.3,1,1,1h0.4c0.7,0,1-0.3,1-1v-7
		C339.8,2,339.5,1.7,338.9,1.7z"/>
	<path d="M347.7,12.4H347V0h0.7V12.4z"/>
	<path d="M355,11.4h-0.9V0.9h1.9c1.2,0,1.9,0.6,1.9,1.8v2.7c0,1.3-0.6,1.9-1.9,1.9h-1V11.4z M355.9,1.8h-1v4.7h1c0.7,0,1-0.3,1-1
		V2.7C356.9,2.1,356.6,1.8,355.9,1.8z"/>
	<path d="M362.3,0.9v0.8h-2.2v3.9h2.2v0.8h-2.2v4.1h2.3v0.8h-3.2V0.9H362.3z"/>
	<path d="M365.1,11.4V1.8h-1.6V0.9h4.2v0.8h-1.6v9.6H365.1z"/>
	<path d="M371.9,0.9v0.8h-2.2v3.9h2.2v0.8h-2.2v4.1h2.3v0.8h-3.2V0.9H371.9z"/>
	<path d="M379.1,7.9v3.5h-0.9V7.9c0-0.7-0.4-1.1-1.1-1.1h-1v4.6h-0.9V0.9h2.1c1.2,0,1.8,0.6,1.8,1.8v2c0,1-0.4,1.4-1,1.6
		C378.8,6.6,379.1,7,379.1,7.9z M377.3,1.8h-1.1V6h1c0.7,0,1.1-0.3,1.1-1.1V2.7C378.2,2.1,377.9,1.8,377.3,1.8z"/>
	<path d="M384.9,11.4h-0.9l-0.3-2h-2.2l-0.3,2h-0.9l1.7-10.4h1.1L384.9,11.4z M381.7,8.6h1.9l-1-6.2L381.7,8.6z"/>
	<path d="M390.5,10.1l1.1-9.2h0.9l-1.4,10.4H390l-1-8.2l-1,8.2h-1.1l-1.4-10.4h0.9l1.1,9.2l1.1-9.2h0.9L390.5,10.1z"/>
	<path d="M394.7,0.9v9.6h2.1v0.8h-3V0.9H394.7z"/>
	<path d="M399,11.4h-0.9V0.9h0.9V11.4z"/>
	<path d="M403.6,11.4l-2.4-8.6l0,4.1v4.5h-0.8V0.9h1.1l2.3,8.3l0-4V0.9h0.8v10.4H403.6z"/>
	<path d="M408.2,6.8V5.9h2.1v3.7c0,1.2-0.6,1.8-1.8,1.8h-0.5c-1.2,0-1.8-0.6-1.8-1.8V2.7c0-1.2,0.6-1.8,1.8-1.8h0.5
		c1.2,0,1.8,0.6,1.8,1.8v1.5h-0.9V2.6c0-0.6-0.3-1-1-1H408c-0.7,0-1,0.3-1,1v7c0,0.6,0.3,1,1,1h0.4c0.6,0,1-0.3,1-1V6.8H408.2z"/>
	<path d="M415.6,8.1v1.6c0,1.2-0.6,1.8-1.8,1.8h-0.3c-1.2,0-1.8-0.6-1.8-1.8V7.5h0.9v2.2c0,0.6,0.3,0.9,1,0.9h0.3c0.6,0,1-0.3,1-0.9
		V8.1c0-0.6-0.2-0.8-0.6-1.1l-1.5-1.1c-0.7-0.5-0.9-1-0.9-1.9V2.6c0-1.2,0.6-1.8,1.8-1.8h0.3c1.2,0,1.8,0.6,1.8,1.8v1.8h-0.9V2.6
		c0-0.6-0.3-0.9-1-0.9h-0.2c-0.7,0-1,0.3-1,0.9v1.3c0,0.6,0.2,0.8,0.6,1.1l1.5,1.1C415.3,6.7,415.6,7.2,415.6,8.1z"/>
	<path d="M423.6,10.8c-0.6,0-0.8-0.2-0.9-0.6c-0.3,0.4-0.8,0.6-1.3,0.6c-0.7,0-1.1-0.4-1.1-1.1V8.2c0-0.7,0.2-1,0.9-1.3l1.3-0.5V5.1
		c0-0.5-0.2-0.7-0.7-0.7h-0.1c-0.5,0-0.7,0.2-0.7,0.7V6h-0.7V5.1c0-0.9,0.5-1.4,1.4-1.4h0.1c0.9,0,1.4,0.5,1.4,1.4V10
		c0,0.3,0.1,0.5,0.5,0.5h0.1c0.4,0,0.6-0.2,0.6-0.7V4.6c0-1.5-0.5-2-1.8-2h-1.5c-1.4,0-1.8,0.5-1.8,2v5.3c0,1.5,0.5,2,1.8,2h3.5v0.4
		h-3.5c-1.7,0-2.3-0.6-2.3-2.4V4.6c0-1.8,0.6-2.4,2.3-2.4h1.5c1.7,0,2.3,0.6,2.3,2.4v5.1c0,0.8-0.3,1.1-1,1.1H423.6z M422.6,9.7V7.2
		l-1,0.4c-0.4,0.1-0.5,0.3-0.5,0.7v1.3c0,0.4,0.2,0.6,0.6,0.6C422,10.2,422.3,10,422.6,9.7z"/>
	<path d="M430.3,7.9v3.5h-0.9V7.9c0-0.7-0.4-1.1-1.1-1.1h-1v4.6h-0.9V0.9h2.1c1.2,0,1.8,0.6,1.8,1.8v2c0,1-0.4,1.4-1,1.6
		C430,6.6,430.3,7,430.3,7.9z M428.4,1.8h-1.1V6h1c0.7,0,1.1-0.3,1.1-1.1V2.7C429.4,2.1,429.1,1.8,428.4,1.8z"/>
	<path d="M434,11.4h-0.5c-1.2,0-1.8-0.6-1.8-1.8V2.7c0-1.2,0.6-1.8,1.8-1.8h0.5c1.2,0,1.8,0.6,1.8,1.8v6.9
		C435.8,10.8,435.2,11.4,434,11.4z M434,1.7h-0.4c-0.7,0-1,0.3-1,1v7c0,0.6,0.3,1,1,1h0.4c0.7,0,1-0.3,1-1v-7
		C435,2,434.6,1.7,434,1.7z"/>
	<path d="M439.5,11.4h-0.5c-1.2,0-1.8-0.6-1.8-1.8V2.7c0-1.2,0.6-1.8,1.8-1.8h0.5c1.2,0,1.8,0.6,1.8,1.8v6.9
		C441.4,10.8,440.8,11.4,439.5,11.4z M439.5,1.7h-0.4c-0.7,0-1,0.3-1,1v7c0,0.6,0.3,1,1,1h0.4c0.7,0,1-0.3,1-1v-7
		C440.5,2,440.2,1.7,439.5,1.7z"/>
	<path d="M443.7,0.9v9.6h2.1v0.8h-3V0.9H443.7z"/>
	<path d="M448,11.4h-0.9V0.9h0.9V11.4z"/>
	<path d="M452.6,11.4l-2.4-8.6l0,4.1v4.5h-0.8V0.9h1.1l2.3,8.3l0-4V0.9h0.8v10.4H452.6z"/>
	<path d="M459,8.1v1.6c0,1.2-0.6,1.8-1.8,1.8h-0.3c-1.2,0-1.8-0.6-1.8-1.8V7.5h0.9v2.2c0,0.6,0.3,0.9,1,0.9h0.3c0.6,0,1-0.3,1-0.9
		V8.1c0-0.6-0.2-0.8-0.6-1.1L456,5.8c-0.7-0.5-0.9-1-0.9-1.9V2.6c0-1.2,0.6-1.8,1.8-1.8h0.3c1.2,0,1.8,0.6,1.8,1.8v1.8h-0.9V2.6
		c0-0.6-0.3-0.9-1-0.9h-0.2c-0.7,0-1,0.3-1,0.9v1.3c0,0.6,0.2,0.8,0.6,1.1l1.5,1.1C458.8,6.7,459,7.2,459,8.1z"/>
	<path d="M0,11.9v-0.6h45.6v0.6H0z"/>
	<path d="M27.4,22.6h2.1c1.3,0,1.9,0.6,1.9,1.9v5c0,1.3-0.6,1.9-1.9,1.9h-2.1V22.6z M28.7,30.3h0.5c0.5,0,0.8-0.3,0.8-0.8v-4.9
		c0-0.5-0.2-0.8-0.8-0.8h-0.5V30.3z"/>
	<path d="M35.3,22.6v1.2h-1.7v2.5h1.6v1.2h-1.6v2.7h1.7v1.2h-3.1v-8.9H35.3z"/>
	<path d="M40.1,28.5V30c0,1.1-0.5,1.7-1.7,1.7h-0.6c-1.1,0-1.6-0.5-1.6-1.6v-1.9h1.3v1.8c0,0.3,0.2,0.5,0.5,0.5h0.2
		c0.4,0,0.5-0.2,0.5-0.5v-1.2c0-0.4-0.1-0.5-0.4-0.7L37,27c-0.6-0.4-0.8-0.9-0.8-1.5v-1.2c0-1.1,0.5-1.7,1.7-1.7h0.6
		c1.1,0,1.6,0.5,1.6,1.6v1.6h-1.3v-1.6c0-0.3-0.2-0.5-0.5-0.5H38c-0.3,0-0.5,0.2-0.5,0.5v1c0,0.4,0.1,0.5,0.4,0.7l1.4,1
		C39.9,27.4,40.1,27.8,40.1,28.5z"/>
	<path d="M42.3,31.5H41v-8.9h1.4V31.5z"/>
	<path d="M45.2,27.8v-1.2h2V30c0,1.1-0.5,1.7-1.7,1.7h-0.7c-1.1,0-1.7-0.5-1.7-1.7v-5.8c0-1.1,0.5-1.7,1.7-1.7h0.7
		c1.1,0,1.6,0.5,1.6,1.6v1.4h-1.3v-1.4c0-0.4-0.2-0.5-0.5-0.5h-0.3c-0.4,0-0.5,0.2-0.5,0.5v5.6c0,0.4,0.2,0.5,0.5,0.5h0.3
		c0.4,0,0.5-0.2,0.5-0.5v-2.1H45.2z"/>
	<path d="M50.8,31.5l-1.4-6l0,1.6v4.4h-1.2v-8.9h1.6l1.3,5.5l0-1.5v-4h1.2v8.9H50.8z"/>
	<path d="M58.3,30.6c-0.3,0.7-0.7,1-1.6,1h-0.4c-1,0-1.6-0.5-1.6-1.6v-1.8c0-0.6,0.1-1.1,0.6-1.5l0.5-0.4l-0.3-0.5
		c-0.3-0.5-0.3-0.8-0.3-1.3v-0.3c0-1.1,0.5-1.6,1.6-1.6h0.5c1.1,0,1.6,0.5,1.6,1.6v1.3h-1.3v-1.2c0-0.3-0.2-0.5-0.5-0.5h-0.1
		c-0.3,0-0.5,0.2-0.5,0.5v0.3c0,0.3,0,0.5,0.2,0.9l1.4,2.5l0.5-1.6H60l-1,3l1.3,2.3h-1.4L58.3,30.6z M57.4,29.9l0.2-0.5l-1-1.9
		l-0.1,0c-0.3,0.2-0.4,0.4-0.4,0.8V30c0,0.3,0.2,0.5,0.5,0.5h0.3C57.1,30.4,57.2,30.3,57.4,29.9z"/>
	<path d="M66.3,27.9V30c0,1.1-0.5,1.7-1.7,1.7H64c-1.1,0-1.7-0.5-1.7-1.7v-5.8c0-1.1,0.5-1.7,1.7-1.7h0.7c1.1,0,1.6,0.5,1.6,1.6V26
		H65v-1.7c0-0.4-0.2-0.5-0.5-0.5h-0.2c-0.4,0-0.5,0.2-0.5,0.5v5.6c0,0.4,0.2,0.5,0.5,0.5h0.3c0.3,0,0.5-0.2,0.5-0.5v-2H66.3z"/>
	<path d="M71.1,28.5v3h-1.4v-3c0-0.4-0.2-0.6-0.6-0.6h-0.6v3.6h-1.4v-8.9h2.2c1.1,0,1.7,0.5,1.7,1.7V26c0,0.8-0.3,1.2-0.8,1.4
		C70.9,27.5,71.1,27.8,71.1,28.5z M69.3,23.8h-0.7v2.9h0.6c0.4,0,0.6-0.2,0.6-0.5v-1.9C69.8,24,69.6,23.8,69.3,23.8z"/>
	<path d="M75.1,22.6v1.2h-1.7v2.5H75v1.2h-1.6v2.7h1.7v1.2h-3.1v-8.9H75.1z"/>
	<path d="M80.2,31.5h-1.4l-0.2-1.4h-1.4l-0.2,1.4h-1.3l1.3-8.9h1.8L80.2,31.5z M77.4,28.9h1.1L78,24.4L77.4,28.9z"/>
	<path d="M81.6,31.5v-7.7h-1.2v-1.2h3.8v1.2h-1.2v7.7H81.6z"/>
	<path d="M86.3,31.5h-1.4v-8.9h1.4V31.5z"/>
	<path d="M88.4,31.5l-1.3-8.9h1.4l0.8,6.7l0.8-6.7h1.3l-1.3,8.9H88.4z"/>
	<path d="M95.2,22.6v1.2h-1.7v2.5h1.6v1.2h-1.6v2.7h1.7v1.2h-3.1v-8.9H95.2z"/>
	<path d="M97.8,22.6h2.1c1.3,0,1.9,0.6,1.9,1.9v5c0,1.3-0.6,1.9-1.9,1.9h-2.1V22.6z M99.2,30.3h0.5c0.5,0,0.8-0.3,0.8-0.8v-4.9
		c0-0.5-0.2-0.8-0.8-0.8h-0.5V30.3z"/>
	<path d="M104.1,31.5h-1.4v-8.9h1.4V31.5z"/>
	<path d="M109,28.5v3h-1.4v-3c0-0.4-0.2-0.6-0.6-0.6h-0.6v3.6H105v-8.9h2.2c1.1,0,1.7,0.5,1.7,1.7V26c0,0.8-0.3,1.2-0.8,1.4
		C108.7,27.5,109,27.8,109,28.5z M107.1,23.8h-0.7v2.9h0.6c0.4,0,0.6-0.2,0.6-0.5v-1.9C107.6,24,107.4,23.8,107.1,23.8z"/>
	<path d="M112.9,22.6v1.2h-1.7v2.5h1.6v1.2h-1.6v2.7h1.7v1.2h-3.1v-8.9H112.9z"/>
	<path d="M117.8,27.9V30c0,1.1-0.5,1.7-1.7,1.7h-0.7c-1.1,0-1.7-0.5-1.7-1.7v-5.8c0-1.1,0.5-1.7,1.7-1.7h0.7c1.1,0,1.6,0.5,1.6,1.6
		V26h-1.3v-1.7c0-0.4-0.2-0.5-0.5-0.5h-0.2c-0.4,0-0.5,0.2-0.5,0.5v5.6c0,0.4,0.2,0.5,0.5,0.5h0.3c0.3,0,0.5-0.2,0.5-0.5v-2H117.8z"
		/>
	<path d="M119.7,31.5v-7.7h-1.2v-1.2h3.8v1.2h-1.2v7.7H119.7z"/>
	<path d="M124.5,31.5h-1.4v-8.9h1.4V31.5z"/>
	<path d="M127.8,31.6H127c-1.1,0-1.7-0.5-1.7-1.7v-5.8c0-1.1,0.5-1.7,1.7-1.7h0.7c1.1,0,1.7,0.5,1.7,1.7V30
		C129.4,31.1,128.9,31.6,127.8,31.6z M127.5,23.7h-0.3c-0.4,0-0.5,0.2-0.5,0.5v5.6c0,0.4,0.2,0.5,0.5,0.5h0.3c0.3,0,0.5-0.2,0.5-0.5
		v-5.6C128.1,23.9,127.9,23.7,127.5,23.7z"/>
	<path d="M132.9,31.5l-1.4-6l0,1.6v4.4h-1.2v-8.9h1.6l1.3,5.5l0-1.5v-4h1.2v8.9H132.9z"/>
	<path d="M139,22.2h1.8c1.5,0,2.2,0.7,2.2,2.2v6c0,1.5-0.7,2.2-2.2,2.2H139V22.2z M139.8,31.8h0.9c0.9,0,1.4-0.4,1.4-1.4v-6
		c0-0.9-0.4-1.4-1.4-1.4h-0.9V31.8z"/>
	<path d="M148.7,32.6h-0.9l-0.3-2h-2.2l-0.3,2h-0.9l1.7-10.4h1.1L148.7,32.6z M145.4,29.8h1.9l-1-6.2L145.4,29.8z"/>
	<path d="M150.7,32.6L149,22.2h0.9l1.3,8.6l1.3-8.6h0.9l-1.7,10.4H150.7z"/>
	<path d="M155.5,32.6h-0.9V22.2h0.9V32.6z"/>
	<path d="M157,22.2h1.8c1.5,0,2.2,0.7,2.2,2.2v6c0,1.5-0.7,2.2-2.2,2.2H157V22.2z M157.9,31.8h0.9c0.9,0,1.4-0.4,1.4-1.4v-6
		c0-0.9-0.4-1.4-1.4-1.4h-0.9V31.8z"/>
	<path d="M168.4,28.9v1.9c0,1.2-0.6,1.8-1.8,1.8h-2.1V22.2h2.1c1.2,0,1.8,0.6,1.8,1.8v1.7c0,0.9-0.4,1.4-1,1.6
		C168,27.5,168.4,28,168.4,28.9z M166.5,23h-1.2v3.9h1c0.7,0,1.1-0.4,1.1-1.1V24C167.4,23.3,167.1,23,166.5,23z M165.3,31.8h1.2
		c0.6,0,1-0.3,1-1v-2.1c0-0.7-0.4-1.1-1.1-1.1h-1.1V31.8z"/>
	<path d="M173.7,29.1v3.5h-0.9v-3.5c0-0.7-0.4-1.1-1.1-1.1h-1v4.6h-0.9V22.2h2.1c1.2,0,1.8,0.6,1.8,1.8v2c0,1-0.4,1.4-1,1.6
		C173.3,27.8,173.7,28.2,173.7,29.1z M171.8,23h-1.1v4.2h1c0.7,0,1.1-0.3,1.1-1.1V24C172.8,23.3,172.5,23,171.8,23z"/>
	<path d="M177.4,32.7h-0.5c-1.2,0-1.8-0.6-1.8-1.8v-6.9c0-1.2,0.6-1.8,1.8-1.8h0.5c1.2,0,1.8,0.6,1.8,1.8v6.9
		C179.2,32.1,178.6,32.7,177.4,32.7z M177.4,22.9h-0.4c-0.7,0-1,0.3-1,1v7c0,0.6,0.3,1,1,1h0.4c0.7,0,1-0.3,1-1v-7
		C178.3,23.2,178,22.9,177.4,22.9z"/>
	<path d="M185.6,31.3l1.1-9.2h0.9l-1.4,10.4H185l-1-8.2l-1,8.2h-1.1l-1.4-10.4h0.9l1.1,9.2l1.1-9.2h0.9L185.6,31.3z"/>
	<path d="M192,32.6l-2.4-8.6l0,4.1v4.5h-0.8V22.2h1.1l2.3,8.3l0-4v-4.4h0.8v10.4H192z"/>
	<path d="M201.3,32.1c-0.6,0-0.8-0.2-0.9-0.6c-0.3,0.4-0.8,0.6-1.3,0.6c-0.7,0-1.1-0.4-1.1-1.1v-1.5c0-0.7,0.2-1,0.9-1.3l1.3-0.5
		v-1.3c0-0.5-0.2-0.7-0.7-0.7h-0.1c-0.5,0-0.7,0.2-0.7,0.7v0.9h-0.7v-0.9c0-0.9,0.5-1.4,1.4-1.4h0.1c0.9,0,1.4,0.5,1.4,1.4v4.9
		c0,0.3,0.1,0.5,0.5,0.5h0.1c0.4,0,0.6-0.2,0.6-0.7v-5.1c0-1.5-0.5-2-1.8-2h-1.5c-1.4,0-1.8,0.5-1.8,2v5.3c0,1.5,0.5,2,1.8,2h3.5
		v0.4h-3.5c-1.7,0-2.3-0.6-2.3-2.4v-5.3c0-1.8,0.6-2.4,2.3-2.4h1.5c1.7,0,2.3,0.6,2.3,2.4V31c0,0.8-0.3,1.1-1,1.1H201.3z M200.3,31
		v-2.6l-1,0.4c-0.4,0.1-0.5,0.3-0.5,0.7v1.3c0,0.4,0.2,0.6,0.6,0.6C199.7,31.4,200,31.2,200.3,31z"/>
	<path d="M204.6,32.6V23H203v-0.8h4.2V23h-1.6v9.6H204.6z"/>
	<path d="M210.6,32.7h-0.5c-1.2,0-1.8-0.6-1.8-1.8v-6.9c0-1.2,0.6-1.8,1.8-1.8h0.5c1.2,0,1.8,0.6,1.8,1.8v6.9
		C212.4,32.1,211.8,32.7,210.6,32.7z M210.5,22.9h-0.4c-0.7,0-1,0.3-1,1v7c0,0.6,0.3,1,1,1h0.4c0.7,0,1-0.3,1-1v-7
		C211.5,23.2,211.2,22.9,210.5,22.9z"/>
	<path d="M216.1,32.7h-0.5c-1.2,0-1.8-0.6-1.8-1.8v-6.9c0-1.2,0.6-1.8,1.8-1.8h0.5c1.2,0,1.8,0.6,1.8,1.8v6.9
		C217.9,32.1,217.3,32.7,216.1,32.7z M216.1,22.9h-0.4c-0.7,0-1,0.3-1,1v7c0,0.6,0.3,1,1,1h0.4c0.7,0,1-0.3,1-1v-7
		C217,23.2,216.7,22.9,216.1,22.9z"/>
	<path d="M220.1,23.7l0,6.8v2.1h-0.8V22.2h1.3l1.7,8.8l1.7-8.8h1.3v10.4h-0.9v-2.1l0-6.7l-1.7,8.9h-0.9L220.1,23.7z"/>
	<path d="M231.2,32.6h-0.9l-0.3-2h-2.2l-0.3,2h-0.9l1.7-10.4h1.1L231.2,32.6z M227.9,29.8h1.9l-1-6.2L227.9,29.8z"/>
	<path d="M235.6,32.6l-2.4-8.6l0,4.1v4.5h-0.8V22.2h1.1l2.3,8.3l0-4v-4.4h0.8v10.4H235.6z"/>
	<path d="M240.5,29v3.6h-0.9V29l-1.7-6.8h0.9l1.3,5.5l1.3-5.5h0.9L240.5,29z"/>
	<path d="M247.3,28.9v1.9c0,1.2-0.6,1.8-1.8,1.8h-2.1V22.2h2.1c1.2,0,1.8,0.6,1.8,1.8v1.7c0,0.9-0.4,1.4-1,1.6
		C247,27.5,247.3,28,247.3,28.9z M245.5,23h-1.2v3.9h1c0.7,0,1.1-0.4,1.1-1.1V24C246.4,23.3,246.1,23,245.5,23z M244.3,31.8h1.2
		c0.6,0,1-0.3,1-1v-2.1c0-0.7-0.4-1.1-1.1-1.1h-1.1V31.8z"/>
	<path d="M252.7,29.1v3.5h-0.9v-3.5c0-0.7-0.4-1.1-1.1-1.1h-1v4.6h-0.9V22.2h2.1c1.2,0,1.8,0.6,1.8,1.8v2c0,1-0.4,1.4-1,1.6
		C252.3,27.8,252.7,28.2,252.7,29.1z M250.8,23h-1.1v4.2h1c0.7,0,1.1-0.3,1.1-1.1V24C251.8,23.3,251.4,23,250.8,23z"/>
	<path d="M256.4,32.7h-0.5c-1.2,0-1.8-0.6-1.8-1.8v-6.9c0-1.2,0.6-1.8,1.8-1.8h0.5c1.2,0,1.8,0.6,1.8,1.8v6.9
		C258.2,32.1,257.6,32.7,256.4,32.7z M256.3,22.9h-0.4c-0.7,0-1,0.3-1,1v7c0,0.6,0.3,1,1,1h0.4c0.7,0,1-0.3,1-1v-7
		C257.3,23.2,257,22.9,256.3,22.9z"/>
	<path d="M264.5,31.3l1.1-9.2h0.9l-1.4,10.4H264l-1-8.2l-1,8.2h-1.1l-1.4-10.4h0.9l1.1,9.2l1.1-9.2h0.9L264.5,31.3z"/>
	<path d="M271,32.6l-2.4-8.6l0,4.1v4.5h-0.8V22.2h1.1l2.3,8.3l0-4v-4.4h0.8v10.4H271z"/>
	<path d="M279.1,33.6h-0.7V21.2h0.7V33.6z"/>
	<path d="M286.3,23.7l0,6.8v2.1h-0.8V22.2h1.3l1.7,8.8l1.7-8.8h1.3v10.4h-0.9v-2.1l0-6.7l-1.7,8.9H288L286.3,23.7z"/>
	<path d="M296.1,22.2V23h-2.2v3.9h2.2v0.8h-2.2v4.1h2.3v0.8H293V22.2H296.1z"/>
	<path d="M298.4,22.2v9.6h2.1v0.8h-3V22.2H298.4z"/>
	<path d="M302.7,32.6h-0.9V22.2h0.9V32.6z"/>
	<path d="M308,29.3v1.6c0,1.2-0.6,1.8-1.8,1.8h-0.3c-1.2,0-1.8-0.6-1.8-1.8v-2.1h0.9v2.2c0,0.6,0.3,0.9,1,0.9h0.3c0.6,0,1-0.3,1-0.9
		v-1.6c0-0.6-0.2-0.8-0.6-1.1L305,27c-0.7-0.5-0.9-1-0.9-1.9v-1.3c0-1.2,0.6-1.8,1.8-1.8h0.3c1.2,0,1.8,0.6,1.8,1.8v1.8h-0.9v-1.9
		c0-0.6-0.3-0.9-1-0.9h-0.2c-0.7,0-1,0.3-1,0.9v1.3c0,0.6,0.2,0.8,0.6,1.1l1.5,1.1C307.8,28,308,28.4,308,29.3z"/>
	<path d="M313.3,29.3v1.6c0,1.2-0.6,1.8-1.8,1.8h-0.3c-1.2,0-1.8-0.6-1.8-1.8v-2.1h0.9v2.2c0,0.6,0.3,0.9,1,0.9h0.3
		c0.6,0,1-0.3,1-0.9v-1.6c0-0.6-0.2-0.8-0.6-1.1l-1.5-1.1c-0.7-0.5-0.9-1-0.9-1.9v-1.3c0-1.2,0.6-1.8,1.8-1.8h0.3
		c1.2,0,1.8,0.6,1.8,1.8v1.8h-0.9v-1.9c0-0.6-0.3-0.9-1-0.9h-0.2c-0.7,0-1,0.3-1,0.9v1.3c0,0.6,0.2,0.8,0.6,1.1l1.5,1.1
		C313.1,28,313.3,28.4,313.3,29.3z"/>
	<path d="M319,32.6h-0.9l-0.3-2h-2.2l-0.3,2h-0.9l1.7-10.4h1.1L319,32.6z M315.8,29.8h1.9l-1-6.2L315.8,29.8z"/>
	<path d="M326.1,28.9v1.9c0,1.2-0.6,1.8-1.8,1.8h-2.1V22.2h2.1c1.2,0,1.8,0.6,1.8,1.8v1.7c0,0.9-0.4,1.4-1,1.6
		C325.7,27.5,326.1,28,326.1,28.9z M324.2,23H323v3.9h1c0.7,0,1.1-0.4,1.1-1.1V24C325.1,23.3,324.8,23,324.2,23z M323,31.8h1.2
		c0.6,0,1-0.3,1-1v-2.1c0-0.7-0.4-1.1-1.1-1.1H323V31.8z"/>
	<path d="M331.7,32.6h-0.9l-0.3-2h-2.2l-0.3,2h-0.9l1.7-10.4h1.1L331.7,32.6z M328.5,29.8h1.9l-1-6.2L328.5,29.8z"/>
	<path d="M333.9,32.6H333V22.2h0.9V32.6z"/>
	<path d="M336.3,22.2v9.6h2.1v0.8h-3V22.2H336.3z"/>
	<path d="M340.5,22.2v9.6h2.1v0.8h-3V22.2H340.5z"/>
	<path d="M348.3,32.6h-0.9l-0.3-2h-2.2l-0.3,2h-0.9l1.7-10.4h1.1L348.3,32.6z M345,29.8h1.9l-1-6.2L345,29.8z"/>
	<path d="M353.5,28.7v2.2c0,1.2-0.6,1.8-1.8,1.8h-0.4c-1.2,0-1.8-0.6-1.8-1.8v-6.9c0-1.2,0.6-1.8,1.8-1.8h0.4c1.2,0,1.8,0.6,1.8,1.8
		v1.9h-0.9v-1.9c0-0.6-0.3-1-1-1h-0.3c-0.7,0-1,0.3-1,1v7c0,0.6,0.3,1,1,1h0.4c0.7,0,1-0.3,1-1v-2.2H353.5z"/>
	<path d="M358.1,26.9v-4.7h0.9v10.4h-0.9v-4.9h-2.3v4.9h-0.9V22.2h0.9v4.7H358.1z"/>
	<path d="M363.6,22.2V23h-2.2v3.9h2.2v0.8h-2.2v4.1h2.3v0.8h-3.2V22.2H363.6z"/>
	<path d="M371.6,32.1c-0.6,0-0.8-0.2-0.9-0.6c-0.3,0.4-0.8,0.6-1.3,0.6c-0.7,0-1.1-0.4-1.1-1.1v-1.5c0-0.7,0.2-1,0.9-1.3l1.3-0.5
		v-1.3c0-0.5-0.2-0.7-0.7-0.7h-0.1c-0.5,0-0.7,0.2-0.7,0.7v0.9h-0.7v-0.9c0-0.9,0.5-1.4,1.4-1.4h0.1c0.9,0,1.4,0.5,1.4,1.4v4.9
		c0,0.3,0.1,0.5,0.5,0.5h0.1c0.4,0,0.6-0.2,0.6-0.7v-5.1c0-1.5-0.5-2-1.8-2h-1.5c-1.4,0-1.8,0.5-1.8,2v5.3c0,1.5,0.5,2,1.8,2h3.5
		v0.4h-3.5c-1.7,0-2.3-0.6-2.3-2.4v-5.3c0-1.8,0.6-2.4,2.3-2.4h1.5c1.7,0,2.3,0.6,2.3,2.4V31c0,0.8-0.3,1.1-1,1.1H371.6z M370.6,31
		v-2.6l-1,0.4c-0.4,0.1-0.5,0.3-0.5,0.7v1.3c0,0.4,0.2,0.6,0.6,0.6C370,31.4,370.3,31.2,370.6,31z"/>
	<path d="M375.2,23.7l0,6.8v2.1h-0.8V22.2h1.3l1.7,8.8l1.7-8.8h1.3v10.4h-0.9v-2.1l0-6.7l-1.7,8.9h-0.9L375.2,23.7z"/>
	<path d="M385,22.2V23h-2.2v3.9h2.2v0.8h-2.2v4.1h2.3v0.8h-3.2V22.2H385z"/>
	<path d="M387.3,22.2v9.6h2.1v0.8h-3V22.2H387.3z"/>
	<path d="M394.6,28.9v1.9c0,1.2-0.6,1.8-1.8,1.8h-2.1V22.2h2.1c1.2,0,1.8,0.6,1.8,1.8v1.7c0,0.9-0.4,1.4-1,1.6
		C394.2,27.5,394.6,28,394.6,28.9z M392.7,23h-1.2v3.9h1c0.7,0,1.1-0.4,1.1-1.1V24C393.7,23.3,393.3,23,392.7,23z M391.5,31.8h1.2
		c0.6,0,1-0.3,1-1v-2.1c0-0.7-0.4-1.1-1.1-1.1h-1.1V31.8z"/>
	<path d="M400.3,32.6h-0.9l-0.3-2h-2.2l-0.3,2h-0.9l1.7-10.4h1.1L400.3,32.6z M397,29.8h1.9l-1-6.2L397,29.8z"/>
	<path d="M402.4,32.6h-0.9V22.2h0.9V32.6z"/>
	<path d="M404.8,22.2v9.6h2.1v0.8h-3V22.2H404.8z"/>
	<path d="M409,22.2v9.6h2.1v0.8h-3V22.2H409z"/>
	<path d="M416.8,32.6h-0.9l-0.3-2h-2.2l-0.3,2h-0.9l1.7-10.4h1.1L416.8,32.6z M413.5,29.8h1.9l-1-6.2L413.5,29.8z"/>
	<path d="M422,28.7v2.2c0,1.2-0.6,1.8-1.8,1.8h-0.4c-1.2,0-1.8-0.6-1.8-1.8v-6.9c0-1.2,0.6-1.8,1.8-1.8h0.4c1.2,0,1.8,0.6,1.8,1.8
		v1.9h-0.9v-1.9c0-0.6-0.3-1-1-1h-0.3c-0.7,0-1,0.3-1,1v7c0,0.6,0.3,1,1,1h0.4c0.7,0,1-0.3,1-1v-2.2H422z"/>
	<path d="M426.6,26.9v-4.7h0.9v10.4h-0.9v-4.9h-2.3v4.9h-0.9V22.2h0.9v4.7H426.6z"/>
	<path d="M432.1,22.2V23h-2.2v3.9h2.2v0.8h-2.2v4.1h2.3v0.8h-3.2V22.2H432.1z"/>
	<path d="M27,33.1v-0.6h108v0.6H27z"/>
	<path d="M172,43.9v8.9h-1.3V46l-1,6.8h-1.3l-1-6.9v6.9h-1.2v-8.9h2l0.9,6.5l0.9-6.5H172z"/>
	<path d="M176.9,51.2c0,1.1-0.5,1.7-1.7,1.7h-0.7c-1.1,0-1.7-0.5-1.7-1.7v-7.3h1.4v7.3c0,0.4,0.2,0.5,0.5,0.5h0.2
		c0.3,0,0.5-0.2,0.5-0.5v-7.3h1.4V51.2z"/>
	<path d="M181.7,49.8v1.5c0,1.1-0.5,1.7-1.7,1.7h-0.6c-1.1,0-1.6-0.5-1.6-1.6v-1.9h1.3v1.8c0,0.3,0.2,0.5,0.5,0.5h0.2
		c0.4,0,0.5-0.2,0.5-0.5v-1.2c0-0.4-0.1-0.5-0.4-0.7l-1.4-1c-0.6-0.4-0.8-0.9-0.8-1.5v-1.2c0-1.1,0.5-1.7,1.7-1.7h0.6
		c1.1,0,1.6,0.5,1.6,1.6V47h-1.3v-1.6c0-0.3-0.2-0.5-0.5-0.5h-0.2c-0.3,0-0.5,0.2-0.5,0.5v1c0,0.4,0.1,0.5,0.4,0.7l1.4,1
		C181.5,48.6,181.7,49,181.7,49.8z"/>
	<path d="M183.9,52.8h-1.4v-8.9h1.4V52.8z"/>
	<path d="M188.8,49.1v2.1c0,1.1-0.5,1.7-1.7,1.7h-0.7c-1.1,0-1.7-0.5-1.7-1.7v-5.8c0-1.1,0.5-1.7,1.7-1.7h0.7c1.1,0,1.6,0.5,1.6,1.6
		v1.8h-1.3v-1.7c0-0.4-0.2-0.5-0.5-0.5h-0.2c-0.4,0-0.5,0.2-0.5,0.5v5.6c0,0.4,0.2,0.5,0.5,0.5h0.3c0.3,0,0.5-0.2,0.5-0.5v-2H188.8z
		"/>
	<path d="M194.2,53.8h-0.9V43.4h1.9c1.2,0,1.9,0.6,1.9,1.8v2.7c0,1.3-0.6,1.9-1.9,1.9h-1V53.8z M195.2,44.3h-1V49h1c0.7,0,1-0.3,1-1
		v-2.8C196.2,44.6,195.8,44.3,195.2,44.3z"/>
	<path d="M201.5,43.4v0.8h-2.2v3.9h2.2v0.8h-2.2V53h2.3v0.8h-3.2V43.4H201.5z"/>
	<path d="M204.3,53.8v-9.6h-1.6v-0.8h4.2v0.8h-1.6v9.6H204.3z"/>
	<path d="M211.2,43.4v0.8h-2.2v3.9h2.2v0.8h-2.2V53h2.3v0.8H208V43.4H211.2z"/>
	<path d="M218.4,50.3v3.5h-0.9v-3.5c0-0.7-0.4-1.1-1.1-1.1h-1v4.6h-0.9V43.4h2.1c1.2,0,1.8,0.6,1.8,1.8v2c0,1-0.4,1.4-1,1.6
		C218,49.1,218.4,49.5,218.4,50.3z M216.5,44.3h-1.1v4.2h1c0.7,0,1.1-0.3,1.1-1.1v-2.2C217.5,44.6,217.1,44.3,216.5,44.3z"/>
	<path d="M224.2,53.8h-0.9l-0.3-2h-2.2l-0.3,2h-0.9l1.7-10.4h1.1L224.2,53.8z M220.9,51h1.9l-1-6.2L220.9,51z"/>
	<path d="M229.8,52.6l1.1-9.2h0.9l-1.4,10.4h-1.1l-1-8.2l-1,8.2h-1.1l-1.4-10.4h0.9l1.1,9.2l1.1-9.2h0.9L229.8,52.6z"/>
	<path d="M234,43.4V53h2.1v0.8h-3V43.4H234z"/>
	<path d="M238.3,53.8h-0.9V43.4h0.9V53.8z"/>
	<path d="M242.9,53.8l-2.4-8.6l0,4.1v4.5h-0.8V43.4h1.1l2.3,8.3l0-4v-4.4h0.8v10.4H242.9z"/>
	<path d="M247.4,49.2v-0.8h2.1v3.7c0,1.2-0.6,1.8-1.8,1.8h-0.5c-1.2,0-1.8-0.6-1.8-1.8v-6.9c0-1.2,0.6-1.8,1.8-1.8h0.5
		c1.2,0,1.8,0.6,1.8,1.8v1.5h-0.9v-1.5c0-0.6-0.3-1-1-1h-0.4c-0.7,0-1,0.3-1,1v7c0,0.6,0.3,1,1,1h0.4c0.6,0,1-0.3,1-1v-2.9H247.4z"
		/>
	<path d="M254.8,50.6v1.6c0,1.2-0.6,1.8-1.8,1.8h-0.3c-1.2,0-1.8-0.6-1.8-1.8V50h0.9v2.2c0,0.6,0.3,0.9,1,0.9h0.3c0.6,0,1-0.3,1-0.9
		v-1.6c0-0.6-0.2-0.8-0.6-1.1l-1.5-1.1c-0.7-0.5-0.9-1-0.9-1.9v-1.3c0-1.2,0.6-1.8,1.8-1.8h0.3c1.2,0,1.8,0.6,1.8,1.8V47h-0.9v-1.9
		c0-0.6-0.3-0.9-1-0.9h-0.2c-0.7,0-1,0.3-1,0.9v1.3c0,0.6,0.2,0.8,0.6,1.1l1.5,1.1C254.6,49.2,254.8,49.7,254.8,50.6z"/>
	<path d="M261.8,54.8H261V42.5h0.7V54.8z"/>
	<path d="M274.1,51.5c0,1.7-0.7,2.4-2.3,2.4h-1.5c-1.6,0-2.3-0.7-2.3-2.4v-5.7c0-1.7,0.7-2.4,2.3-2.4h1.5c1.6,0,2.3,0.7,2.3,2.4
		V51.5z M273.8,45.8c0-1.5-0.6-2.1-1.9-2.1h-1.5c-1.4,0-1.9,0.6-1.9,2.1v5.7c0,1.5,0.6,2.1,1.9,2.1h1.5c1.4,0,1.9-0.6,1.9-2.1V45.8z
		 M272.6,49.7v1.5c0,0.9-0.4,1.3-1.3,1.3H271c-0.9,0-1.3-0.4-1.3-1.3v-5.1c0-0.8,0.4-1.3,1.3-1.3h0.2c0.9,0,1.3,0.4,1.3,1.3v1.4
		h-0.7v-1.3c0-0.4-0.2-0.6-0.6-0.6H271c-0.5,0-0.6,0.2-0.6,0.6v5c0,0.4,0.2,0.6,0.6,0.6h0.2c0.5,0,0.6-0.2,0.6-0.6v-1.4H272.6z"/>
	<path d="M278,47.9c0.4-0.4,0.5-0.8,0.5-1.3v-1.6c0-0.6-0.3-0.9-0.9-0.9h-0.3c-0.6,0-0.9,0.3-0.9,0.9v2h-0.9v-1.9
		c0-1.2,0.6-1.8,1.8-1.8h0.3c1.2,0,1.8,0.6,1.8,1.8v1.4c0,0.7-0.2,1.3-0.7,1.9l-1.8,2.2c-0.4,0.6-0.6,0.9-0.6,1.6V53h3.1v0.8h-3.9
		v-1.6c0-0.8,0.2-1.3,0.8-2.1L278,47.9z"/>
	<path d="M283,53.9h-0.4c-1.2,0-1.8-0.6-1.8-1.8v-6.9c0-1.2,0.6-1.8,1.8-1.8h0.4c1.2,0,1.8,0.6,1.8,1.8v6.9
		C284.8,53.3,284.2,53.9,283,53.9z M283,44.2h-0.4c-0.6,0-1,0.3-1,1v7c0,0.6,0.3,1,1,1h0.4c0.6,0,1-0.3,1-1v-7
		C284,44.5,283.6,44.2,283,44.2z"/>
	<path d="M287.8,53.8H287v-8.9h-1v-0.7l0.2,0c0.5-0.1,0.8-0.3,1-0.7l0.1-0.2h0.5V53.8z"/>
	<path d="M289.1,50.9l2.6-7.5h1.1V51h0.9v0.8h-0.9v2.1H292v-2.1h-2.9V50.9z M292,44.8l-2.1,6.2h2.1V44.8z"/>
	<path d="M165.8,54.4v-0.6h23.5v0.6H165.8z"/>
</g>
</svg>
