<?xml version="1.0" encoding="utf-8"?>
<!-- Generator: Adobe Illustrator 18.1.0, SVG Export Plug-In . SVG Version: 6.00 Build 0)  -->
<!DOCTYPE svg PUBLIC "-//W3C//DTD SVG 1.1//EN" "http://www.w3.org/Graphics/SVG/1.1/DTD/svg11.dtd">
<svg version="1.1" id="Layer_1" xmlns="http://www.w3.org/2000/svg" xmlns:xlink="http://www.w3.org/1999/xlink" x="0px" y="0px"
	 viewBox="0 0 475 28.9" enable-background="new 0 0 475 28.9" xml:space="preserve">
<g>
	<path fill="#FFFFFF" d="M4.3,28.7V3.2H0v-3h11.8v3H7.5v25.4H4.3z"/>
	<path fill="#FFFFFF" d="M28.3,12.6V0.2h3.2v28.4h-3.2v-13h-5.3v13h-3.2V0.2h3.2v12.4H28.3z"/>
	<path fill="#FFFFFF" d="M49.7,0.2v3H44v9.4h5.5v3H44v10h5.8v3h-9V0.2H49.7z"/>
	<path fill="#FFFFFF" d="M71.7,28.7h-3.2V0.2h5.6c3.5,0,5.3,1.7,5.3,5.3v7.2c0,3.5-1.7,5.3-5.3,5.3h-2.4V28.7z M74,3.2h-2.2V15H74
		c1.5,0,2.2-0.7,2.2-2.2V5.4C76.1,3.9,75.4,3.2,74,3.2z"/>
	<path fill="#FFFFFF" d="M97,0.2v3h-5.7v9.4h5.5v3h-5.5v10h5.8v3h-9V0.2H97z"/>
	<path fill="#FFFFFF" d="M112.3,28.9h-1.2c-3.5,0-5.3-1.7-5.3-5.3V5.3c0-3.5,1.7-5.3,5.3-5.3h1.2c3.5,0,5.3,1.7,5.3,5.3v18.3
		C117.5,27.1,115.8,28.9,112.3,28.9z M112.1,3h-1c-1.5,0-2.2,0.7-2.2,2.2v18.7c0,1.5,0.7,2.2,2.2,2.2h1c1.5,0,2.2-0.7,2.2-2.2V5.1
		C114.3,3.7,113.6,3,112.1,3z"/>
	<path fill="#FFFFFF" d="M128.9,28.7h-3.2V0.2h5.6c3.5,0,5.3,1.7,5.3,5.3v7.2c0,3.5-1.7,5.3-5.3,5.3h-2.4V28.7z M131.1,3.2h-2.2V15
		h2.2c1.5,0,2.2-0.7,2.2-2.2V5.4C133.3,3.9,132.6,3.2,131.1,3.2z"/>
	<path fill="#FFFFFF" d="M147.5,0.2v25.4h5.4v3h-8.6V0.2H147.5z"/>
	<path fill="#FFFFFF" d="M170.3,0.2v3h-5.7v9.4h5.5v3h-5.5v10h5.8v3h-9V0.2H170.3z"/>
	<path fill="#FFFFFF" d="M200.3,18.6v4.8c0,3.5-1.7,5.3-5.3,5.3h-6V0.2h5.9c3.5,0,5.3,1.7,5.3,5.3v4.2c0,2.5-0.9,3.8-2.5,4.4
		C199.5,14.8,200.3,16.1,200.3,18.6z M194.9,3.2h-2.6v9.5h2.4c1.6,0,2.4-0.8,2.4-2.4v-5C197.1,3.9,196.4,3.2,194.9,3.2z M192.3,25.7
		h2.7c1.5,0,2.2-0.7,2.2-2.2V18c0-1.6-0.8-2.4-2.4-2.4h-2.5V25.7z"/>
	<path fill="#FFFFFF" d="M218.3,0.2v3h-5.7v9.4h5.5v3h-5.5v10h5.8v3h-9V0.2H218.3z"/>
	<path fill="#FFFFFF" d="M235.7,12.6V0.2h3.2v28.4h-3.2v-13h-5.3v13h-3.2V0.2h3.2v12.4H235.7z"/>
	<path fill="#FFFFFF" d="M250.4,28.7h-3.2V0.2h3.2V28.7z"/>
	<path fill="#FFFFFF" d="M262.7,6.4v22.2h-3.1V0.2h4.5l4.7,20.5V0.2h3.1v28.4h-4.1L262.7,6.4z"/>
	<path fill="#FFFFFF" d="M281,0.2h5.4c4.3,0,6.3,2,6.3,6.3v15.8c0,4.3-2,6.3-6.3,6.3H281V0.2z M284.3,25.7h1.9
		c2.2,0,3.2-1.1,3.2-3.3V6.5c0-2.2-1-3.3-3.2-3.3h-1.9V25.7z"/>
	<path fill="#FFFFFF" d="M314.9,28.7V3.2h-4.3v-3h11.8v3h-4.3v25.4H314.9z"/>
	<path fill="#FFFFFF" d="M338.9,12.6V0.2h3.2v28.4h-3.2v-13h-5.3v13h-3.2V0.2h3.2v12.4H338.9z"/>
	<path fill="#FFFFFF" d="M359.3,0.2v3h-5.7v9.4h5.5v3h-5.5v10h5.8v3h-9V0.2H359.3z"/>
	<path fill="#FFFFFF" d="M382.3,28.7h-3.2V0.2h5.6c3.5,0,5.3,1.7,5.3,5.3v7.2c0,3.5-1.7,5.3-5.3,5.3h-2.4V28.7z M384.6,3.2h-2.2V15
		h2.2c1.5,0,2.2-0.7,2.2-2.2V5.4C386.7,3.9,386,3.2,384.6,3.2z"/>
	<path fill="#FFFFFF" d="M402,28.7h-3.2V0.2h3.2V28.7z"/>
	<path fill="#FFFFFF" d="M417.6,14.4l4.3,14.2h-3.2l-3-11l-3,11h-3.2l4.3-14.2l-4.2-14.2h3.2l3,11.1l3-11.1h3.2L417.6,14.4z"/>
	<path fill="#FFFFFF" d="M439.2,0.2v3h-5.7v9.4h5.5v3h-5.5v10h5.8v3h-9V0.2H439.2z"/>
	<path fill="#FFFFFF" d="M451.3,0.2v25.4h5.4v3h-8.6V0.2H451.3z"/>
	<path fill="#FFFFFF" d="M475,19.5v4.1c0,3.5-1.7,5.3-5.3,5.3h-0.9c-3.5,0-5.2-1.7-5.2-5.2v-6h3.2v6.1c0,1.5,0.7,2.2,2.2,2.2h0.6
		c1.5,0,2.2-0.7,2.2-2.2v-4.3c0-1.4-0.5-2-1.4-2.7l-4-2.9c-2.1-1.5-2.7-3-2.7-5.3V5.3c0-3.5,1.7-5.3,5.3-5.3h0.8
		c3.5,0,5.2,1.7,5.2,5.2v5.1h-3.2V5.1c0-1.5-0.7-2.2-2.2-2.2H469c-1.5,0-2.2,0.7-2.2,2.2v3.6c0,1.4,0.5,2,1.5,2.7l3.9,2.8
		C474.4,15.7,475,17,475,19.5z"/>
</g>
</svg>
