<?xml version="1.0" standalone="no"?>
<!DOCTYPE svg PUBLIC "-//W3C//DTD SVG 1.1//EN" "http://www.w3.org/Graphics/SVG/1.1/DTD/svg11.dtd" >
<svg xmlns="http://www.w3.org/2000/svg">
<metadata></metadata>
<defs>
<font id="prismregular" horiz-adv-x="1024" >
<font-face units-per-em="2048" ascent="1638" descent="-410" />
<missing-glyph horiz-adv-x="475" />
<glyph horiz-adv-x="0" />
<glyph horiz-adv-x="682" />
<glyph unicode=" "  horiz-adv-x="475" />
<glyph unicode="&#x09;" horiz-adv-x="475" />
<glyph unicode="&#xa0;" horiz-adv-x="475" />
<glyph unicode="!" horiz-adv-x="575" d="M123 0v315h29v-315h-29zM123 402v1032h29v-1032h-29zM223 0v315h29v-315h-29zM223 402v1032h29v-1032h-29zM323 0v315h29v-315h-29zM323 402v1032h29v-1032h-29zM423 0v315h29v-315h-29zM423 402v1032h29v-1032h-29z" />
<glyph unicode="&#x22;" horiz-adv-x="940" d="M101 1434h30l25 -562h-25zM201 1434h29l7 -562h-24zM294 872l7 562h29l-11 -562h-25zM376 872l25 562h29l-30 -562h-24zM510 1434h29l25 -562h-24zM610 1434h29l7 -562h-25zM703 872l6 562h30l-12 -562h-24zM784 872l25 562h30l-30 -562h-25z" />
<glyph unicode="#" horiz-adv-x="1490" d="M41 299v28h687l20 69h-707v28h715l20 67h-735v28h743l20 66h-763v28h232l56 189h-216v28h224l20 69h-244v28h252l20 66h-272v28h280l20 67h-300v28h308l93 318h32l-241 -821h74l241 821h32l-241 -821h75l240 821h32l-241 -821h75l240 821h32l-93 -316h190l92 316h31 l-92 -316h75l92 316h31l-92 -316h75l92 316h31l-92 -316h75l92 316h31l-92 -316h139v-28h-686l-20 -69h706v-28h-714l-20 -66h734v-28h-742l-20 -67h762v-28h-232l-56 -191h217v-28h-225l-20 -69h245v-28h-254l-18 -64h272v-28h-280l-21 -69h301v-28h-309l-88 -299h-31 l236 804h-74l-237 -804h-31l236 804h-74l-237 -804h-31l236 804h-75l-236 -804h-31l88 299h-190l-87 -299h-32l88 299h-75l-87 -299h-32l88 299h-75l-87 -299h-32l88 299h-75l-87 -299h-32l88 299h-140zM623 613h189l56 191h-189z" />
<glyph unicode="$" horiz-adv-x="1114" d="M63 474h29q0 -183 95 -304t258 -153v70q-131 32 -207 134t-76 253h30q0 -138 68 -232t185 -126v72q-86 29 -134.5 104t-48.5 182h30q0 -94 40.5 -160.5t112.5 -95.5v78q-83 54 -83 178h29q0 -89 54 -141v282l-59 20q-138 48 -214.5 150.5t-76.5 249.5q0 162 94.5 272 t255.5 138v139h29v-642q16 -8 26 -11l38 -13v666h29v-676l64 -22v698h30v-142q161 -34 255.5 -156.5t94.5 -306.5h-29q0 170 -87 285.5t-234 148.5v-70q116 -33 184.5 -129t68.5 -235h-29q0 126 -60.5 214t-163.5 121v-73q73 -30 114.5 -98.5t41.5 -163.5h-29q0 81 -34 141 t-93 90v-85q59 -51 59 -146h-29q0 62 -30 105v-208l89 -32q128 -45 203.5 -154t75.5 -258q0 -179 -99 -297.5t-269 -147.5v-152h-30v713l-20 9l-44 15v-737h-29v747l-64 23v-770h-29v153q-176 33 -279 162t-103 324zM125 1035q0 -138 71 -234.5t201 -140.5l224 -76 q50 -17 79 -59t29 -93q0 -93 -68 -136v-80q65 25 101.5 81t36.5 135q0 75 -38 131t-104 79l-236 81q-109 38 -168.5 118t-59.5 194q0 119 67.5 202t184.5 109v70q-148 -27 -234 -129t-86 -252zM222 1035q0 -104 54.5 -177t155.5 -108l235 -80q75 -26 118.5 -90t43.5 -148 q0 -92 -44.5 -156t-123.5 -90v-71q111 27 174.5 110.5t63.5 205.5q0 108 -53.5 188t-146.5 112l-243 82q-81 28 -123.5 84.5t-42.5 137.5q1 78 41.5 133.5t113.5 78.5v71q-104 -25 -163.5 -100.5t-59.5 -182.5zM319 1035q0 -144 149 -195l241 -82q102 -35 161 -122t59 -205 q0 -135 -71.5 -225.5t-196.5 -119.5v-70q157 29 247.5 139.5t90.5 276.5q0 141 -69.5 243.5t-188.5 143.5l-249 85q-105 35 -105 131q0 73 58 107v75q-60 -23 -93 -70.5t-33 -111.5zM416 1035q0 -43 29 -72v144q-29 -27 -29 -72zM661 331q39 37 39 101q0 58 -39 95v-196z " />
<glyph unicode="%" horiz-adv-x="1646" d="M54 1025q0 184 124.5 307t311.5 123q153 0 267 -85t152 -224l203 288h40l-234 -331q7 -44 7 -78q0 -15 -2 -45l320 454h39l-373 -529q-41 -150 -168 -236l-473 -669h-39l449 633q-57 -25 -116 -34l-423 -599h-39l420 595l-30 -1q-187 0 -311.5 123t-124.5 308zM83 1026 q0 -172 116.5 -287.5t290.5 -115.5t290 115.5t116 287.5q0 171 -116 286t-290 115t-290.5 -115t-116.5 -286zM153 1026q0 143 97 239.5t240 96.5t239.5 -96.5t96.5 -239.5t-96.5 -239.5t-239.5 -96.5t-240 96.5t-97 239.5zM182 1026q0 -131 88 -219.5t220 -88.5t219.5 88 t87.5 220t-87.5 220t-219.5 88t-220 -88.5t-88 -219.5zM253 1026q0 103 68 172t169 69t169 -69t68 -172t-68 -172t-169 -69t-169 69t-68 172zM281 1026q0 -91 60 -152t149 -61t148.5 61t59.5 152t-59.5 152t-148.5 61t-149 -61t-60 -152zM352 1026q0 64 39.5 105.5 t98.5 41.5t98.5 -42t39.5 -105t-39.5 -105t-98.5 -42t-98.5 42t-39.5 105zM359 0l1014 1434h40l-1015 -1434h-39zM380 1026q0 -51 31.5 -85t78.5 -34t78 34t31 85t-31 85t-78 34t-78.5 -34t-31.5 -85zM489 0l1015 1434h39l-421 -595l34 2q187 0 311 -122.5t124 -307.5 t-124 -308t-311 -123q-155 0 -269 87t-150 229l-210 -296h-38zM760 330q26 -141 135.5 -231t260.5 -90q174 0 290.5 115.5t116.5 287.5q0 171 -116.5 286.5t-290.5 115.5q-30 0 -57 -6l-55 -78q53 17 112 17q143 0 239.5 -96t96.5 -239t-96.5 -239.5t-239.5 -96.5 t-239.5 96.5t-96.5 241.5zM848 412q0 -131 88 -219t220 -88t220 88t88 219t-88 219.5t-220 88.5q-86 0 -150 -44l-147 -207q-11 -27 -11 -57zM919 412q0 103 68 172.5t169 69.5t169 -69.5t68 -172.5t-68 -172t-169 -69t-169 69t-68 172zM948 412q0 -91 59.5 -152t148.5 -61 t148.5 61t59.5 152t-59.5 152.5t-148.5 61.5t-148.5 -61.5t-59.5 -152.5zM1018 412q0 63 39.5 105t98.5 42t98.5 -42t39.5 -105t-39.5 -104.5t-98.5 -41.5t-98.5 41.5t-39.5 104.5zM1047 412q0 -51 31 -84.5t78 -33.5t78 33.5t31 84.5t-31 85t-78 34t-78 -34t-31 -85z" />
<glyph unicode="&#x26;" horiz-adv-x="1302" d="M41 441q0 194 136 327l60 58q-92 108 -92 248q0 158 113 268.5t274 110.5q158 0 270 -111t112 -269q0 -156 -114 -270l-50 -49l144 -144l115 114h41l-415 -411q-52 -50 -126 -50q-76 0 -127.5 52t-51.5 127q0 73 52 125l57 57l-48 47l-55 -56q-72 -72 -72 -173 q0 -103 71 -174t174 -71q106 0 175 71l459 456h41l-481 -478q-79 -77 -194 -77t-194.5 79t-79.5 194q0 113 79 192l57 57l-46 47l-57 -55q-99 -94 -99 -241q0 -142 99 -240.5t241 -98.5q144 0 242 98l482 476v-39l-464 -458q-107 -105 -260 -105q-155 0 -262 106.5 t-107 260.5q0 162 105 261l59 56l-45 46l-2 2l-58 -56q-129 -126 -129 -309q0 -182 127.5 -308.5t311.5 -126.5t309 127l415 411v-39l-118 -117l168 -170v-41l-188 189l-47 -46l235 -236v-41l-255 257l-47 -46l256 -256h-40l-236 236l-47 -47l191 -189h-40l-171 169l-57 -57 q-63 -63 -148 -98t-180 -35q-195 0 -331.5 135t-136.5 328zM174 1074q0 -146 105 -251l414 -413l47 47l-411 414q-84 84 -84 203q0 118 84 201t203 83t203 -83.5t84 -201.5q0 -112 -87 -204l-48 -49l46 -47l48 48q108 108 108 252q0 146 -104 249t-250 103 q-149 0 -253.5 -102.5t-104.5 -248.5zM273 1074q0 -106 77 -183l411 -414l45 45l-411 413q-55 57 -55 139q0 79 56 134.5t136 55.5t136 -56t56 -135q0 -77 -59 -136l-49 -49l48 -48l46 47q81 86 81 186q0 106 -76 181.5t-183 75.5t-183 -75t-76 -181zM359 442 q0 -63 43.5 -107t106.5 -44q61 0 107 43l56 56l-213 213l-57 -56q-43 -43 -43 -105zM368 1074q0 -72 47 -119l411 -413l48 47l-411 414q-28 30 -28 71q0 40 28 67.5t69 27.5q40 0 68.5 -28t28.5 -68t-29 -69l-50 -49l46 -46l48 46q51 51 51 118q0 68 -47.5 115.5 t-115.5 47.5t-116 -47t-48 -115zM464 1074q0 -32 19 -51l47 -47l48 48q22 22 22 50t-20 47.5t-48 19.5q-29 0 -48.5 -19.5t-19.5 -47.5z" />
<glyph unicode="'" horiz-adv-x="530" d="M101 1434h30l25 -562h-25zM201 1434h29l7 -562h-24zM294 872l7 562h29l-11 -562h-25zM376 872l25 562h29l-30 -562h-24z" />
<glyph unicode="(" horiz-adv-x="782" d="M142 716q0 232 50.5 437.5t147.5 362.5l27 -1q-96 -161 -146 -366t-50 -433q0 -470 196 -799h-27q-97 156 -147.5 361.5t-50.5 437.5zM241 716q0 444 192 799l28 -1q-191 -361 -191 -798q0 -454 191 -798h-28q-192 343 -192 798zM340 716q0 411 188 798l28 1 q-187 -388 -187 -798q0 -425 188 -799h-27q-190 374 -190 798zM440 717q0 399 187 798l28 2q-187 -399 -187 -799q0 -402 187 -799h-28q-187 392 -187 798z" />
<glyph unicode=")" horiz-adv-x="782" d="M128 -83q186 397 186 798q0 405 -186 800h27q188 -394 188 -799q0 -399 -188 -798zM225 1513h28q189 -372 189 -798q0 -411 -188 -798l-27 -1q186 386 186 798q0 425 -188 799zM322 -84q190 359 190 798q0 456 -190 798h27q192 -343 192 -798q0 -443 -192 -798h-27z M416 -83q96 161 146 366t50 433q0 469 -196 798h27q197 -319 197 -798t-197 -800z" />
<glyph unicode="*" horiz-adv-x="677" d="M41 1029l168 97l-168 98l14 25l184 -106l35 20v41l-184 107l15 25l169 -98v196h30v-615h-30v195l-169 -98l-15 26l184 105v82l-219 -126zM374 819v615h29v-195l170 97l15 -25l-185 -106v-81l219 125l15 -25l-169 -97l169 -98l-15 -26l-184 107l-35 -20v-41l185 -107 l-15 -26l-170 100v-197h-29z" />
<glyph unicode="+" d="M82 533v28h860v-28h-266v-304h-30v304h-70v-304h-29v304h-71v-304h-29v304h-71v-304h-29v304h-265zM82 628v28h860v-28h-860zM82 722v28h860v-28h-860zM82 817v27h265v303h29v-303h71v303h29v-303h71v303h29v-303h70v303h30v-303h266v-27h-860z" />
<glyph unicode="," horiz-adv-x="530" d="M101 0v315h30v-315h-30zM101 -207q99 0 149.5 53t50.5 154v315h29v-315q0 -111 -59 -171.5t-170 -60.5v25zM101 -290q146 0 223 76t77 214v315h29v-315q0 -149 -85 -232t-244 -83v25zM201 0v315h29v-315h-29z" />
<glyph unicode="-" d="M82 533v28h860v-28h-860zM82 628v28h860v-28h-860zM82 722v28h860v-28h-860zM82 817v27h860v-27h-860z" />
<glyph unicode="." horiz-adv-x="530" d="M101 0v315h30v-315h-30zM201 0v315h29v-315h-29zM301 0v315h29v-315h-29zM401 0v315h29v-315h-29z" />
<glyph unicode="/" horiz-adv-x="1003" d="M10 -266l634 1741h31l-633 -1741h-32zM116 -266l634 1741h31l-633 -1741h-32zM222 -266l634 1741h31l-633 -1741h-32zM328 -266l634 1741h31l-633 -1741h-32z" />
<glyph unicode="0" horiz-adv-x="1312" d="M143 495v443q0 235 141 375.5t372 140.5q232 0 372.5 -140.5t140.5 -375.5v-443q0 -235 -141 -375t-372 -140q-232 0 -372.5 140t-140.5 375zM173 495q0 -222 132.5 -355t350.5 -133t351 133t133 355v443q0 222 -133 355t-351 133t-350.5 -133t-132.5 -355v-443zM243 495 v443q0 192 113.5 306t299.5 114t299.5 -114t113.5 -306v-443q0 -191 -113.5 -305.5t-299.5 -114.5t-299.5 114.5t-113.5 305.5zM273 495q0 -178 105 -285t278 -107t278.5 107t105.5 285v443q0 178 -105.5 285t-278.5 107t-278 -107t-105 -285v-443zM343 495v443 q0 148 86 237t227 89t227.5 -89t86.5 -237v-443q0 -148 -86.5 -236.5t-227.5 -88.5t-227 88.5t-86 236.5zM372 495q0 -136 78 -216.5t206 -80.5t206 80.5t78 216.5v443q0 136 -78 217t-206 81t-206 -81t-78 -217v-443zM443 495v443q0 106 59 168.5t154 62.5q96 0 155 -63 t59 -168v-443q0 -105 -59 -168t-155 -63q-95 0 -154 62.5t-59 168.5zM472 495q0 -93 51.5 -148t132.5 -55q82 0 133 55t51 148v443q0 93 -51.5 148t-132.5 55t-132.5 -55.5t-51.5 -148.5v-442z" />
<glyph unicode="1" horiz-adv-x="794" d="M20 1122v28h310v67h-310v28h310v66h-310v28h310v67h-310v28h340v-1434h-30v1122h-310zM430 0v1434h30v-1434h-30zM530 0v1434h30v-1434h-30zM630 0v1434h29v-1434h-29z" />
<glyph unicode="2" horiz-adv-x="1150" d="M98 0v28h954v-28h-954zM98 94v28h954v-28h-954zM98 189v28h954v-28h-954zM98 283v28q82 47 157.5 97t160.5 120.5t146.5 139.5t102.5 152.5t41 161.5q0 73 -36.5 116t-97.5 43q-63 0 -102.5 -44t-39.5 -118h-30q0 87 47.5 138.5t124.5 51.5q75 0 119.5 -50.5t44.5 -136.5 q0 -76 -37 -156.5t-94 -148.5t-137.5 -138t-155.5 -123t-160 -105h114q540 361 540 671q0 116 -63.5 185t-170.5 69q-109 0 -175.5 -70t-66.5 -187h-30q0 130 75 207.5t197 77.5q120 0 191.5 -76.5t71.5 -205.5q0 -303 -520 -671h106q485 356 485 671q0 159 -91 253.5 t-243 94.5q-154 0 -248 -95.5t-94 -255.5h-30q0 173 102 276t270 103q166 0 264.5 -102.5t98.5 -273.5q0 -319 -474 -671h94q132 96 229.5 198.5t159.5 226.5t62 246q0 203 -118 323.5t-316 120.5q-200 0 -321 -121.5t-121 -325.5h-29q0 217 129 346t342 129 q211 0 336.5 -128.5t125.5 -343.5q0 -182 -117 -352t-320 -319h455v-28h-954z" />
<glyph unicode="3" horiz-adv-x="1157" d="M82 475h29q0 -205 131.5 -336.5t337.5 -131.5q204 0 334.5 120t130.5 309q0 182 -138 287q-22 -20 -50 -38q118 -90 118 -249q0 -158 -111 -259.5t-284 -101.5q-175 0 -286.5 112t-111.5 288h29q0 -163 103.5 -267.5t265.5 -104.5q160 0 262.5 93.5t102.5 239.5 q0 153 -114 234q-29 -16 -65 -30q109 -69 109 -204q0 -117 -83 -191.5t-212 -74.5q-131 0 -214.5 85.5t-83.5 219.5h29q0 -121 75.5 -199t193.5 -78q116 0 190.5 67t74.5 171q0 132 -112 193q-49 -16 -99 -23q141 -39 141 -170q0 -75 -55 -123.5t-140 -48.5q-87 0 -142.5 59 t-55.5 152h29q0 -81 47.5 -132t121.5 -51q72 0 118.5 40.5t46.5 103.5q0 78 -59 119.5t-172 41.5h-7v25q230 0 363.5 106t133.5 286q0 182 -116 297t-300 115q-182 0 -303 -116t-121 -290l-30 1q0 187 129.5 310.5t324.5 123.5q197 0 321 -123t124 -318q0 -164 -106 -272 q147 -111 147 -306q0 -201 -138.5 -328.5t-355.5 -127.5q-219 0 -358.5 138.5t-139.5 356.5zM234 1021q0 145 101 241.5t253 96.5q153 0 249.5 -96.5t96.5 -248.5t-115 -241.5t-312 -89.5v25q185 0 291.5 82t105.5 224q0 140 -88.5 228.5t-227.5 88.5t-231.5 -88t-92.5 -222 h-30zM334 1021q0 105 72.5 174.5t181.5 69.5t177.5 -70.5t68.5 -180.5q0 -115 -87.5 -181t-239.5 -66v25q138 0 217.5 59.5t79.5 162.5q0 98 -60.5 160.5t-155.5 62.5q-97 0 -160.5 -61.5t-63.5 -154.5h-30zM434 1021q0 65 43.5 107t110.5 42q65 0 105.5 -43.5t40.5 -112.5 l-30 1q0 56 -32.5 91.5t-83.5 35.5q-54 0 -89.5 -34.5t-35.5 -86.5h-29zM507 851v25q93 0 145 36.5t52 102.5h30q0 -76 -60.5 -120t-166.5 -44z" />
<glyph unicode="4" horiz-adv-x="1185" d="M41 222v28h1103v-28h-122v-222h-30v222h-70v-222h-30v222h-70v-222h-29v222h-71v-222h-29v222h-652zM41 316v28h1103v-28h-1103zM41 411v28h1103v-28h-1103zM41 505v28l584 901h34l-586 -901h86l587 901h34l-589 -901h86l590 901h34l-592 -901h86l593 901h34v-901h122 v-28h-1103zM427 533h266v402zM722 533h71v553l-71 -106v-447zM822 533h70v705l-70 -107v-598zM922 533h70v856l-70 -107v-749z" />
<glyph unicode="5" horiz-adv-x="1173" d="M82 470h29q0 -201 135 -332t340 -131q209 0 342.5 130.5t133.5 331.5q0 202 -132.5 331.5t-340.5 129.5q-57 0 -103 -14l-12 -67q54 19 115 17q178 -1 290.5 -112t112.5 -285q0 -171 -113.5 -282.5t-292.5 -111.5q-175 0 -289.5 111.5t-114.5 281.5h29 q0 -158 106.5 -261.5t268.5 -103.5q165 0 270.5 103.5t105.5 262.5q0 162 -104 266t-269 104q-66 0 -120 -20l-12 -67q56 25 132 25q134 0 218.5 -86.5t84.5 -221.5q1 -129 -84.5 -214t-221.5 -85q-131 0 -217.5 85t-86.5 213h29q0 -116 78 -193t197 -77q122 0 199 77 t77 194q0 124 -76 202.5t-197 78.5q-80 0 -138 -31l-13 -69q62 38 151 38t146 -61.5t57 -157.5q0 -88 -57.5 -146.5t-148.5 -58.5q-88 0 -146 58.5t-58 145.5h29q0 -75 50 -125.5t125 -50.5q78 0 127.5 50.5t49.5 126.5q0 85 -48.5 138.5t-125.5 53.5q-99 0 -158 -49l-1 1 l-27 4l89 505h-72l-88 -493l-29 6l87 487h-71l-85 -476l-29 6l83 470h-71l-81 -457l-29 4l82 468l2 13h815v-28h-484l-31 -179q42 13 98 13q220 0 361.5 -137t141.5 -350q0 -212 -142 -350.5t-364 -138.5q-219 0 -361.5 138.5t-142.5 351.5zM204 1217l4 28h798v-28h-802z M221 1311l4 28h781v-28h-785zM237 1406l4 28h765v-28h-769z" />
<glyph unicode="6" horiz-adv-x="1159" d="M75 469v1q0 139 69 258l407 706h35l-416 -720q-66 -114 -66 -245q1 -201 135.5 -331.5t339.5 -130.5q209 0 342 130.5t134 330.5q-1 182 -119 308.5t-300 145.5l-37 -63q165 -7 275 -118.5t110 -271.5q0 -171 -113 -282.5t-292 -111.5q-175 0 -289.5 111.5t-114.5 281.5 q0 114 56 210l436 756h34l-444 -770q-53 -92 -53 -196q0 -158 106.5 -261.5t268.5 -103.5q165 0 270.5 103.5t105.5 262.5q0 155 -106.5 258.5t-265.5 103.5l-39 -68q24 2 36 2q130 0 217.5 -84.5t87.5 -211.5q1 -129 -84.5 -214t-221.5 -85q-131 0 -218 85t-87 213 q0 86 43 160l465 806h35l-475 -821q-38 -63 -38 -145q0 -116 78 -193t197 -77q123 0 199.5 77t76.5 194q0 116 -78 193t-197 77q-19 0 -53 -6l-53 -90q47 29 106 29q88 0 146.5 -58t58.5 -145q0 -88 -57.5 -146.5t-148.5 -58.5q-88 0 -146.5 58.5t-58.5 145.5q0 62 29 111 l495 855h34l-281 -486q186 -20 309 -155t124 -325v-2q-1 -212 -142 -349t-363 -137q-218 0 -360.5 138t-143.5 351zM404 468q0 -75 50 -125.5t125 -50.5q78 0 127 50.5t49 126.5q0 75 -50 125t-125 50q-98 0 -147 -72l-4 -8q-25 -43 -25 -96z" />
<glyph unicode="7" horiz-adv-x="1048" d="M34 1123v28h975v-28l-452 -1123h-31l452 1123h-76l-452 -1123h-31l452 1123h-76l-452 -1123h-30l452 1123h-76l-452 -1123h-31l452 1123h-624zM34 1217v28h975v-28h-975zM34 1312v28h975v-28h-975zM34 1406v28h975v-28h-975z" />
<glyph unicode="8" horiz-adv-x="1161" d="M102 434q0 80 35 157t95 131q-106 117 -106 288q0 196 127 320t329 124q201 0 326.5 -123.5t125.5 -320.5q0 -149 -109 -258q134 -124 134 -318q0 -204 -132 -329t-347 -125t-346.5 125t-131.5 329zM132 434q0 -191 123.5 -309t324.5 -118q202 0 325.5 118t123.5 309 q0 183 -125 299.5t-323 116.5q-69 0 -112 44t-43 115t43.5 115.5t112.5 44.5q68 0 110 -44.5t42 -115.5q0 -47 -20 -83t-56 -55q34 -4 72 -14q75 56 75 152q0 100 -62 163.5t-161 63.5q-101 0 -164 -63.5t-63 -163.5q0 -102 62.5 -162.5t163.5 -60.5q167 0 272.5 -98.5 t105.5 -253.5q0 -161 -104.5 -260t-274.5 -99t-274 99t-104 260q0 63 27 124.5t72 104.5q-30 20 -50 40q-54 -51 -86.5 -123.5t-32.5 -145.5zM156 1010q0 -178 118.5 -290t306.5 -112q79 0 128.5 -48.5t49.5 -125.5t-49 -123.5t-130 -46.5q-80 0 -129 46.5t-49 123.5 q0 53 25 93.5t69 60.5q-42 6 -79 18q-39 -29 -62 -75t-23 -97q0 -106 68 -171t180 -65t181 65t69 171q0 105 -69.5 171t-179.5 66q-157 0 -256 94t-99 245q0 153 99.5 250.5t256.5 97.5q156 0 254 -97.5t98 -250.5q0 -118 -85 -201q32 -19 56 -39q100 102 100 240 q0 183 -118 299.5t-305 116.5q-189 0 -307.5 -116.5t-118.5 -299.5zM232 434q0 -149 95.5 -240t252.5 -91q156 0 253 91.5t97 239.5q0 144 -97.5 235t-251.5 91q-114 0 -184.5 68t-70.5 182q0 113 71 183.5t185 70.5q113 0 182.5 -70.5t69.5 -183.5q0 -99 -74 -161 q28 -9 64 -27q81 76 81 188q0 142 -89.5 231t-233.5 89q-145 0 -235.5 -89t-90.5 -231q0 -140 90 -226.5t235 -86.5q122 0 200 -73.5t78 -189.5q0 -119 -77 -191.5t-202 -72.5t-201.5 73t-76.5 191q0 52 23 101.5t62 81.5q-36 15 -63 31q-43 -39 -67.5 -96.5t-24.5 -117.5z M431 434q0 -63 41 -102.5t108 -39.5t108.5 39.5t41.5 102.5q0 66 -41.5 106.5t-107.5 40.5l-11 1q-62 0 -100.5 -41t-38.5 -107zM455 1009q0 -60 35 -96.5t91 -36.5h8q51 0 83.5 36.5t32.5 96.5q0 59 -34 95.5t-89 36.5q-57 0 -92 -36.5t-35 -95.5z" />
<glyph unicode="9" horiz-adv-x="1159" d="M75 946v1q1 212 142 349.5t363 137.5q218 0 360.5 -138.5t143.5 -351.5v-1q0 -139 -69 -258l-407 -705h-35l416 719q66 114 66 245q-1 201 -135.5 331.5t-339.5 130.5q-209 0 -342 -130t-134 -330q1 -182 119 -309t300 -146l37 64q-165 7 -275 118t-110 271 q0 171 113 282.5t292 111.5q175 0 289.5 -111t114.5 -281q0 -115 -56 -211l-436 -755h-34l444 770q53 92 53 196q0 157 -106.5 260.5t-268.5 103.5q-165 0 -270.5 -103.5t-105.5 -262.5q0 -155 106.5 -258.5t265.5 -103.5l39 68q-24 -2 -36 -2q-130 0 -217.5 84.5 t-87.5 211.5q-1 129 84.5 214t221.5 85q131 0 218 -84.5t87 -212.5q0 -87 -43 -161l-465 -805h-35l475 820q38 63 38 146q0 116 -78 192.5t-197 76.5q-122 0 -199 -76.5t-77 -194.5q0 -116 78 -193t197 -77q19 0 53 6l53 90q-47 -29 -106 -29q-88 0 -146.5 58t-58.5 145 q0 88 57.5 146.5t148.5 58.5q88 0 146.5 -58t58.5 -145q0 -63 -29 -112l-495 -854h-34l281 485q-185 20 -308.5 155.5t-124.5 325.5zM404 944q0 -75 50 -125t125 -50q98 0 147 72l4 8q25 43 25 97q0 75 -50 125t-125 50q-78 0 -127 -50.5t-49 -126.5z" />
<glyph unicode=":" horiz-adv-x="530" d="M101 0v315h30v-315h-30zM101 709v315h30v-315h-30zM201 0v315h29v-315h-29zM201 709v315h29v-315h-29zM301 0v315h29v-315h-29zM301 709v315h29v-315h-29zM401 0v315h29v-315h-29zM401 709v315h29v-315h-29z" />
<glyph unicode=";" horiz-adv-x="530" d="M101 0v315h30v-315h-30zM101 -207q99 0 149.5 53t50.5 154v315h29v-315q0 -111 -59 -171.5t-170 -60.5v25zM101 -290q146 0 223 76t77 214v315h29v-315q0 -149 -85 -232t-244 -83v25zM101 709v315h30v-315h-30zM201 0v315h29v-315h-29zM201 709v315h29v-315h-29zM301 709 v315h29v-315h-29zM401 709v315h29v-315h-29z" />
<glyph unicode="&#x3c;" d="M82 521v29l860 310v-29l-404 -146l404 -145v-30l-444 161l-98 -36l542 -195v-29l-583 210l-98 -36l681 -245v-29l-721 260l-98 -36l819 -295v-29zM82 621v29l860 310v-29zM82 721v29l860 310v-29zM82 820v30l860 310v-30z" />
<glyph unicode="=" d="M82 295v28h860v-28h-860zM82 389v28h860v-28h-860zM82 484v27h860v-27h-860zM82 578v28h860v-28h-860zM82 751v28h860v-28h-860zM82 846v28h860v-28h-860zM82 940v28h860v-28h-860zM82 1035v28h860v-28h-860z" />
<glyph unicode="&#x3e;" d="M82 204v30l860 310v-30zM82 304v29l860 310v-29zM82 404v29l860 310v-29zM82 504v29l404 146l-404 145v30l444 -161l98 36l-542 195v29l583 -210l98 35l-681 246v29l721 -260l98 35l-819 296v29l860 -310v-29z" />
<glyph unicode="?" horiz-adv-x="1124" d="M102 979q0 217 131 346t343 129q202 0 326 -119t124 -311q0 -153 -77.5 -260t-215.5 -156l-8 -2v-211h-29v200l-71 -24v-176h-29v166l-71 -24v-142h-29v132l-71 -25v-107h-29v127l326 111q131 45 203 146.5t72 244.5q0 180 -116 291t-305 111q-199 0 -322 -122t-123 -325 h-29zM202 979q0 172 103.5 275.5t270.5 103.5q157 0 253.5 -92t96.5 -242q0 -120 -60 -205t-168 -123l-302 -102v30l289 100q102 36 157 113t55 187q0 137 -88.5 221.5t-232.5 84.5q-154 0 -249.5 -96t-95.5 -255h-29zM301 979q0 130 76.5 207.5t198.5 77.5 q113 0 181.5 -66.5t68.5 -173.5q0 -86 -42.5 -147t-122.5 -90l-265 -91v30l252 87q72 26 110.5 80.5t38.5 130.5q0 94 -61 153t-160 59q-108 0 -176.5 -70t-68.5 -187h-30zM396 0v315h29v-315h-29zM396 798v30l218 73q83 28 83 123q0 53 -33 85t-88 32q-62 0 -103.5 -44 t-41.5 -118h-30q0 86 49.5 138t125.5 52q69 0 110 -40t41 -105q0 -52 -26.5 -91t-76.5 -57zM496 0v315h29v-315h-29zM596 0v315h29v-315h-29zM696 0v315h29v-315h-29z" />
<glyph unicode="@" horiz-adv-x="1562" d="M82 653v121q0 306 190.5 488.5t508.5 182.5q208 0 366.5 -82t246 -235t87.5 -354v-97q0 -145 -86 -231t-228 -86q-126 0 -211 71q-76 -71 -185 -71q-128 0 -209 81t-81 219v108q0 137 82.5 217.5t217.5 80.5t217.5 -80.5t82.5 -217.5v-91q0 -43 25.5 -69.5t60.5 -26.5 q37 0 61 26t24 70v97q0 207 -129.5 330.5t-341.5 123.5q-213 0 -341.5 -122.5t-128.5 -331.5v-122q0 -207 129 -331t341 -123h594v-28h-594q-226 0 -362.5 131t-136.5 351v122q0 220 137 351t362 131q226 0 363 -131t137 -351v-97q0 -57 -31.5 -90.5t-82.5 -33.5 q-49 0 -82 34t-33 90v91q0 125 -74.5 198t-196.5 73t-196 -73t-74 -197v-108q0 -125 72.5 -198.5t187.5 -73.5q97 0 166 60q-22 22 -39 50q-50 -44 -122 -44q-87 0 -141 55t-54 151v108q0 94 55 148.5t145 54.5t145 -54.5t55 -148.5v-91q0 -89 52.5 -142t133.5 -53 q83 0 134 52.5t51 142.5v96q0 249 -157.5 399t-413.5 150q-259 0 -414.5 -149.5t-155.5 -399.5v-121q0 -248 158 -398t418 -152h588v-26h-588q-272 0 -438.5 157.5t-166.5 418.5v121q0 263 163.5 420t435.5 157q269 0 434.5 -157.5t165.5 -419.5v-96q0 -102 -58.5 -162.5 t-155.5 -60.5q-96 0 -155.5 60.5t-59.5 162.5v91q0 82 -47.5 128.5t-123.5 46.5t-123 -46.5t-47 -128.5v-108q0 -83 46.5 -130.5t118.5 -47.5q63 0 109 40q-14 27 -24 72q-26 -41 -80 -41q-45 0 -72.5 28t-27.5 79v108q0 49 28 76.5t72 27.5q45 0 73 -27.5t28 -76.5v-91 q0 -132 78.5 -210.5t206.5 -78.5q129 0 207 78.5t78 210.5v96q0 291 -185 467.5t-486 176.5q-304 0 -487 -175.5t-183 -468.5v-121q0 -292 185.5 -468t490.5 -178h588v-25h-588q-318 0 -511.5 183t-193.5 488zM711 660q0 -38 19.5 -58.5t50.5 -20.5q32 0 51.5 18.5 t19.5 53.5v115q0 36 -20 56.5t-51 20.5q-30 0 -50 -20.5t-20 -56.5v-108z" />
<glyph unicode="A" horiz-adv-x="1454" d="M20 0l537 1434h30l-536 -1434h-31zM123 0l537 1434h30l-537 -1434h-30zM226 0l536 1434h30l-536 -1434h-30zM328 0l537 1434h30l538 -1434h-30l-523 1393l-36 -95l486 -1298h-30l-471 1258l-35 -96l434 -1162h-30l-420 1122l-35 -95l382 -1027h-30l-69 186h-598l-69 -186 h-31zM439 214h576l-24 67h-527zM474 309h506l-25 66h-456zM509 403h436l-25 67h-386zM545 498h365l-182 489z" />
<glyph unicode="B" horiz-adv-x="1193" d="M136 0v1434h29v-1434h-29zM236 0v1434h29v-1434h-29zM336 0v1434h29v-1434h-29zM436 0v1434h173q192 0 317 -122.5t125 -310.5q0 -130 -67 -237q135 -124 135 -324q0 -194 -126 -317t-326 -123h-231zM465 28h202q187 0 305.5 115.5t118.5 296.5q0 187 -123 300 q-16 -22 -45 -51q100 -95 100 -249q0 -153 -99.5 -249.5t-256.5 -96.5h-202v-66zM465 122h202q145 0 236 88.5t91 229.5t-94 229q-24 -20 -56 -39q82 -69 82 -190q0 -112 -71.5 -181.5t-187.5 -69.5h-202v-67zM465 217h202q103 0 167 61.5t64 161.5q0 114 -82 175 q-45 -21 -83 -30q45 -17 71 -55t26 -90q0 -71 -44.5 -114t-118.5 -43h-202v-66zM465 311h202q62 0 98 35t36 94t-36 94t-98 35h-58h-144v-258zM465 597h144q179 0 296 114.5t117 289.5t-117 290t-296 115h-144v-67h144q149 0 247 -95.5t98 -242.5t-97.5 -242t-247.5 -95 h-144v-67zM465 692h144q137 0 227 87.5t90 221.5t-90 222t-227 88h-144v-66h144q108 0 178.5 -69.5t70.5 -174.5t-70.5 -174t-178.5 -69h-144v-66zM465 786h144q95 0 157.5 60.5t62.5 154.5t-62.5 155t-157.5 61h-144v-67h144q66 0 109 -42.5t43 -106.5t-43 -106t-109 -42 h-144v-67zM465 881h144q54 0 89 34t35 86q0 53 -35 87t-89 34h-144v-241z" />
<glyph unicode="C" horiz-adv-x="1601" d="M81 718q0 156 56.5 293t154 234.5t235 153.5t294.5 56q269 0 465.5 -153.5t253.5 -400.5h-29q-58 235 -246 380.5t-444 145.5q-201 0 -364 -92t-255 -254.5t-92 -362.5t92 -363t255 -255.5t364 -92.5q253 0 440.5 144t247.5 377h29q-60 -245 -255.5 -396.5t-461.5 -151.5 q-157 0 -294.5 56.5t-235 154t-154 234.5t-56.5 293zM180 718q0 181 83.5 328.5t230 231t327.5 83.5q225 0 392.5 -126.5t223.5 -333.5h-29q-56 195 -215 313.5t-372 118.5q-172 0 -312.5 -80t-220 -221t-79.5 -314t79.5 -314t220 -221t312.5 -80q210 0 369 117t216 308h30 q-58 -204 -225.5 -328.5t-389.5 -124.5q-181 0 -327.5 83.5t-230 231t-83.5 328.5zM279 718q0 234 156 391t386 157q181 0 319 -100t193 -265h-30q-53 153 -183.5 245.5t-298.5 92.5q-218 0 -365.5 -149.5t-147.5 -371.5t147.5 -371t365.5 -149q166 0 295.5 90.5 t184.5 239.5h30q-56 -162 -193.5 -260t-316.5 -98q-230 0 -386 157t-156 391zM378 718q0 194 127.5 324t315.5 130q139 0 248 -73.5t160 -197.5h-31q-49 111 -150 177t-227 66q-176 0 -295 -121.5t-119 -304.5t119 -304.5t295 -121.5q124 0 223 63.5t150 172.5h31 q-51 -121 -159.5 -192.5t-244.5 -71.5q-188 0 -315.5 130t-127.5 324z" />
<glyph unicode="D" horiz-adv-x="1419" d="M136 0v1434h29v-1434h-29zM236 0v1434h29v-1434h-29zM336 0v1434h29v-1434h-29zM436 0v1434h177q157 0 292 -54t230 -148.5t149 -227.5t54 -287t-54 -287t-149 -227.5t-230 -148.5t-292 -54h-177zM465 28h148q150 0 279.5 52t221 143t143.5 219t52 275t-52 275 t-143.5 219t-221 143t-279.5 52h-148v-67h148q180 0 322.5 -79.5t222.5 -222t80 -320.5t-80 -320.5t-222.5 -222.5t-322.5 -80h-148v-66zM465 122h148q259 0 427.5 168.5t168.5 426.5t-168.5 426t-427.5 168h-148v-66h148q228 0 377 -149.5t149 -378.5t-149 -378.5 t-377 -149.5h-148v-67zM465 217h148q215 0 355.5 141.5t140.5 358.5t-140.5 358.5t-355.5 141.5h-148v-67h148q184 0 305 -122.5t121 -310.5t-121.5 -311t-304.5 -123h-148v-66zM465 311h148q171 0 283.5 115t112.5 291t-112.5 290.5t-283.5 114.5h-148v-811z" />
<glyph unicode="E" d="M136 0v1434h29v-1434h-29zM236 0v1434h29v-1434h-29zM336 0v1434h29v-1434h-29zM436 0v1434h462v-28h-433v-67h433v-28h-433v-66h433v-28h-433v-67h433v-28h-433v-258h433v-28h-433v-66h433v-28h-433v-67h433v-28h-433v-66h433v-28h-433v-242h433v-28h-433v-66h433v-28 h-433v-67h433v-28h-433v-66h433v-28h-462z" />
<glyph unicode="F" horiz-adv-x="1046" d="M136 0v1434h29v-1434h-29zM236 0v1434h29v-1434h-29zM336 0v1434h29v-1434h-29zM436 0v1434h468v-28h-439v-67h439v-28h-439v-66h439v-28h-439v-67h439v-28h-439v-297h439v-28h-439v-66h439v-28h-439v-67h439v-27h-439v-67h439v-28h-439v-514h-29z" />
<glyph unicode="G" horiz-adv-x="1634" d="M81 719q0 156 57 293t155.5 234.5t237.5 153.5t297 56q230 0 408.5 -117t262.5 -314h-31q-82 185 -252.5 294t-387.5 109q-203 0 -367.5 -92t-257.5 -254.5t-93 -362.5t92 -363t255 -255.5t364 -92.5q148 0 278.5 54.5t223.5 148.5t147 226t54 282q0 59 -9 117h30 q8 -52 8 -117q0 -156 -56 -293t-153 -235t-233 -154.5t-290 -56.5q-157 0 -294.5 56.5t-235 154.5t-154 235t-56.5 293zM180 720q0 136 49.5 255.5t135.5 204t206.5 133.5t256.5 49q187 0 336.5 -90.5t227.5 -246.5h-32q-76 143 -216.5 226t-315.5 83q-174 0 -316 -79.5 t-222.5 -220.5t-80.5 -314t79.5 -314t220 -221t312.5 -80q127 0 239.5 47t193 128t127.5 195.5t47 244.5q0 44 -11 116l29 1q10 -65 10 -117q0 -181 -83 -328.5t-228.5 -231t-323.5 -83.5q-181 0 -327.5 83.5t-230 231t-83.5 328.5zM279 720q0 115 42.5 217t115.5 174.5 t174.5 114.5t216.5 42q142 0 261.5 -65t191.5 -178h-34q-69 100 -179.5 157.5t-239.5 57.5q-221 0 -370.5 -149t-149.5 -371t147.5 -371.5t365.5 -149.5q216 0 363 149.5t147 371.5q0 60 -12 117l29 -1q12 -63 12 -116q0 -154 -71 -280t-194.5 -197.5t-273.5 -71.5 q-230 0 -386 157.5t-156 391.5zM378 719q0 194 129.5 324t320.5 130q98 0 185 -39.5t147 -108.5l-37 -2q-55 57 -133 89t-162 32q-179 0 -300 -121.5t-121 -304.5t119 -304.5t295 -121.5q123 0 221.5 62.5t149.5 169.5h-441v28h453q13 33 20 67h-473v28h478q6 44 6 66h-484 v28h483q-2 37 -7 67h-476v28h499q13 -48 13 -117q0 -194 -127.5 -324t-314.5 -130q-188 0 -315.5 130t-127.5 324z" />
<glyph unicode="H" horiz-adv-x="1443" d="M136 0v1434h29v-1434h-29zM236 0v1434h29v-1434h-29zM336 0v1434h29v-1434h-29zM436 0v1434h29v-590h514v590h29v-1434h-29v533h-514v-533h-29zM465 561h514v67h-514v-67zM465 656h514v66h-514v-66zM465 750h514v67h-514v-67zM1078 0v1434h30v-1434h-30zM1178 0v1434h30 v-1434h-30zM1278 0v1434h30v-1434h-30z" />
<glyph unicode="I" horiz-adv-x="602" d="M136 0v1434h29v-1434h-29zM236 0v1434h29v-1434h-29zM336 0v1434h29v-1434h-29zM436 0v1434h29v-1434h-29z" />
<glyph unicode="J" horiz-adv-x="1181" d="M95 455h29q0 -204 121 -326t321 -122t321.5 122t121.5 326v979h29v-979q0 -217 -129.5 -346t-342.5 -129t-342 129t-129 346zM95 1122v28h614v66h-614v28h614v67h-614v28h614v66h-614v28h644v-979q0 -87 -48 -138.5t-125 -51.5t-124.5 51.5t-47.5 138.5h29q0 -74 40 -118 t103 -44t103 44t40 119v667h-614zM194 454h30q0 -160 94 -255.5t248 -95.5t248.5 95.5t94.5 255.5v979h30v-979q0 -173 -102.5 -276t-270.5 -103t-270 103t-102 276zM294 454h30q0 -117 66.5 -187t175.5 -70t176 70t67 187v979h30v-979q0 -130 -75 -207.5t-198 -77.5 q-122 0 -197 77.5t-75 207.5z" />
<glyph unicode="K" horiz-adv-x="1335" d="M136 0v1434h29v-1434h-29zM236 0v1434h29v-1434h-29zM336 0v1434h29v-1434h-29zM436 0v1434h29v-702l406 702h33l-429 -742l-10 17v-709h-29zM518 624l467 810h34l-484 -838zM578 529l523 905h33l-538 -934zM638 432l578 1002h33l-408 -707l454 -727h-34l-436 699 l-40 -70l392 -629h-35l-374 600l-40 -70l332 -530h-35l-314 501l-39 -69l269 -432h-34l-262 422z" />
<glyph unicode="L" horiz-adv-x="964" d="M136 0v1434h29v-1434h-29zM236 0v1434h29v-1434h-29zM336 0v1434h29v-1434h-29zM436 0v1434h29v-1123h466v-28h-466v-66h466v-28h-466v-67h466v-28h-466v-66h466v-28h-495z" />
<glyph unicode="M" horiz-adv-x="1656" d="M136 0v1434h29v-1434h-29zM236 0v1434h29v-1434h-29zM336 0v1434h29v-1434h-29zM436 0v1434h29l356 -797l355 797h31l-370 -831l37 -82l406 913h32l-423 -947l36 -82l460 1029h32l-476 -1063l37 -83l512 1146h31v-1434h-28v1370l-67 -149v-1221h-29v1157l-66 -148v-1009 h-29v945l-66 -149v-796h-29v732l-214 -478h-32l-496 1109v-165l421 -944h-32l-389 874v-165l315 -709h-32l-283 639v-165l210 -474h-32l-178 404v-658h-29z" />
<glyph unicode="N" horiz-adv-x="1482" d="M136 0v1434h29v-1434h-29zM236 0v1434h29v-1434h-29zM336 0v1434h29v-1434h-29zM436 0v1434h29l554 -855v855h29v-1434h-29l-554 854v-854h-29zM465 907l554 -854v122l-554 855v-123zM465 1083l554 -855v123l-554 854v-122zM465 1258l554 -854v122l-554 855v-123zM1118 0 v1434h30v-1434h-30zM1218 0v1434h30v-1434h-30zM1318 0v1434h30v-1434h-30z" />
<glyph unicode="O" horiz-adv-x="1642" d="M81 718q0 151 52 283t147 232q101 106 240.5 164t300.5 58q157 0 294.5 -56t235 -153.5t154 -234.5t56.5 -293t-56.5 -293t-154 -234.5t-235 -154t-294.5 -56.5t-294.5 56.5t-235 154t-154 234.5t-56.5 293zM110 718q0 -200 92 -363t255 -255.5t364 -92.5t364 92.5 t255 255.5t92 363t-92 362.5t-255 254.5t-364 92q-154 0 -287.5 -55t-229.5 -155q-93 -96 -143.5 -224t-50.5 -275zM180 718q0 136 48 254t136 206q87 87 204.5 135t252.5 48q180 0 327 -83.5t230.5 -231t83.5 -328.5t-83.5 -328.5t-230.5 -231t-327 -83.5 q-181 0 -327.5 83.5t-230 231t-83.5 328.5zM209 718q0 -173 79.5 -314t220 -221t312.5 -80t312.5 80t220 221t79.5 314t-79.5 314t-220 221t-312.5 80q-129 0 -241.5 -46t-195.5 -130q-175 -177 -175 -439zM279 718q0 118 43.5 221t120.5 178q154 149 378 149 q230 0 386 -157t156 -391t-156 -391t-386 -157t-386 157t-156 391zM308 718q0 -222 147.5 -371t365.5 -149t365.5 149t147.5 371t-147.5 371.5t-365.5 149.5q-213 0 -358 -142q-73 -71 -114 -168.5t-41 -210.5zM378 718q0 99 36 184.5t100 147.5q127 122 307 122 q187 0 314.5 -130t127.5 -324t-127.5 -324t-314.5 -130q-188 0 -315.5 130t-127.5 324zM407 718q0 -183 119 -304.5t295 -121.5t295 121.5t119 304.5t-119 304.5t-295 121.5q-167 0 -285 -112q-129 -123 -129 -314z" />
<glyph unicode="P" horiz-adv-x="1220" d="M136 0v1434h29v-1434h-29zM236 0v1434h29v-1434h-29zM336 0v1434h29v-1434h-29zM436 0v1434h201q224 0 370.5 -146.5t146.5 -361.5t-146.5 -361.5t-370.5 -146.5h-172v-418h-29zM465 446h172q212 0 350 138.5t138 341.5t-138 341.5t-350 138.5h-172v-67h172 q181 0 300.5 -119t119.5 -294t-119.5 -294.5t-300.5 -119.5h-172v-66zM465 540h172q169 0 280.5 112t111.5 274t-111.5 273.5t-280.5 111.5h-172v-66h172q138 0 231 -92.5t93 -226.5t-93 -226.5t-231 -92.5h-172v-67zM465 635h172q126 0 210.5 84.5t84.5 206.5t-84.5 206.5 t-210.5 84.5h-172v-67h172q96 0 161.5 -65.5t65.5 -158.5q0 -94 -66 -159.5t-161 -65.5h-172v-66zM465 729h172q84 0 141.5 57.5t57.5 139.5t-57.5 139t-141.5 57h-172v-393z" />
<glyph unicode="Q" horiz-adv-x="1654" d="M87 718q0 156 56.5 293t154 234.5t235 153.5t294.5 56t294.5 -56t235 -153.5t154 -234.5t56.5 -293q0 -264 -149 -458l157 -187l-23 -18l-370 441l8 12q51 94 51 210q0 183 -119 304.5t-295 121.5t-294.5 -121.5t-118.5 -304.5t118.5 -304.5t294.5 -121.5q73 0 136 21 l14 6l369 -438l-23 -18l-161 191q-153 -74 -335 -74q-157 0 -294.5 56.5t-235 154t-154 234.5t-56.5 293zM116 718q0 -200 92 -363t255 -255.5t364 -92.5q165 0 316 69l-46 55q-130 -56 -270 -56q-180 0 -327 83.5t-230 231t-83 328.5t83 328.5t230 231t327 83.5 q181 0 327.5 -83.5t230 -231t83.5 -328.5q0 -214 -116 -379l46 -56q141 189 141 435q0 200 -92.5 362.5t-255.5 254.5t-364 92t-364 -92t-255 -254.5t-92 -362.5zM215 718q0 -173 79.5 -314t220 -221t312.5 -80q132 0 251 50l-46 54q-93 -37 -205 -37q-230 0 -385.5 157 t-155.5 391t155.5 391t385.5 157t386 -157t156 -391q0 -167 -85 -299l48 -57q108 157 108 356q0 173 -80 314t-220.5 221t-312.5 80t-312.5 -80t-220 -221t-79.5 -314zM314 718q0 -222 147.5 -371t365.5 -149q107 0 186 32l-47 55q-66 -21 -139 -21q-187 0 -314.5 130 t-127.5 324t127.5 324t314.5 130q188 0 315.5 -130t127.5 -324q0 -119 -53 -219l48 -57q75 123 75 276q0 222 -147.5 371.5t-365.5 149.5t-365.5 -149.5t-147.5 -371.5zM1043 350q20 10 26 16l353 -421l-22 -18zM1122 413q4 3 11 11.5t9 10.5l358 -426l-23 -19z" />
<glyph unicode="R" horiz-adv-x="1337" d="M136 0v1434h29v-1434h-29zM236 0v1434h29v-1434h-29zM336 0v1434h29v-1434h-29zM436 0v1434h201q224 0 370.5 -146.5t146.5 -361.5q0 -128 -55.5 -236.5t-153.5 -177.5l360 -512h-36l-348 496q-30 -19 -58 -31l325 -465h-35l-317 454q-32 -12 -68 -21l304 -433h-36 l-299 426q-40 -7 -74 -8l293 -418h-36l-292 418h-163v-418h-29zM465 446h172q212 0 350 138.5t138 341.5t-138 341.5t-350 138.5h-172v-67h172q181 0 300.5 -119t119.5 -294t-119.5 -294.5t-300.5 -119.5h-172v-66zM465 540h172q169 0 280.5 112t111.5 274t-111.5 273.5 t-280.5 111.5h-172v-66h172q138 0 231 -92.5t93 -226.5t-93 -226.5t-231 -92.5h-172v-67zM465 635h172q126 0 210.5 84.5t84.5 206.5t-84.5 206.5t-210.5 84.5h-172v-67h172q96 0 161.5 -65.5t65.5 -158.5q0 -94 -66 -159.5t-161 -65.5h-172v-66zM465 729h172 q84 0 141.5 57.5t57.5 139.5t-57.5 139t-141.5 57h-172v-393z" />
<glyph unicode="S" horiz-adv-x="1114" d="M71 476h29q0 -213 128 -340.5t338 -127.5q204 0 326 115.5t122 309.5q0 140 -69 240t-192 143l-261 89q-46 16 -70.5 50.5t-24.5 80.5q0 60 40.5 97t109.5 37q74 0 122 -52t48 -138h-29q0 73 -40.5 117.5t-100.5 44.5q-55 0 -88 -29t-33 -77q0 -80 74 -105l262 -90 q132 -46 206.5 -152.5t74.5 -255.5q0 -207 -130 -330t-347 -123q-223 0 -359 135t-136 361zM97 1035q0 187 124 302.5t326 115.5q210 0 339.5 -129t129.5 -346h-28q0 203 -122 325.5t-319 122.5q-189 0 -305 -108t-116 -283q0 -138 71 -234.5t200 -140.5l236 -80 q52 -19 81 -58.5t29 -89.5q0 -77 -48.5 -122.5t-128.5 -45.5q-88 0 -142 57t-54 153h29q0 -83 46.5 -132.5t120.5 -49.5q66 0 107 38t41 102q0 41 -23.5 73t-67.5 49l-237 81q-136 47 -212.5 150t-76.5 250zM170 474h30q0 -169 100.5 -270t265.5 -101q158 0 253 89.5 t95 239.5q0 108 -53.5 185t-149.5 110l-255 86q-76 26 -117.5 84t-41.5 138q0 102 68.5 165t181.5 63q120 0 195 -77.5t75 -207.5l-29 1q0 116 -67.5 186.5t-173.5 70.5q-99 0 -160 -55.5t-61 -144.5q0 -70 37 -121t105 -74l253 -86q105 -37 163.5 -121.5t58.5 -201.5 q0 -164 -102.5 -260.5t-274.5 -96.5q-178 0 -287 108.5t-109 290.5zM197 1035q0 144 96 233.5t254 89.5q164 0 267 -104t103 -276h-29q0 159 -95 255.5t-246 96.5q-144 0 -232.5 -81.5t-88.5 -213.5q0 -104 54 -178t152 -107l247 -84q77 -27 120.5 -88.5t43.5 -145.5 q0 -120 -75.5 -191.5t-201.5 -71.5q-134 0 -215 83t-81 222h29q0 -127 73.5 -202t193.5 -75q113 0 180.5 63.5t67.5 171.5q0 74 -38 127.5t-107 78.5l-248 85q-106 36 -165 117t-59 195z" />
<glyph unicode="T" horiz-adv-x="1132" d="M34 1122v28h1064v-28h-368v-1122h-29v1122h-70v-1122h-30v1122h-70v-1122h-30v1122h-70v-1122h-30v1122h-367zM34 1217v28h1064v-28h-1064zM34 1311v28h1064v-28h-1064zM34 1406v28h1064v-28h-1064z" />
<glyph unicode="U" horiz-adv-x="1345" d="M119 536v896h30v-896q0 -241 144 -385t380 -144q237 0 381 144.5t144 384.5v896h29v-896q0 -253 -152.5 -404.5t-401.5 -151.5q-250 0 -402 151.5t-152 404.5zM219 536v896h30v-896q0 -197 116.5 -315t307.5 -118t308 118t117 315v896h29v-896q0 -210 -125 -335.5 t-329 -125.5t-329 125.5t-125 335.5zM319 536v896h29v-896q0 -154 89.5 -246t235.5 -92t235.5 92t89.5 246v896h29v-896q0 -166 -97.5 -266t-256.5 -100t-256.5 100t-97.5 266zM419 535v897h29v-896q0 -111 62.5 -177.5t162.5 -66.5t162.5 66.5t62.5 177.5v896h30v-897 q0 -124 -70.5 -197.5t-184.5 -73.5t-184 73.5t-70 197.5z" />
<glyph unicode="V" horiz-adv-x="1454" d="M20 1434h31l536 -1434h-30zM123 1434h30l537 -1434h-30zM226 1434h30l536 -1434h-30zM328 1434h31l369 -988l367 988h30l-382 -1027l35 -95l420 1122h30l-434 -1163l35 -95l471 1258h30l-486 -1298l36 -96l523 1394h30l-538 -1434h-30z" />
<glyph unicode="W" horiz-adv-x="2070" d="M20 1434h30l424 -1434h-30zM121 1434h29l424 -1434h-29zM222 1434h29l424 -1434h-29zM322 1434h30l260 -882l258 882h30l-273 -932l35 -116l308 1048h29l-323 -1098l36 -120l358 1218h30l-374 -1268l35 -116l410 1384h29l262 -883l258 883h29l-272 -932l34 -117l308 1049 h30l-323 -1098l35 -120l359 1218h29l-373 -1268l35 -117l410 1385h29l-425 -1434h-29l-411 1384l-35 -120l375 -1264h-30l-360 1215l-35 -119l324 -1096h-29l-310 1046l-35 -119l274 -927h-30l-258 878l-260 -878h-30z" />
<glyph unicode="X" horiz-adv-x="1447" d="M34 0l469 777l-438 657h34l958 -1434h-35l-319 478l-280 -478h-35l297 505l-43 65l-337 -570h-35l354 596l-43 64l-395 -660h-34l412 686l-43 65l-453 -751h-34zM184 1434h34l958 -1434h-35zM303 1434h34l958 -1434h-35zM422 1434h34l294 -441l258 441h34l-274 -467 l43 -64l315 531h34l-332 -558l43 -64l373 622h34l-389 -649l43 -64l430 713h35l-447 -740l464 -694h-35z" />
<glyph unicode="Y" horiz-adv-x="1409" d="M20 1434h34l477 -826l40 70l-435 756h34l419 -726l41 71l-378 655h33l362 -625l39 68l-319 557h34l303 -527l304 527h34l-517 -896v22zM539 163v60l700 1211h33zM539 366v59l585 1009h33zM550 0v41l804 1393h34l-520 -901v-533h-29v482l-71 -122v-360h-29v309l-70 -122 v-187h-30v136l-60 -103v-33h-29z" />
<glyph unicode="Z" horiz-adv-x="1177" d="M102 0v28h969v-28h-969zM102 94v28h969v-28h-969zM102 189v28h969v-28h-969zM102 283v28l574 811h-570v28h969v-28l-573 -811h569v-28h-969zM106 1217v28h969v-28h-969zM106 1311v28h969v-28h-969zM106 1406v28h969v-28h-969zM138 311h85l574 811h-85zM259 311h85 l574 811h-85zM380 311h86l573 811h-85z" />
<glyph unicode="[" horiz-adv-x="819" d="M136 -82v1606h29v-1606h-29zM236 -82v1606h29v-1606h-29zM336 -82v1606h29v-1606h-29zM436 -82v1606h301v-28h-272v-67h272v-28h-272v-66h272v-28h-272v-67h272v-28h-272v-983h272v-28h-272v-66h272v-28h-272v-67h272v-27h-272v-67h272v-28h-301z" />
<glyph unicode="\" horiz-adv-x="1003" d="M10 1475h32l633 -1741h-31zM116 1475h32l633 -1741h-31zM222 1475h32l633 -1741h-31zM328 1475h32l633 -1741h-31z" />
<glyph unicode="]" horiz-adv-x="819" d="M82 13v27h272v67h-272v28h272v66h-272v28h272v983h-272v28h272v67h-272v28h272v66h-272v28h272v67h-272v28h301v-1606h-301v28h272v67h-272zM453 -82v1606h30v-1606h-30zM553 -82v1606h30v-1606h-30zM653 -82v1606h30v-1606h-30z" />
<glyph unicode="`" horiz-adv-x="565" d="M82 1231v32l273 -157h-56zM82 1340v32l402 -232v-32zM84 1448v32l401 -231v-33zM213 1482l272 -157v33l-216 124h-56z" />
<glyph unicode="a" horiz-adv-x="1454" d="M20 0l537 1434h30l-536 -1434h-31zM123 0l537 1434h30l-537 -1434h-30zM226 0l536 1434h30l-536 -1434h-30zM328 0l537 1434h30l538 -1434h-30l-523 1393l-36 -95l486 -1298h-30l-471 1258l-35 -96l434 -1162h-30l-420 1122l-35 -95l382 -1027h-30l-69 186h-598l-69 -186 h-31zM439 214h576l-24 67h-527zM474 309h506l-25 66h-456zM509 403h436l-25 67h-386zM545 498h365l-182 489z" />
<glyph unicode="b" horiz-adv-x="1193" d="M136 0v1434h29v-1434h-29zM236 0v1434h29v-1434h-29zM336 0v1434h29v-1434h-29zM436 0v1434h173q192 0 317 -122.5t125 -310.5q0 -130 -67 -237q135 -124 135 -324q0 -194 -126 -317t-326 -123h-231zM465 28h202q187 0 305.5 115.5t118.5 296.5q0 187 -123 300 q-16 -22 -45 -51q100 -95 100 -249q0 -153 -99.5 -249.5t-256.5 -96.5h-202v-66zM465 122h202q145 0 236 88.5t91 229.5t-94 229q-24 -20 -56 -39q82 -69 82 -190q0 -112 -71.5 -181.5t-187.5 -69.5h-202v-67zM465 217h202q103 0 167 61.5t64 161.5q0 114 -82 175 q-45 -21 -83 -30q45 -17 71 -55t26 -90q0 -71 -44.5 -114t-118.5 -43h-202v-66zM465 311h202q62 0 98 35t36 94t-36 94t-98 35h-58h-144v-258zM465 597h144q179 0 296 114.5t117 289.5t-117 290t-296 115h-144v-67h144q149 0 247 -95.5t98 -242.5t-97.5 -242t-247.5 -95 h-144v-67zM465 692h144q137 0 227 87.5t90 221.5t-90 222t-227 88h-144v-66h144q108 0 178.5 -69.5t70.5 -174.5t-70.5 -174t-178.5 -69h-144v-66zM465 786h144q95 0 157.5 60.5t62.5 154.5t-62.5 155t-157.5 61h-144v-67h144q66 0 109 -42.5t43 -106.5t-43 -106t-109 -42 h-144v-67zM465 881h144q54 0 89 34t35 86q0 53 -35 87t-89 34h-144v-241z" />
<glyph unicode="c" horiz-adv-x="1601" d="M81 718q0 156 56.5 293t154 234.5t235 153.5t294.5 56q269 0 465.5 -153.5t253.5 -400.5h-29q-58 235 -246 380.5t-444 145.5q-201 0 -364 -92t-255 -254.5t-92 -362.5t92 -363t255 -255.5t364 -92.5q253 0 440.5 144t247.5 377h29q-60 -245 -255.5 -396.5t-461.5 -151.5 q-157 0 -294.5 56.5t-235 154t-154 234.5t-56.5 293zM180 718q0 181 83.5 328.5t230 231t327.5 83.5q225 0 392.5 -126.5t223.5 -333.5h-29q-56 195 -215 313.5t-372 118.5q-172 0 -312.5 -80t-220 -221t-79.5 -314t79.5 -314t220 -221t312.5 -80q210 0 369 117t216 308h30 q-58 -204 -225.5 -328.5t-389.5 -124.5q-181 0 -327.5 83.5t-230 231t-83.5 328.5zM279 718q0 234 156 391t386 157q181 0 319 -100t193 -265h-30q-53 153 -183.5 245.5t-298.5 92.5q-218 0 -365.5 -149.5t-147.5 -371.5t147.5 -371t365.5 -149q166 0 295.5 90.5 t184.5 239.5h30q-56 -162 -193.5 -260t-316.5 -98q-230 0 -386 157t-156 391zM378 718q0 194 127.5 324t315.5 130q139 0 248 -73.5t160 -197.5h-31q-49 111 -150 177t-227 66q-176 0 -295 -121.5t-119 -304.5t119 -304.5t295 -121.5q124 0 223 63.5t150 172.5h31 q-51 -121 -159.5 -192.5t-244.5 -71.5q-188 0 -315.5 130t-127.5 324z" />
<glyph unicode="d" horiz-adv-x="1419" d="M136 0v1434h29v-1434h-29zM236 0v1434h29v-1434h-29zM336 0v1434h29v-1434h-29zM436 0v1434h177q157 0 292 -54t230 -148.5t149 -227.5t54 -287t-54 -287t-149 -227.5t-230 -148.5t-292 -54h-177zM465 28h148q150 0 279.5 52t221 143t143.5 219t52 275t-52 275 t-143.5 219t-221 143t-279.5 52h-148v-67h148q180 0 322.5 -79.5t222.5 -222t80 -320.5t-80 -320.5t-222.5 -222.5t-322.5 -80h-148v-66zM465 122h148q259 0 427.5 168.5t168.5 426.5t-168.5 426t-427.5 168h-148v-66h148q228 0 377 -149.5t149 -378.5t-149 -378.5 t-377 -149.5h-148v-67zM465 217h148q215 0 355.5 141.5t140.5 358.5t-140.5 358.5t-355.5 141.5h-148v-67h148q184 0 305 -122.5t121 -310.5t-121.5 -311t-304.5 -123h-148v-66zM465 311h148q171 0 283.5 115t112.5 291t-112.5 290.5t-283.5 114.5h-148v-811z" />
<glyph unicode="e" d="M136 0v1434h29v-1434h-29zM236 0v1434h29v-1434h-29zM336 0v1434h29v-1434h-29zM436 0v1434h462v-28h-433v-67h433v-28h-433v-66h433v-28h-433v-67h433v-28h-433v-258h433v-28h-433v-66h433v-28h-433v-67h433v-28h-433v-66h433v-28h-433v-242h433v-28h-433v-66h433v-28 h-433v-67h433v-28h-433v-66h433v-28h-462z" />
<glyph unicode="f" horiz-adv-x="1046" d="M136 0v1434h29v-1434h-29zM236 0v1434h29v-1434h-29zM336 0v1434h29v-1434h-29zM436 0v1434h468v-28h-439v-67h439v-28h-439v-66h439v-28h-439v-67h439v-28h-439v-297h439v-28h-439v-66h439v-28h-439v-67h439v-27h-439v-67h439v-28h-439v-514h-29z" />
<glyph unicode="g" horiz-adv-x="1634" d="M81 719q0 156 57 293t155.5 234.5t237.5 153.5t297 56q230 0 408.5 -117t262.5 -314h-31q-82 185 -252.5 294t-387.5 109q-203 0 -367.5 -92t-257.5 -254.5t-93 -362.5t92 -363t255 -255.5t364 -92.5q148 0 278.5 54.5t223.5 148.5t147 226t54 282q0 59 -9 117h30 q8 -52 8 -117q0 -156 -56 -293t-153 -235t-233 -154.5t-290 -56.5q-157 0 -294.5 56.5t-235 154.5t-154 235t-56.5 293zM180 720q0 136 49.5 255.5t135.5 204t206.5 133.5t256.5 49q187 0 336.5 -90.5t227.5 -246.5h-32q-76 143 -216.5 226t-315.5 83q-174 0 -316 -79.5 t-222.5 -220.5t-80.5 -314t79.5 -314t220 -221t312.5 -80q127 0 239.5 47t193 128t127.5 195.5t47 244.5q0 44 -11 116l29 1q10 -65 10 -117q0 -181 -83 -328.5t-228.5 -231t-323.5 -83.5q-181 0 -327.5 83.5t-230 231t-83.5 328.5zM279 720q0 115 42.5 217t115.5 174.5 t174.5 114.5t216.5 42q142 0 261.5 -65t191.5 -178h-34q-69 100 -179.5 157.5t-239.5 57.5q-221 0 -370.5 -149t-149.5 -371t147.5 -371.5t365.5 -149.5q216 0 363 149.5t147 371.5q0 60 -12 117l29 -1q12 -63 12 -116q0 -154 -71 -280t-194.5 -197.5t-273.5 -71.5 q-230 0 -386 157.5t-156 391.5zM378 719q0 194 129.5 324t320.5 130q98 0 185 -39.5t147 -108.5l-37 -2q-55 57 -133 89t-162 32q-179 0 -300 -121.5t-121 -304.5t119 -304.5t295 -121.5q123 0 221.5 62.5t149.5 169.5h-441v28h453q13 33 20 67h-473v28h478q6 44 6 66h-484 v28h483q-2 37 -7 67h-476v28h499q13 -48 13 -117q0 -194 -127.5 -324t-314.5 -130q-188 0 -315.5 130t-127.5 324z" />
<glyph unicode="h" horiz-adv-x="1443" d="M136 0v1434h29v-1434h-29zM236 0v1434h29v-1434h-29zM336 0v1434h29v-1434h-29zM436 0v1434h29v-590h514v590h29v-1434h-29v533h-514v-533h-29zM465 561h514v67h-514v-67zM465 656h514v66h-514v-66zM465 750h514v67h-514v-67zM1078 0v1434h30v-1434h-30zM1178 0v1434h30 v-1434h-30zM1278 0v1434h30v-1434h-30z" />
<glyph unicode="i" horiz-adv-x="602" d="M136 0v1434h29v-1434h-29zM236 0v1434h29v-1434h-29zM336 0v1434h29v-1434h-29zM436 0v1434h29v-1434h-29z" />
<glyph unicode="j" horiz-adv-x="1181" d="M95 455h29q0 -204 121 -326t321 -122t321.5 122t121.5 326v979h29v-979q0 -217 -129.5 -346t-342.5 -129t-342 129t-129 346zM95 1122v28h614v66h-614v28h614v67h-614v28h614v66h-614v28h644v-979q0 -87 -48 -138.5t-125 -51.5t-124.5 51.5t-47.5 138.5h29q0 -74 40 -118 t103 -44t103 44t40 119v667h-614zM194 454h30q0 -160 94 -255.5t248 -95.5t248.5 95.5t94.5 255.5v979h30v-979q0 -173 -102.5 -276t-270.5 -103t-270 103t-102 276zM294 454h30q0 -117 66.5 -187t175.5 -70t176 70t67 187v979h30v-979q0 -130 -75 -207.5t-198 -77.5 q-122 0 -197 77.5t-75 207.5z" />
<glyph unicode="k" horiz-adv-x="1335" d="M136 0v1434h29v-1434h-29zM236 0v1434h29v-1434h-29zM336 0v1434h29v-1434h-29zM436 0v1434h29v-702l406 702h33l-429 -742l-10 17v-709h-29zM518 624l467 810h34l-484 -838zM578 529l523 905h33l-538 -934zM638 432l578 1002h33l-408 -707l454 -727h-34l-436 699 l-40 -70l392 -629h-35l-374 600l-40 -70l332 -530h-35l-314 501l-39 -69l269 -432h-34l-262 422z" />
<glyph unicode="l" horiz-adv-x="964" d="M136 0v1434h29v-1434h-29zM236 0v1434h29v-1434h-29zM336 0v1434h29v-1434h-29zM436 0v1434h29v-1123h466v-28h-466v-66h466v-28h-466v-67h466v-28h-466v-66h466v-28h-495z" />
<glyph unicode="m" horiz-adv-x="1656" d="M136 0v1434h29v-1434h-29zM236 0v1434h29v-1434h-29zM336 0v1434h29v-1434h-29zM436 0v1434h29l356 -797l355 797h31l-370 -831l37 -82l406 913h32l-423 -947l36 -82l460 1029h32l-476 -1063l37 -83l512 1146h31v-1434h-28v1370l-67 -149v-1221h-29v1157l-66 -148v-1009 h-29v945l-66 -149v-796h-29v732l-214 -478h-32l-496 1109v-165l421 -944h-32l-389 874v-165l315 -709h-32l-283 639v-165l210 -474h-32l-178 404v-658h-29z" />
<glyph unicode="n" horiz-adv-x="1482" d="M136 0v1434h29v-1434h-29zM236 0v1434h29v-1434h-29zM336 0v1434h29v-1434h-29zM436 0v1434h29l554 -855v855h29v-1434h-29l-554 854v-854h-29zM465 907l554 -854v122l-554 855v-123zM465 1083l554 -855v123l-554 854v-122zM465 1258l554 -854v122l-554 855v-123zM1118 0 v1434h30v-1434h-30zM1218 0v1434h30v-1434h-30zM1318 0v1434h30v-1434h-30z" />
<glyph unicode="o" horiz-adv-x="1642" d="M81 718q0 151 52 283t147 232q101 106 240.5 164t300.5 58q157 0 294.5 -56t235 -153.5t154 -234.5t56.5 -293t-56.5 -293t-154 -234.5t-235 -154t-294.5 -56.5t-294.5 56.5t-235 154t-154 234.5t-56.5 293zM110 718q0 -200 92 -363t255 -255.5t364 -92.5t364 92.5 t255 255.5t92 363t-92 362.5t-255 254.5t-364 92q-154 0 -287.5 -55t-229.5 -155q-93 -96 -143.5 -224t-50.5 -275zM180 718q0 136 48 254t136 206q87 87 204.5 135t252.5 48q180 0 327 -83.5t230.5 -231t83.5 -328.5t-83.5 -328.5t-230.5 -231t-327 -83.5 q-181 0 -327.5 83.5t-230 231t-83.5 328.5zM209 718q0 -173 79.5 -314t220 -221t312.5 -80t312.5 80t220 221t79.5 314t-79.5 314t-220 221t-312.5 80q-129 0 -241.5 -46t-195.5 -130q-175 -177 -175 -439zM279 718q0 118 43.5 221t120.5 178q154 149 378 149 q230 0 386 -157t156 -391t-156 -391t-386 -157t-386 157t-156 391zM308 718q0 -222 147.5 -371t365.5 -149t365.5 149t147.5 371t-147.5 371.5t-365.5 149.5q-213 0 -358 -142q-73 -71 -114 -168.5t-41 -210.5zM378 718q0 99 36 184.5t100 147.5q127 122 307 122 q187 0 314.5 -130t127.5 -324t-127.5 -324t-314.5 -130q-188 0 -315.5 130t-127.5 324zM407 718q0 -183 119 -304.5t295 -121.5t295 121.5t119 304.5t-119 304.5t-295 121.5q-167 0 -285 -112q-129 -123 -129 -314z" />
<glyph unicode="p" horiz-adv-x="1220" d="M136 0v1434h29v-1434h-29zM236 0v1434h29v-1434h-29zM336 0v1434h29v-1434h-29zM436 0v1434h201q224 0 370.5 -146.5t146.5 -361.5t-146.5 -361.5t-370.5 -146.5h-172v-418h-29zM465 446h172q212 0 350 138.5t138 341.5t-138 341.5t-350 138.5h-172v-67h172 q181 0 300.5 -119t119.5 -294t-119.5 -294.5t-300.5 -119.5h-172v-66zM465 540h172q169 0 280.5 112t111.5 274t-111.5 273.5t-280.5 111.5h-172v-66h172q138 0 231 -92.5t93 -226.5t-93 -226.5t-231 -92.5h-172v-67zM465 635h172q126 0 210.5 84.5t84.5 206.5t-84.5 206.5 t-210.5 84.5h-172v-67h172q96 0 161.5 -65.5t65.5 -158.5q0 -94 -66 -159.5t-161 -65.5h-172v-66zM465 729h172q84 0 141.5 57.5t57.5 139.5t-57.5 139t-141.5 57h-172v-393z" />
<glyph unicode="q" horiz-adv-x="1654" d="M87 718q0 156 56.5 293t154 234.5t235 153.5t294.5 56t294.5 -56t235 -153.5t154 -234.5t56.5 -293q0 -264 -149 -458l157 -187l-23 -18l-370 441l8 12q51 94 51 210q0 183 -119 304.5t-295 121.5t-294.5 -121.5t-118.5 -304.5t118.5 -304.5t294.5 -121.5q73 0 136 21 l14 6l369 -438l-23 -18l-161 191q-153 -74 -335 -74q-157 0 -294.5 56.5t-235 154t-154 234.5t-56.5 293zM116 718q0 -200 92 -363t255 -255.5t364 -92.5q165 0 316 69l-46 55q-130 -56 -270 -56q-180 0 -327 83.5t-230 231t-83 328.5t83 328.5t230 231t327 83.5 q181 0 327.5 -83.5t230 -231t83.5 -328.5q0 -214 -116 -379l46 -56q141 189 141 435q0 200 -92.5 362.5t-255.5 254.5t-364 92t-364 -92t-255 -254.5t-92 -362.5zM215 718q0 -173 79.5 -314t220 -221t312.5 -80q132 0 251 50l-46 54q-93 -37 -205 -37q-230 0 -385.5 157 t-155.5 391t155.5 391t385.5 157t386 -157t156 -391q0 -167 -85 -299l48 -57q108 157 108 356q0 173 -80 314t-220.5 221t-312.5 80t-312.5 -80t-220 -221t-79.5 -314zM314 718q0 -222 147.5 -371t365.5 -149q107 0 186 32l-47 55q-66 -21 -139 -21q-187 0 -314.5 130 t-127.5 324t127.5 324t314.5 130q188 0 315.5 -130t127.5 -324q0 -119 -53 -219l48 -57q75 123 75 276q0 222 -147.5 371.5t-365.5 149.5t-365.5 -149.5t-147.5 -371.5zM1043 350q20 10 26 16l353 -421l-22 -18zM1122 413q4 3 11 11.5t9 10.5l358 -426l-23 -19z" />
<glyph unicode="r" horiz-adv-x="1337" d="M136 0v1434h29v-1434h-29zM236 0v1434h29v-1434h-29zM336 0v1434h29v-1434h-29zM436 0v1434h201q224 0 370.5 -146.5t146.5 -361.5q0 -128 -55.5 -236.5t-153.5 -177.5l360 -512h-36l-348 496q-30 -19 -58 -31l325 -465h-35l-317 454q-32 -12 -68 -21l304 -433h-36 l-299 426q-40 -7 -74 -8l293 -418h-36l-292 418h-163v-418h-29zM465 446h172q212 0 350 138.5t138 341.5t-138 341.5t-350 138.5h-172v-67h172q181 0 300.5 -119t119.5 -294t-119.5 -294.5t-300.5 -119.5h-172v-66zM465 540h172q169 0 280.5 112t111.5 274t-111.5 273.5 t-280.5 111.5h-172v-66h172q138 0 231 -92.5t93 -226.5t-93 -226.5t-231 -92.5h-172v-67zM465 635h172q126 0 210.5 84.5t84.5 206.5t-84.5 206.5t-210.5 84.5h-172v-67h172q96 0 161.5 -65.5t65.5 -158.5q0 -94 -66 -159.5t-161 -65.5h-172v-66zM465 729h172 q84 0 141.5 57.5t57.5 139.5t-57.5 139t-141.5 57h-172v-393z" />
<glyph unicode="s" horiz-adv-x="1114" d="M71 476h29q0 -213 128 -340.5t338 -127.5q204 0 326 115.5t122 309.5q0 140 -69 240t-192 143l-261 89q-46 16 -70.5 50.5t-24.5 80.5q0 60 40.5 97t109.5 37q74 0 122 -52t48 -138h-29q0 73 -40.5 117.5t-100.5 44.5q-55 0 -88 -29t-33 -77q0 -80 74 -105l262 -90 q132 -46 206.5 -152.5t74.5 -255.5q0 -207 -130 -330t-347 -123q-223 0 -359 135t-136 361zM97 1035q0 187 124 302.5t326 115.5q210 0 339.5 -129t129.5 -346h-28q0 203 -122 325.5t-319 122.5q-189 0 -305 -108t-116 -283q0 -138 71 -234.5t200 -140.5l236 -80 q52 -19 81 -58.5t29 -89.5q0 -77 -48.5 -122.5t-128.5 -45.5q-88 0 -142 57t-54 153h29q0 -83 46.5 -132.5t120.5 -49.5q66 0 107 38t41 102q0 41 -23.5 73t-67.5 49l-237 81q-136 47 -212.5 150t-76.5 250zM170 474h30q0 -169 100.5 -270t265.5 -101q158 0 253 89.5 t95 239.5q0 108 -53.5 185t-149.5 110l-255 86q-76 26 -117.5 84t-41.5 138q0 102 68.5 165t181.5 63q120 0 195 -77.5t75 -207.5l-29 1q0 116 -67.5 186.5t-173.5 70.5q-99 0 -160 -55.5t-61 -144.5q0 -70 37 -121t105 -74l253 -86q105 -37 163.5 -121.5t58.5 -201.5 q0 -164 -102.5 -260.5t-274.5 -96.5q-178 0 -287 108.5t-109 290.5zM197 1035q0 144 96 233.5t254 89.5q164 0 267 -104t103 -276h-29q0 159 -95 255.5t-246 96.5q-144 0 -232.5 -81.5t-88.5 -213.5q0 -104 54 -178t152 -107l247 -84q77 -27 120.5 -88.5t43.5 -145.5 q0 -120 -75.5 -191.5t-201.5 -71.5q-134 0 -215 83t-81 222h29q0 -127 73.5 -202t193.5 -75q113 0 180.5 63.5t67.5 171.5q0 74 -38 127.5t-107 78.5l-248 85q-106 36 -165 117t-59 195z" />
<glyph unicode="t" horiz-adv-x="1132" d="M34 1122v28h1064v-28h-368v-1122h-29v1122h-70v-1122h-30v1122h-70v-1122h-30v1122h-70v-1122h-30v1122h-367zM34 1217v28h1064v-28h-1064zM34 1311v28h1064v-28h-1064zM34 1406v28h1064v-28h-1064z" />
<glyph unicode="u" horiz-adv-x="1345" d="M119 536v896h30v-896q0 -241 144 -385t380 -144q237 0 381 144.5t144 384.5v896h29v-896q0 -253 -152.5 -404.5t-401.5 -151.5q-250 0 -402 151.5t-152 404.5zM219 536v896h30v-896q0 -197 116.5 -315t307.5 -118t308 118t117 315v896h29v-896q0 -210 -125 -335.5 t-329 -125.5t-329 125.5t-125 335.5zM319 536v896h29v-896q0 -154 89.5 -246t235.5 -92t235.5 92t89.5 246v896h29v-896q0 -166 -97.5 -266t-256.5 -100t-256.5 100t-97.5 266zM419 535v897h29v-896q0 -111 62.5 -177.5t162.5 -66.5t162.5 66.5t62.5 177.5v896h30v-897 q0 -124 -70.5 -197.5t-184.5 -73.5t-184 73.5t-70 197.5z" />
<glyph unicode="v" horiz-adv-x="1454" d="M20 1434h31l536 -1434h-30zM123 1434h30l537 -1434h-30zM226 1434h30l536 -1434h-30zM328 1434h31l369 -988l367 988h30l-382 -1027l35 -95l420 1122h30l-434 -1163l35 -95l471 1258h30l-486 -1298l36 -96l523 1394h30l-538 -1434h-30z" />
<glyph unicode="w" horiz-adv-x="2070" d="M20 1434h30l424 -1434h-30zM121 1434h29l424 -1434h-29zM222 1434h29l424 -1434h-29zM322 1434h30l260 -882l258 882h30l-273 -932l35 -116l308 1048h29l-323 -1098l36 -120l358 1218h30l-374 -1268l35 -116l410 1384h29l262 -883l258 883h29l-272 -932l34 -117l308 1049 h30l-323 -1098l35 -120l359 1218h29l-373 -1268l35 -117l410 1385h29l-425 -1434h-29l-411 1384l-35 -120l375 -1264h-30l-360 1215l-35 -119l324 -1096h-29l-310 1046l-35 -119l274 -927h-30l-258 878l-260 -878h-30z" />
<glyph unicode="x" horiz-adv-x="1447" d="M34 0l469 777l-438 657h34l958 -1434h-35l-319 478l-280 -478h-35l297 505l-43 65l-337 -570h-35l354 596l-43 64l-395 -660h-34l412 686l-43 65l-453 -751h-34zM184 1434h34l958 -1434h-35zM303 1434h34l958 -1434h-35zM422 1434h34l294 -441l258 441h34l-274 -467 l43 -64l315 531h34l-332 -558l43 -64l373 622h34l-389 -649l43 -64l430 713h35l-447 -740l464 -694h-35z" />
<glyph unicode="y" horiz-adv-x="1409" d="M20 1434h34l477 -826l40 70l-435 756h34l419 -726l41 71l-378 655h33l362 -625l39 68l-319 557h34l303 -527l304 527h34l-517 -896v22zM539 163v60l700 1211h33zM539 366v59l585 1009h33zM550 0v41l804 1393h34l-520 -901v-533h-29v482l-71 -122v-360h-29v309l-70 -122 v-187h-30v136l-60 -103v-33h-29z" />
<glyph unicode="z" horiz-adv-x="1177" d="M102 0v28h969v-28h-969zM102 94v28h969v-28h-969zM102 189v28h969v-28h-969zM102 283v28l574 811h-570v28h969v-28l-573 -811h569v-28h-969zM106 1217v28h969v-28h-969zM106 1311v28h969v-28h-969zM106 1406v28h969v-28h-969zM138 311h85l574 811h-85zM259 311h85 l574 811h-85zM380 311h86l573 811h-85z" />
<glyph unicode="{" horiz-adv-x="671" d="M82 578v25q190 0 293 92t103 261v256q0 47 29 72.5t82 25.5v-25q-39 0 -60 -19t-21 -54v-256q0 -146 -74 -240q74 -94 74 -238v-257q0 -35 21 -54t60 -19v-24q-53 0 -82 25t-29 72v257q0 127 -63 215q-27 -27 -53 -44q46 -69 46 -171v-257q0 -76 47 -116.5t134 -40.5v-24 q-101 0 -156 47t-55 134v257q0 92 -41 156q-27 -15 -65 -28q36 -52 36 -128v-257q0 -116 73 -178.5t208 -62.5v-24q-149 0 -229.5 68.5t-80.5 196.5v257q0 70 -36 119q-40 -11 -83 -15q48 -32 48 -104v-257q0 -156 99 -240.5t282 -84.5v-25q-197 0 -303.5 91t-106.5 259v257 q0 48 -25.5 74t-71.5 26zM82 663v25q142 0 219 70t77 199v255q0 88 55 135.5t156 47.5v-25q-87 0 -134 -40.5t-47 -116.5v-256q0 -141 -84.5 -217.5t-241.5 -76.5zM82 747v25q93 0 145 48.5t52 136.5v256q0 128 80.5 197t229.5 69v-25q-135 0 -208 -62.5t-73 -178.5v-256 q0 -100 -59.5 -155t-166.5 -55zM82 832v24q46 0 71.5 26.5t25.5 74.5v256q0 168 106.5 259t303.5 91v-24q-183 0 -282 -85t-99 -241v-256q0 -59 -33 -92t-93 -33z" />
<glyph unicode="|" horiz-adv-x="602" d="M136 -82v1606h29v-1606h-29zM236 -82v1606h29v-1606h-29zM336 -82v1606h29v-1606h-29zM436 -82v1606h29v-1606h-29z" />
<glyph unicode="}" horiz-adv-x="671" d="M82 -20q135 0 208 62.5t73 178.5v256q0 100 59.5 155t166.5 55v-25q-93 0 -144.5 -48.5t-51.5 -136.5v-256q0 -128 -81 -197t-230 -69v25zM82 39v24q87 0 134 41t47 117v256q0 141 84.5 217.5t241.5 76.5v-24q-142 0 -219 -70.5t-77 -199.5v-256q0 -87 -55 -134.5 t-156 -47.5zM82 -104q183 0 282 84.5t99 240.5v256q0 59 33 92.5t93 33.5v-25q-46 0 -71.5 -26.5t-25.5 -74.5v-256q0 -168 -106.5 -259t-303.5 -91v25zM82 123v25q39 0 60 19t21 54v256q0 146 74 240q-74 94 -74 238v257q0 35 -21 54t-60 19v24q53 0 82 -25t29 -72v-257 q0 -127 63 -215q27 27 53 44q-46 69 -46 171v257q0 76 -47 116.5t-134 40.5v24q101 0 156 -47t55 -134v-257q0 -92 41 -156q27 15 65 28q-36 52 -36 128v257q0 116 -73 178.5t-208 62.5v24q150 0 230.5 -68.5t80.5 -196.5v-257q0 -72 35 -119q40 11 83 15q-48 31 -48 104 v257q0 156 -99 240.5t-282 84.5v25q197 0 303.5 -91t106.5 -259v-257q0 -48 25.5 -74t71.5 -26v-25q-190 0 -293 -92t-103 -261v-256q0 -47 -29 -72.5t-82 -25.5z" />
<glyph unicode="&#xa1;" horiz-adv-x="575" d="M123 0v1031h29v-1031h-29zM123 1118v316h29v-316h-29zM223 0v1031h29v-1031h-29zM223 1118v316h29v-316h-29zM323 0v1031h29v-1031h-29zM323 1118v316h29v-316h-29zM423 0v1031h29v-1031h-29zM423 1118v316h29v-316h-29z" />
<glyph unicode="&#xa2;" horiz-adv-x="1312" d="M110 515v239q0 199 101.5 334.5t277.5 181.5v201h29v-194q31 7 70 10v184h30v-182l38 1h32v181h30v-183q24 -2 70 -10v193h30v-199q179 -44 282 -180.5t103 -337.5h-29q0 231 -142 369.5t-376 138.5q-233 0 -375 -138t-142 -370v-238q0 -185 93.5 -314t256.5 -173v72 q-131 44 -205 152t-74 262v239q0 201 122.5 320.5t323.5 119.5t324 -119.5t123 -320.5h-29q0 188 -115 300.5t-303 112.5t-302.5 -112.5t-114.5 -300.5v-238q0 -141 66.5 -241.5t183.5 -143.5v75q-85 40 -132.5 120t-47.5 189v239q0 157 95.5 251.5t251.5 94.5t251.5 -94.5 t95.5 -251.5h-29q0 145 -87.5 231.5t-230.5 86.5t-230 -86.5t-87 -231.5v-238q0 -95 39.5 -167.5t110.5 -111.5v86q-80 69 -80 192v239q0 115 68 183.5t179 68.5t179 -68.5t68 -183.5h-29q0 98 -56 159v-556q56 59 56 159h29q0 -130 -85 -198v-84q74 39 115 112t41 170h29 q0 -111 -49 -192.5t-136 -120.5v-74q120 41 188 142.5t68 244.5h29q0 -156 -76 -265t-209 -151v-73q166 44 261 173t95 316h29q0 -201 -103 -337.5t-282 -180.5v-164h-30v1104q-30 21 -70 32v-1136h-30v1142q-20 2 -32 2q-20 0 -38 -3v-1141h-30v1135q-38 -10 -70 -36v-1099 h-29v166q-176 44 -277.5 180.5t-101.5 334.5zM439 516q0 -92 50 -152v541q-50 -59 -50 -151v-238z" />
<glyph unicode="&#xa3;" horiz-adv-x="1163" d="M82 0v28q195 0 311 110.5t116 298.5v96h-70v-96q0 -159 -97.5 -251t-259.5 -92v28q149 0 238 85t89 230v96h-70v-96q0 -115 -69.5 -181.5t-187.5 -66.5v28q104 0 165.5 58.5t61.5 161.5v96h-70v-96q0 -72 -42.5 -113t-114.5 -41v28q56 0 92 32.5t36 93.5v96h-114v28h675 v-28h-232v-96q0 -67 -15 -126h557v-28h-565q-10 -35 -27 -66h592v-28h-609q-23 -37 -53 -67h662v-28h-694q-54 -42 -124 -66h818v-28h-992h-7zM96 628v27h675v-27h-675zM96 722v28h675v-28h-675zM96 816v28h114v184q0 191 118 308.5t311 117.5q192 0 310.5 -114.5 t118.5 -306.5h-29q0 179 -111 286t-289 107q-180 0 -290 -110t-110 -288v-184h70v184q0 148 91 239t239 91q146 0 237.5 -88.5t91.5 -236.5h-29q0 135 -83.5 216t-216.5 81q-135 0 -217.5 -83.5t-82.5 -218.5v-184h70v184q0 106 63 171t167 65q101 0 165.5 -63t64.5 -168 h-30q0 92 -56 147.5t-144 55.5q-90 0 -145 -57.5t-55 -150.5v-184h70v184q0 63 35.5 102t94.5 39q57 0 93.5 -37t36.5 -99h-30q0 50 -28.5 79t-71.5 29q-46 0 -73 -31t-27 -82v-184h232v-28h-675z" />
<glyph unicode="&#xa5;" horiz-adv-x="1409" d="M20 1434h34l477 -826l40 70l-435 756h34l419 -726l41 71l-378 655h33l362 -625l39 68l-319 557h34l303 -527l304 527h34l-517 -896v22l-19 33h-393v28h377l-39 66h-338v28h322l-38 67h-284v28h268zM113 498v28h427v-28h-427zM539 163v60l700 1211h33zM539 366v59 l585 1009h33zM550 0v41l804 1393h34l-360 -624h249v-28h-265l-39 -67h304v-28h-320l-38 -66h358v-28h-374l-35 -60v-7h409v-28h-409v-498h-29v482l-71 -122v-360h-29v309l-70 -122v-187h-30v136l-60 -103v-33h-29z" />
<glyph unicode="&#xa6;" horiz-adv-x="602" d="M136 -82v678h30v-678h-30zM136 846v678h29v-678h-29zM236 -82v678h29v-678h-29zM236 846v678h29v-678h-29zM336 -82v678h29v-678h-29zM336 846v678h29v-678h-29zM436 -82v678h29v-678h-29zM436 846v678h29v-678h-29z" />
<glyph unicode="&#xa7;" horiz-adv-x="1140" d="M88 602q0 155 103 260q-41 84 -41 186q0 170 114.5 278.5t293.5 108.5q183 0 298.5 -110t115.5 -289h-29q0 166 -107.5 269t-277.5 103q-166 0 -272.5 -101.5t-106.5 -258.5q0 -135 68 -224.5t186 -126.5l227 -72q50 -16 78.5 -54.5t28.5 -87.5q0 -47 -22 -85 q35 -15 61 -30q28 47 28 111q0 71 -41 126.5t-108 77.5l-228 73q-97 33 -154 107t-57 185q0 130 87.5 213t224.5 83q141 0 230 -85t89 -223h-30q0 125 -81 202.5t-208 77.5q-124 0 -203.5 -75.5t-79.5 -192.5q0 -101 52 -168t141 -97l227 -72q76 -25 122 -87.5t46 -144.5 q0 -72 -33 -126q28 -19 52 -43q48 75 48 165q0 105 -58 184.5t-153 109.5l-227 73q-69 23 -109.5 75.5t-40.5 130.5q0 90 60 147t156 57q98 0 160.5 -60t62.5 -157h-30q0 85 -54 137.5t-139 52.5q-82 0 -134.5 -50.5t-52.5 -127.5q0 -68 36 -113t97 -65l225 -73 q105 -33 167.5 -119t62.5 -202q0 -104 -58 -186q21 -24 40 -57q82 101 82 237q0 138 -74.5 242t-196.5 143l-227 73q-87 29 -87 120q0 51 33.5 83t86.5 32q56 0 91.5 -34.5t35.5 -92.5h-30q0 45 -27.5 72t-69.5 27q-40 0 -65.5 -24.5t-25.5 -62.5q0 -73 67 -94l227 -73 q132 -43 211.5 -153t79.5 -257q0 -151 -98 -263q36 -78 36 -174q0 -164 -116 -274.5t-289 -110.5q-179 0 -296.5 112.5t-117.5 286.5h28q0 -161 110 -266t276 -105q161 0 268.5 102.5t107.5 254.5q0 137 -70 225.5t-192 126.5l-220 67q-51 16 -78.5 53t-27.5 84q0 54 30 90 q-42 16 -61 27q-36 -48 -36 -113q0 -69 40 -123t108 -76l221 -68q102 -34 160.5 -107t58.5 -186q0 -125 -88 -209t-221 -84q-137 0 -228 86.5t-91 220.5h29q0 -122 82.5 -200.5t207.5 -78.5q120 0 200 76t80 189q0 198 -200 265l-222 69q-78 25 -122 86t-44 140q0 77 40 128 q-25 16 -52 41q-54 -67 -54 -165q0 -102 56 -180t152 -107l222 -71q157 -53 157 -206q0 -86 -60.5 -144.5t-152.5 -58.5q-95 0 -159 61.5t-64 155.5h29q0 -82 55.5 -135.5t138.5 -53.5q78 0 131 50.5t53 124.5q0 131 -138 178l-224 71q-104 32 -165 117t-61 198 q0 105 65 184q-25 28 -41 55q-88 -94 -88 -234q0 -135 72.5 -237t195.5 -141l225 -71q93 -32 93 -120q0 -48 -33.5 -80t-84.5 -32q-54 0 -90.5 35.5t-36.5 90.5h29q0 -43 28.5 -70.5t69.5 -27.5q39 0 63.5 24t24.5 60q0 69 -73 93l-227 74q-130 42 -207.5 150t-77.5 252z M402 589q0 -39 23 -68.5t63 -41.5l221 -69l9 -3q20 31 20 76q0 40 -23.5 71t-64.5 44l-220 71q-28 -31 -28 -80z" />
<glyph unicode="&#xa8;" horiz-adv-x="976" d="M82 1106v315h29v-315h-29zM182 1106v315h29v-315h-29zM282 1106v315h29v-315h-29zM382 1106v315h29v-315h-29zM566 1106v315h29v-315h-29zM666 1106v315h29v-315h-29zM766 1106v315h29v-315h-29zM866 1106v315h29v-315h-29z" />
<glyph unicode="&#xa9;" horiz-adv-x="1548" d="M75 653v121q0 306 190.5 488.5t508.5 182.5q208 0 366.5 -82t246 -235t87.5 -354v-121q0 -305 -190.5 -488t-504.5 -183q-318 0 -511 183t-193 488zM104 653q0 -292 185 -468t490 -176q300 0 482.5 176t182.5 468v121q0 292 -184.5 468t-485.5 176q-304 0 -487 -175.5 t-183 -468.5v-121zM175 653v121q0 262 163.5 419t435.5 157q269 0 434.5 -157.5t165.5 -418.5v-121q0 -261 -163.5 -418.5t-431.5 -157.5q-272 0 -438 157.5t-166 418.5zM204 653q0 -248 158 -398t417 -150q255 0 410 149.5t155 398.5v121q0 248 -157 398t-413 150 q-259 0 -414.5 -149.5t-155.5 -398.5v-121zM274 653v121q0 220 137 351t363 131t363 -131t137 -351v-121q0 -220 -137.5 -351.5t-362.5 -131.5q-226 0 -363 131.5t-137 351.5zM304 653q0 -207 129 -331t341 -124t341.5 124t129.5 331v121q0 207 -129.5 331t-341.5 124 t-341 -124t-129 -331v-121zM474 653v121q0 133 82.5 212.5t217.5 79.5t217.5 -79.5t82.5 -212.5h-29q0 121 -74.5 192.5t-196.5 71.5t-196 -71.5t-74 -192.5v-121q0 -121 74.5 -192.5t196.5 -71.5q121 0 195.5 71.5t74.5 192.5h29q0 -133 -82.5 -212.5t-216.5 -79.5 q-136 0 -218.5 79.5t-82.5 212.5zM574 653v121q0 91 55.5 144.5t144.5 53.5t144.5 -53.5t55.5 -144.5h-29q0 78 -48 124t-123 46t-123 -46t-48 -124v-121q0 -78 48 -124t124 -46q75 0 122.5 46t47.5 124h29q0 -91 -55 -144.5t-144 -53.5q-91 0 -146 53.5t-55 144.5zM674 653 v121q0 45 28 72t72 27t72 -27t28 -72h-29q0 33 -20 52t-51 19q-30 0 -50.5 -19t-20.5 -52v-121q0 -33 20 -52t52 -19q30 0 50 19t20 52h29q0 -45 -28 -72t-71 -27q-45 0 -73 27t-28 72z" />
<glyph unicode="&#xab;" horiz-adv-x="1335" d="M61 720l296 509h33l-311 -537zM121 624l350 605h34l-367 -633zM182 529l405 700h33l-421 -729zM241 432l460 797h34l-291 -503l327 -521h-34l-309 493l-40 -70l264 -423h-34l-247 394l-39 -69l203 -325h-34l-186 296l-40 -69l142 -227h-34l-135 217zM565 720l296 509h33 l-312 -537zM625 624l350 605h33l-366 -633zM685 529l405 700h34l-422 -729zM745 432l460 797h34l-291 -503l326 -521h-34l-308 493l-40 -70l264 -423h-34l-247 394l-40 -69l204 -325h-34l-187 296l-39 -69l141 -227h-34l-135 217z" />
<glyph unicode="&#xad;" d="M82 533v28h860v-28h-860zM82 628v28h860v-28h-860zM82 722v28h860v-28h-860zM82 817v27h860v-27h-860z" />
<glyph unicode="&#xae;" horiz-adv-x="1562" d="M82 653v121q0 306 190.5 488.5t508.5 182.5q208 0 366.5 -82t246 -235t87.5 -354v-121q0 -305 -190 -488t-504 -183q-318 0 -511.5 183t-193.5 488zM111 653q0 -292 185.5 -468t490.5 -176q300 0 482 176t182 468v121q0 292 -184.5 468t-485.5 176q-304 0 -487 -175.5 t-183 -468.5v-121zM182 653v121q0 262 163.5 419t435.5 157q269 0 434.5 -157.5t165.5 -418.5v-121q0 -261 -163 -418.5t-431 -157.5q-272 0 -438.5 157.5t-166.5 418.5zM211 653q0 -248 158.5 -398t417.5 -150q255 0 410 149.5t155 398.5v121q0 248 -157.5 398t-413.5 150 q-259 0 -414.5 -149.5t-155.5 -398.5v-121zM282 653v121q0 220 137 351t362 131q226 0 363 -131t137 -351v-121q0 -220 -137.5 -351.5t-362.5 -131.5q-226 0 -362.5 131.5t-136.5 351.5zM311 653q0 -207 129 -331t341 -124q117 0 212 40t158 114h-16l-177 260 q-26 -17 -62 -28l159 -235h-35l-154 227q-30 -5 -54 -5h-23l150 -222h-36l-149 222h-11v-222h-28v746h97q114 0 192.5 -77t78.5 -184q0 -124 -102 -205l180 -264q91 118 91 288v121q0 207 -129.5 331t-341.5 124t-341 -124t-129 -331v-121zM520 349v746h27v-746h-27z M618 349v746h27v-746h-27zM743 598h69q103 0 173 69t70 167q0 97 -70 166t-173 69h-69v-67h69q73 0 124.5 -49.5t51.5 -118.5t-52 -119.5t-124 -50.5h-69v-66zM743 691h69q62 0 105 42t43 101q0 58 -43 100t-105 42h-69v-67h69q33 0 57 -22.5t24 -52.5q0 -31 -24 -54 t-57 -23h-69v-66zM743 784h69q22 0 37.5 14.5t15.5 35.5q0 20 -15.5 34.5t-37.5 14.5h-69v-99z" />
<glyph unicode="&#xaf;" horiz-adv-x="860" d="M82 1104v28h696v-28h-696zM82 1199v28h696v-28h-696zM82 1293v28h696v-28h-696zM82 1388v28h696v-28h-696z" />
<glyph unicode="&#xb0;" horiz-adv-x="628" d="M47 1186q0 112 75.5 184.5t191.5 72.5t191.5 -72.5t75.5 -184.5t-75.5 -184.5t-191.5 -72.5t-191.5 72.5t-75.5 184.5zM76 1186q0 -99 67 -164t171 -65t171 65t67 164t-67 164t-171 65t-171 -65t-67 -164zM146 1186q0 70 47.5 116t120.5 46t120.5 -46t47.5 -116 t-47.5 -116.5t-120.5 -46.5t-120.5 46.5t-47.5 116.5zM175 1186q0 -58 39.5 -96.5t99.5 -38.5t99.5 38.5t39.5 96.5t-39.5 96t-99.5 38t-99.5 -38t-39.5 -96zM245 1186q0 29 20 48.5t49 19.5t49 -19.5t20 -48.5t-20 -48.5t-49 -19.5t-49 19.5t-20 48.5zM274 1186 q0 -17 11.5 -28.5t28.5 -11.5t28.5 11.5t11.5 28.5t-11.5 28.5t-28.5 11.5t-28.5 -11.5t-11.5 -28.5z" />
<glyph unicode="&#xb1;" d="M82 128v28h860v-28h-860zM82 223v28h860v-28h-860zM82 317v28h265v67h-265v28h265v154h-265v28h860v-28h-266v-154h266v-28h-266v-67h266v-28h-266v-28h-30v305h-70v-305h-29v305h-71v-305h-29v305h-71v-305h-29v28h-265zM82 688v28h860v-28h-860zM82 783v28h860v-28 h-860zM82 877v28h265v303h29v-303h71v303h29v-303h71v303h29v-303h70v303h30v-303h266v-28h-860z" />
<glyph unicode="&#xb4;" horiz-adv-x="565" d="M82 1216v33l401 231v-32zM82 1325v33l216 124h56zM83 1108v32l402 232v-32zM212 1106l273 157v-32l-217 -125h-56z" />
<glyph unicode="&#xb6;" horiz-adv-x="1009" d="M95 1010q0 187 122.5 305t318.5 119h30v-979q0 -87 -48 -139t-125 -52v28q63 0 103 44t40 119v147q-195 0 -318 114t-123 294zM125 1010q0 -169 114.5 -275t296.5 -106v62q-151 0 -246 88.5t-95 230.5q0 144 95 235.5t246 92.5v68q-182 -1 -296.5 -111.5t-114.5 -284.5z M224 1010q0 -131 86.5 -212t225.5 -81v63q-108 0 -174.5 63t-66.5 167h29q0 -93 58.5 -148t153.5 -55v64q-62 0 -101.5 38.5t-39.5 100.5h29q0 -51 31 -82t81 -31v224q-50 -1 -81 -31.5t-31 -79.5h-29q0 61 39.5 99.5t101.5 39.5v67q-94 -1 -153 -58t-59 -148h-29 q0 103 67 167.5t174 65.5v67q-138 -1 -225 -84.5t-87 -215.5zM393 7q200 0 321.5 122t121.5 326v979h29v-979q0 -217 -129.5 -346t-342.5 -129v27zM393 75v28q154 0 248.5 96t94.5 256v979h30v-979q0 -173 -102.5 -276.5t-270.5 -103.5zM393 170v28q109 0 176 70t67 187v979 h30v-979q0 -130 -75 -207.5t-198 -77.5z" />
<glyph unicode="&#xb7;" horiz-adv-x="530" d="M101 524v316h30v-316h-30zM201 524v316h29v-316h-29zM301 524v316h29v-316h-29zM401 524v316h29v-316h-29z" />
<glyph unicode="&#xb8;" horiz-adv-x="567" d="M83 -238h30q0 -77 48 -122.5t123 -45.5q77 0 125 46t48 119q0 124 -114 163l-144 51v20h30l127 -43q62 -21 96.5 -71t34.5 -120q0 -85 -56 -138.5t-147 -53.5q-89 0 -145 53t-56 142zM183 -238h30q0 -33 20.5 -53t50.5 -20q33 0 53 19t20 51q0 60 -59 77l-99 35v30 l112 -39q76 -24 76 -103q0 -44 -28.5 -71t-74.5 -27q-44 0 -72.5 27.5t-28.5 73.5z" />
<glyph unicode="&#xbb;" horiz-adv-x="1335" d="M61 1229h34l309 -493l40 69l-264 424h34l247 -395l39 69l-203 326h34l186 -297l40 69l-142 228h34l135 -217l7 -11l-460 -796h-34l290 503zM212 205l421 729l17 -29l-405 -700h-33zM327 205l367 632l17 -28l-350 -604h-34zM442 205l311 536l18 -28l-296 -508h-33z M565 1229h34l308 -493l40 69l-264 424h35l246 -395l40 69l-204 326h35l186 -297l40 69l-142 228h34l135 -217l6 -11l-460 -796h-34l291 503zM715 205l422 729l17 -29l-405 -700h-34zM831 205l366 632l17 -28l-349 -604h-34zM946 205l311 536l17 -28l-295 -508h-33z" />
<glyph unicode="&#xbf;" horiz-adv-x="1124" d="M98 422q0 153 77.5 260t215.5 156l8 3v211h29v-201l71 25v176h29v-166l71 24v142h29v-132l71 25v107h29v-127l-326 -111q-131 -45 -203 -146.5t-72 -245.5q0 -179 116 -290t305 -111q199 0 322 122t123 325h29q0 -217 -131 -346t-343 -129q-202 0 -326 118.5t-124 310.5z M198 422q0 120 60 205.5t168 123.5l302 102v-30l-289 -100q-102 -36 -157 -113.5t-55 -187.5q0 -137 88.5 -221.5t232.5 -84.5q153 0 249 96.5t96 255.5h30q0 -172 -104 -275.5t-271 -103.5q-157 0 -253.5 92t-96.5 241zM298 422q0 86 42.5 147.5t122.5 90.5l265 91v-30 l-252 -87q-71 -26 -110 -81t-39 -131q0 -94 61 -152.5t160 -58.5q108 0 176.5 70t68.5 187h30q0 -130 -76.5 -207.5t-198.5 -77.5q-113 0 -181.5 66t-68.5 173zM398 422q0 52 26 91.5t76 57.5l228 78v-30l-218 -74q-83 -28 -83 -123q0 -53 33 -85t88 -32q62 0 104 44.5 t42 118.5h29q0 -86 -49.5 -138.5t-125.5 -52.5q-68 0 -109 40t-41 105zM399 1131v316h29v-316h-29zM499 1131v316h29v-316h-29zM599 1131v316h29v-316h-29zM699 1131v316h29v-316h-29z" />
<glyph unicode="&#xc0;" horiz-adv-x="1454" d="M20 0l537 1434h30l-536 -1434h-31zM123 0l537 1434h30l-537 -1434h-30zM226 0l536 1434h30l-536 -1434h-30zM328 0l537 1434h30l538 -1434h-30l-523 1393l-36 -95l486 -1298h-30l-471 1258l-35 -96l434 -1162h-30l-420 1122l-35 -95l382 -1027h-30l-69 186h-598l-69 -186 h-31zM435 1640v33l273 -158h-56zM435 1750v32l402 -232v-33zM438 1857v32l400 -231v-32zM439 214h576l-24 67h-527zM474 309h506l-25 66h-456zM509 403h436l-25 67h-386zM545 498h365l-182 489zM567 1892h55l216 -125v-32z" />
<glyph unicode="&#xc1;" horiz-adv-x="1454" d="M20 0l537 1434h30l-536 -1434h-31zM123 0l537 1434h30l-537 -1434h-30zM226 0l536 1434h30l-536 -1434h-30zM328 0l537 1434h30l538 -1434h-30l-523 1393l-36 -95l486 -1298h-30l-471 1258l-35 -96l434 -1162h-30l-420 1122l-35 -95l382 -1027h-30l-69 186h-598l-69 -186 h-31zM439 214h576l-24 67h-527zM474 309h506l-25 66h-456zM509 403h436l-25 67h-386zM545 498h365l-182 489zM627 1626v32l401 231l-1 -32zM627 1735v32l216 125h56zM628 1517v33l402 232v-32zM757 1515l273 158v-33l-217 -125h-56z" />
<glyph unicode="&#xc2;" horiz-adv-x="1454" d="M20 0l537 1434h30l-536 -1434h-31zM123 0l537 1434h30l-537 -1434h-30zM226 0l536 1434h30l-536 -1434h-30zM328 0l537 1434h30l538 -1434h-30l-523 1393l-36 -95l486 -1298h-30l-471 1258l-35 -96l434 -1162h-30l-420 1122l-35 -95l382 -1027h-30l-69 186h-598l-69 -186 h-31zM413 1627v33l403 232l28 -16zM413 1736v33l216 124h56zM414 1551l499 287l27 -16l-525 -303zM439 214h576l-24 67h-527zM474 309h506l-24 66h-457zM509 403h436l-25 67h-386zM544 1517l457 263l42 -25v-32l-42 24l-58 -33l100 -57v-32l-128 73l-62 -36l188 -107v-32 l-216 123l-65 -37l159 -92h-56l-131 76l-133 -76h-55zM545 498h365l-182 489z" />
<glyph unicode="&#xc3;" horiz-adv-x="1454" d="M20 0l537 1434h30l-536 -1434h-31zM123 0l537 1434h30l-537 -1434h-30zM226 0l536 1434h30l-536 -1434h-30zM328 0l537 1434h30l538 -1434h-30l-523 1393l-36 -95l486 -1298h-30l-471 1258l-35 -96l434 -1162h-30l-420 1122l-35 -95l382 -1027h-30l-69 186h-598l-69 -186 h-31zM347 1536q0 130 93 220.5t225 90.5h236q0 -12 -8 -20t-20 -8h-208q-120 0 -205 -82.5t-85 -200.5h-28zM439 214h576l-24 67h-527zM446 1536q0 90 64 153t155 63h208q39 0 67 27.5t28 67.5h28q0 -52 -36 -87.5t-87 -35.5h-208q-78 0 -134 -55t-56 -133h-29zM474 309h506 l-25 66h-456zM509 403h436l-25 67h-386zM541 1536q0 51 36.5 86.5t87.5 35.5h208q78 0 134 55.5t56 133.5h29q0 -91 -64 -154t-155 -63h-208q-39 0 -67 -27.5t-28 -66.5h-29zM545 498h365l-182 489zM636 1536q0 12 8.5 19.5t20.5 7.5h208q120 0 204.5 83t84.5 201h29 q0 -130 -93 -220.5t-225 -90.5h-237z" />
<glyph unicode="&#xc4;" horiz-adv-x="1454" d="M20 0l537 1434h30l-536 -1434h-31zM123 0l537 1434h30l-537 -1434h-30zM226 0l536 1434h30l-536 -1434h-30zM321 1516v315h30v-315h-30zM328 0l537 1434h30l538 -1434h-30l-523 1393l-36 -95l486 -1298h-30l-471 1258l-35 -96l434 -1162h-30l-420 1122l-35 -95l382 -1027 h-30l-69 186h-598l-69 -186h-31zM421 1516v315h30v-315h-30zM439 214h576l-24 67h-527zM474 309h506l-25 66h-456zM509 403h436l-25 67h-386zM521 1516v315h29v-315h-29zM545 498h365l-182 489zM621 1516v315h29v-315h-29zM805 1516v315h30v-315h-30zM905 1516v315h29v-315 h-29zM1005 1516v315h29v-315h-29zM1105 1516v315h29v-315h-29z" />
<glyph unicode="&#xc5;" horiz-adv-x="1454" d="M20 0l537 1434h30l-536 -1434h-31zM123 0l537 1434h30l-537 -1434h-30zM226 0l536 1434h30l-536 -1434h-30zM328 0l537 1434h30l538 -1434h-30l-523 1393l-36 -95l486 -1298h-30l-471 1258l-35 -96l434 -1162h-30l-420 1122l-35 -95l382 -1027h-30l-69 186h-598l-69 -186 h-31zM439 214h576l-24 67h-527zM474 309h506l-25 66h-456zM509 403h436l-25 67h-386zM515 1694q0 88 60.5 145.5t152.5 57.5t152.5 -57.5t60.5 -145.5t-60.5 -145.5t-152.5 -57.5t-152.5 57.5t-60.5 145.5zM544 1694q0 -76 52 -125.5t132 -49.5t132 49.5t52 125.5t-52 125.5 t-132 49.5t-132 -49.5t-52 -125.5zM545 498h365l-182 489zM614 1694q0 47 32.5 77.5t81.5 30.5t81 -30.5t32 -77.5t-32 -77.5t-81 -30.5t-81.5 30.5t-32.5 77.5zM643 1694q0 -35 24 -57.5t61 -22.5t61 22.5t24 57.5t-24 57.5t-61 22.5t-61 -22.5t-24 -57.5zM711 1694 q0 16 17 16t17 -16q0 -17 -17 -17t-17 17z" />
<glyph unicode="&#xc6;" horiz-adv-x="1812" d="M20 0l775 1434h32l-775 -1434h-32zM129 0l776 1434h31l-776 -1434h-31zM237 0l777 1434h32l-778 -1434h-31zM345 0l779 1434h31v-1434h-29v1380l-71 -130v-1250h-29v1196l-71 -130v-1066h-29v186h-449l-101 -186h-31zM493 214h433v67h-397zM544 309h382v66h-346zM595 403 h331v67h-295zM647 498h279v514zM1226 0v1434h462v-28h-433v-67h433v-28h-433v-66h433v-28h-433v-67h433v-28h-433v-258h433v-28h-433v-66h433v-28h-433v-67h433v-28h-433v-66h433v-28h-433v-242h433v-28h-433v-66h433v-28h-433v-67h433v-28h-433v-66h433v-28h-462z" />
<glyph unicode="&#xc7;" horiz-adv-x="1601" d="M81 718q0 156 56.5 293t154 234.5t235 153.5t294.5 56q269 0 465.5 -153.5t253.5 -400.5h-29q-58 235 -246 380.5t-444 145.5q-201 0 -364 -92t-255 -254.5t-92 -362.5t92 -363t255 -255.5t364 -92.5q253 0 440.5 144t247.5 377h29q-60 -245 -255.5 -396.5t-461.5 -151.5 h-40l89 -30q62 -21 96.5 -71t34.5 -120q0 -85 -56 -138.5t-147 -53.5q-89 0 -145 53t-56 142h30q0 -77 48 -122.5t123 -45.5q77 0 125 46t48 119q0 124 -114 163l-144 51v14q-278 37 -455 240.5t-177 490.5zM180 718q0 181 83.5 328.5t230 231t327.5 83.5 q225 0 392.5 -126.5t223.5 -333.5h-29q-56 195 -215 313.5t-372 118.5q-172 0 -312.5 -80t-220 -221t-79.5 -314t79.5 -314t220 -221t312.5 -80q210 0 369 117t216 308h30q-58 -204 -225.5 -328.5t-389.5 -124.5q-181 0 -327.5 83.5t-230 231t-83.5 328.5zM279 718 q0 234 156 391t386 157q181 0 319 -100t193 -265h-30q-53 153 -183.5 245.5t-298.5 92.5q-218 0 -365.5 -149.5t-147.5 -371.5t147.5 -371t365.5 -149q166 0 295.5 90.5t184.5 239.5h30q-56 -162 -193.5 -260t-316.5 -98q-230 0 -386 157t-156 391zM378 718q0 194 127.5 324 t315.5 130q139 0 248 -73.5t160 -197.5h-31q-49 111 -150 177t-227 66q-176 0 -295 -121.5t-119 -304.5t119 -304.5t295 -121.5q124 0 223 63.5t150 172.5h31q-51 -121 -159.5 -192.5t-244.5 -71.5q-188 0 -315.5 130t-127.5 324zM697 -238h30q0 -33 20.5 -53t50.5 -20 q33 0 53.5 19.5t20.5 50.5q0 60 -60 77l-99 35v30l112 -39q76 -24 76 -103q0 -44 -28.5 -71t-74.5 -27q-44 0 -72.5 27.5t-28.5 73.5z" />
<glyph unicode="&#xc8;" d="M136 0v1434h30v-1434h-30zM218 1640v33l273 -158h-56zM218 1750v32l402 -232v-33zM220 1889l401 -231v-32l-400 231zM236 0v1434h29v-1434h-29zM336 0v1434h29v-1434h-29zM349 1892h56l216 -125v-32zM436 0v1434h462v-28h-433v-67h433v-28h-433v-66h433v-28h-433v-67h433 v-28h-433v-258h433v-28h-433v-66h433v-28h-433v-67h433v-28h-433v-66h433v-28h-433v-242h433v-28h-433v-66h433v-28h-433v-67h433v-28h-433v-66h433v-28h-462z" />
<glyph unicode="&#xc9;" d="M136 0v1434h29v-1434h-29zM236 0v1434h29v-1434h-29zM336 0v1434h29v-1434h-29zM410 1626v32l400 231v-32zM410 1735v32l216 125h55zM411 1517v33l402 232v-32zM436 0v1434h462v-28h-433v-67h433v-28h-433v-66h433v-28h-433v-67h433v-28h-433v-258h433v-28h-433v-66h433 v-28h-433v-67h433v-28h-433v-66h433v-28h-433v-242h433v-28h-433v-66h433v-28h-433v-67h433v-28h-433v-66h433v-28h-462zM540 1515l273 158v-33l-217 -125h-56z" />
<glyph unicode="&#xca;" d="M136 0v1434h30v-1434h-30zM196 1627v33l402 232l28 -16zM196 1736v33l216 124h56zM197 1519v32l498 287l28 -16zM236 0v1434h29v-1434h-29zM326 1516l458 264l42 -25v-32l-42 24l-58 -33l100 -57v-32l-128 73l-62 -36l187 -107v-32l-216 123l-64 -37l158 -92h-56l-130 76 l-133 -77h-56zM336 0v1434h29v-1434h-29zM436 0v1434h462v-28h-433v-67h433v-28h-433v-66h433v-28h-433v-67h433v-28h-433v-258h433v-28h-433v-66h433v-28h-433v-67h433v-28h-433v-66h433v-28h-433v-242h433v-28h-433v-66h433v-28h-433v-67h433v-28h-433v-66h433v-28h-462z " />
<glyph unicode="&#xcb;" d="M104 1516v315h29v-315h-29zM136 0v1434h29v-1434h-29zM204 1516v315h29v-315h-29zM236 0v1434h29v-1434h-29zM304 1516v315h29v-315h-29zM336 0v1434h29v-1434h-29zM404 1516v315h29v-315h-29zM436 0v1434h462v-28h-433v-67h433v-28h-433v-66h433v-28h-433v-67h433v-28 h-433v-258h433v-28h-433v-66h433v-28h-433v-67h433v-28h-433v-66h433v-28h-433v-242h433v-28h-433v-66h433v-28h-433v-67h433v-28h-433v-66h433v-28h-462zM588 1516v315h29v-315h-29zM688 1516v315h29v-315h-29zM788 1516v315h29v-315h-29zM888 1516v315h29v-315h-29z" />
<glyph unicode="&#xcc;" horiz-adv-x="602" d="M9 1640v33l273 -158h-56zM9 1750v32l402 -232v-33zM11 1857v32l401 -231v-32zM136 0v1434h30v-1434h-30zM140 1892l272 -157v32l-216 125h-56zM236 0v1434h29v-1434h-29zM336 0v1434h29v-1434h-29zM436 0v1434h29v-1434h-29z" />
<glyph unicode="&#xcd;" horiz-adv-x="602" d="M136 0v1434h30v-1434h-30zM200 1626v32l401 231v-32zM200 1735v32l216 125h56zM201 1517v33l402 232v-32zM236 0v1434h29v-1434h-29zM330 1515l273 158v-33l-217 -125h-56zM336 0v1434h29v-1434h-29zM436 0v1434h29v-1434h-29z" />
<glyph unicode="&#xce;" horiz-adv-x="602" d="M-13 1627v33l402 232l28 -16zM-13 1736v33l216 124h56zM-12 1519v32l498 287l28 -16zM117 1516l457 264l43 -25v-32l-42 24l-58 -33l100 -57v-32l-128 73l-62 -36l187 -107v-32l-216 123l-65 -37l159 -92h-56l-131 76l-132 -77h-56zM136 0v1434h30v-1434h-30zM236 0v1434 h29v-1434h-29zM336 0v1434h29v-1434h-29zM436 0v1434h29v-1434h-29z" />
<glyph unicode="&#xcf;" horiz-adv-x="602" d="M-105 1516v315h29v-315h-29zM-5 1516v315h29v-315h-29zM95 1516v315h29v-315h-29zM136 0v1434h30v-1434h-30zM194 1516v315h30v-315h-30zM236 0v1434h29v-1434h-29zM336 0v1434h29v-1434h-29zM379 1516v315h29v-315h-29zM436 0v1434h29v-1434h-29zM479 1516v315h29v-315 h-29zM579 1516v315h29v-315h-29zM678 1516v315h30v-315h-30z" />
<glyph unicode="&#xd0;" horiz-adv-x="1472" d="M20 560v28h717v-28h-226v-249h148q171 0 283.5 115t112.5 291t-112.5 290.5t-283.5 114.5h-148v-251h226v-28h-717v28h162v563h30v-563h70v563h30v-563h70v563h29v-563h71v563h177q157 0 292 -54t230 -148.5t149 -227.5t54 -287t-54 -287t-149 -227.5t-230 -148.5 t-292 -54h-177v560h-71v-560h-29v560h-70v-560h-30v560h-70v-560h-30v560h-162zM20 654v28h717v-28h-717zM20 749v28h717v-28h-717zM511 28h148q150 0 279.5 52t221 143t143.5 219t52 275t-52 275t-143.5 219t-221 143t-279.5 52h-148v-67h148q135 0 251.5 -46.5 t198.5 -128.5t129 -197.5t47 -249.5q0 -178 -80 -320.5t-223 -222.5t-323 -80h-148v-66zM511 122h148q259 0 427.5 168.5t168.5 426.5t-168.5 426t-427.5 168h-148v-66h148q228 0 377 -149.5t149 -378.5t-149 -378.5t-377 -149.5h-148v-67zM511 217h148q215 0 355.5 141.5 t140.5 358.5t-140.5 358.5t-355.5 141.5h-148v-67h148q184 0 305 -122.5t121 -310.5t-121.5 -311t-304.5 -123h-148v-66z" />
<glyph unicode="&#xd1;" horiz-adv-x="1482" d="M136 0v1434h29v-1434h-29zM236 0v1434h29v-1434h-29zM336 0v1434h29v-1434h-29zM361 1536q0 130 93 220.5t225 90.5h237q0 -12 -8.5 -20t-20.5 -8h-208q-120 0 -204.5 -82.5t-84.5 -200.5h-29zM436 0v1434h29l554 -855v855h29v-1434h-29l-554 854v-854h-29zM460 1536 q0 90 64 153t155 63h208q39 0 67 27.5t28 67.5h29q0 -51 -36.5 -87t-87.5 -36h-208q-78 0 -134 -55t-56 -133h-29zM465 907l554 -854v122l-554 855v-123zM465 1083l554 -855v123l-554 854v-122zM465 1258l554 -854v122l-554 855v-123zM556 1536q0 51 36 86.5t87 35.5h208 q78 0 134 55.5t56 133.5h29q0 -91 -64 -154t-155 -63h-208q-39 0 -67 -27.5t-28 -66.5h-28zM651 1536q0 12 8 19.5t20 7.5h208q120 0 205 83t85 201h28q0 -130 -93 -220.5t-225 -90.5h-236zM1118 0v1434h30v-1434h-30zM1218 0v1434h30v-1434h-30zM1318 0v1434h30v-1434h-30z " />
<glyph unicode="&#xd2;" horiz-adv-x="1642" d="M81 718q0 151 52 283t147 232q101 106 240.5 164t300.5 58q157 0 294.5 -56t235 -153.5t154 -234.5t56.5 -293t-56.5 -293t-154 -234.5t-235 -154t-294.5 -56.5t-294.5 56.5t-235 154t-154 234.5t-56.5 293zM110 718q0 -200 92 -363t255 -255.5t364 -92.5t364 92.5 t255 255.5t92 363t-92 362.5t-255 254.5t-364 92q-154 0 -287.5 -55t-229.5 -155q-93 -96 -143.5 -224t-50.5 -275zM180 718q0 136 48 254t136 206q87 87 204.5 135t252.5 48q180 0 327 -83.5t230.5 -231t83.5 -328.5t-83.5 -328.5t-230.5 -231t-327 -83.5 q-181 0 -327.5 83.5t-230 231t-83.5 328.5zM209 718q0 -173 79.5 -314t220 -221t312.5 -80t312.5 80t220 221t79.5 314t-79.5 314t-220 221t-312.5 80q-129 0 -241.5 -46t-195.5 -130q-175 -177 -175 -439zM279 718q0 118 43.5 221t120.5 178q154 149 378 149 q230 0 386 -157t156 -391t-156 -391t-386 -157t-386 157t-156 391zM308 718q0 -222 147.5 -371t365.5 -149t365.5 149t147.5 371t-147.5 371.5t-365.5 149.5q-213 0 -358 -142q-73 -71 -114 -168.5t-41 -210.5zM378 718q0 99 36 184.5t100 147.5q127 122 307 122 q187 0 314.5 -130t127.5 -324t-127.5 -324t-314.5 -130q-188 0 -315.5 130t-127.5 324zM407 718q0 -183 119 -304.5t295 -121.5t295 121.5t119 304.5t-119 304.5t-295 121.5q-167 0 -285 -112q-129 -123 -129 -314zM529 1640v33l273 -158h-56zM529 1750v32l402 -232l-1 -33z M531 1857v32l401 -231v-32zM660 1892h56l216 -125v-32z" />
<glyph unicode="&#xd3;" horiz-adv-x="1642" d="M81 718q0 151 52 283t147 232q101 106 240.5 164t300.5 58q157 0 294.5 -56t235 -153.5t154 -234.5t56.5 -293t-56.5 -293t-154 -234.5t-235 -154t-294.5 -56.5t-294.5 56.5t-235 154t-154 234.5t-56.5 293zM110 718q0 -200 92 -363t255 -255.5t364 -92.5t364 92.5 t255 255.5t92 363t-92 362.5t-255 254.5t-364 92q-154 0 -287.5 -55t-229.5 -155q-93 -96 -143.5 -224t-50.5 -275zM180 718q0 136 48 254t136 206q87 87 204.5 135t252.5 48q180 0 327 -83.5t230.5 -231t83.5 -328.5t-83.5 -328.5t-230.5 -231t-327 -83.5 q-181 0 -327.5 83.5t-230 231t-83.5 328.5zM209 718q0 -173 79.5 -314t220 -221t312.5 -80t312.5 80t220 221t79.5 314t-79.5 314t-220 221t-312.5 80q-129 0 -241.5 -46t-195.5 -130q-175 -177 -175 -439zM279 718q0 118 43.5 221t120.5 178q154 149 378 149 q230 0 386 -157t156 -391t-156 -391t-386 -157t-386 157t-156 391zM308 718q0 -222 147.5 -371t365.5 -149t365.5 149t147.5 371t-147.5 371.5t-365.5 149.5q-213 0 -358 -142q-73 -71 -114 -168.5t-41 -210.5zM378 718q0 99 36 184.5t100 147.5q127 122 307 122 q187 0 314.5 -130t127.5 -324t-127.5 -324t-314.5 -130q-188 0 -315.5 130t-127.5 324zM407 718q0 -183 119 -304.5t295 -121.5t295 121.5t119 304.5t-119 304.5t-295 121.5q-167 0 -285 -112q-129 -123 -129 -314zM720 1626v32l401 231v-32zM720 1735v32l216 125h56z M721 1517v33l402 232v-32zM850 1515l273 158v-33l-217 -125h-56z" />
<glyph unicode="&#xd4;" horiz-adv-x="1642" d="M81 718q0 151 52 283t147 232q101 106 240.5 164t300.5 58q157 0 294.5 -56t235 -153.5t154 -234.5t56.5 -293t-56.5 -293t-154 -234.5t-235 -154t-294.5 -56.5t-294.5 56.5t-235 154t-154 234.5t-56.5 293zM110 718q0 -200 92 -363t255 -255.5t364 -92.5t364 92.5 t255 255.5t92 363t-92 362.5t-255 254.5t-364 92q-154 0 -287.5 -55t-229.5 -155q-93 -96 -143.5 -224t-50.5 -275zM180 718q0 136 48 254t136 206q87 87 204.5 135t252.5 48q180 0 327 -83.5t230.5 -231t83.5 -328.5t-83.5 -328.5t-230.5 -231t-327 -83.5 q-181 0 -327.5 83.5t-230 231t-83.5 328.5zM209 718q0 -173 79.5 -314t220 -221t312.5 -80t312.5 80t220 221t79.5 314t-79.5 314t-220 221t-312.5 80q-129 0 -241.5 -46t-195.5 -130q-175 -177 -175 -439zM279 718q0 118 43.5 221t120.5 178q154 149 378 149 q230 0 386 -157t156 -391t-156 -391t-386 -157t-386 157t-156 391zM308 718q0 -222 147.5 -371t365.5 -149t365.5 149t147.5 371t-147.5 371.5t-365.5 149.5q-213 0 -358 -142q-73 -71 -114 -168.5t-41 -210.5zM378 718q0 99 36 184.5t100 147.5q127 122 307 122 q187 0 314.5 -130t127.5 -324t-127.5 -324t-314.5 -130q-188 0 -315.5 130t-127.5 324zM407 718q0 -183 119 -304.5t295 -121.5t295 121.5t119 304.5t-119 304.5t-295 121.5q-167 0 -285 -112q-129 -123 -129 -314zM507 1627v33l402 232l28 -16zM507 1736v33l216 124h55z M508 1519v32l498 287l28 -16zM637 1517l457 263l42 -25v-32l-42 24l-57 -33l99 -57v-32l-127 73l-63 -36l188 -107v-32l-216 123l-65 -37l159 -92h-56l-131 76l-132 -76h-56z" />
<glyph unicode="&#xd5;" horiz-adv-x="1642" d="M81 718q0 151 52 283t147 232q101 106 240.5 164t300.5 58q157 0 294.5 -56t235 -153.5t154 -234.5t56.5 -293t-56.5 -293t-154 -234.5t-235 -154t-294.5 -56.5t-294.5 56.5t-235 154t-154 234.5t-56.5 293zM110 718q0 -200 92 -363t255 -255.5t364 -92.5t364 92.5 t255 255.5t92 363t-92 362.5t-255 254.5t-364 92q-154 0 -287.5 -55t-229.5 -155q-93 -96 -143.5 -224t-50.5 -275zM180 718q0 136 48 254t136 206q87 87 204.5 135t252.5 48q180 0 327 -83.5t230.5 -231t83.5 -328.5t-83.5 -328.5t-230.5 -231t-327 -83.5 q-181 0 -327.5 83.5t-230 231t-83.5 328.5zM209 718q0 -173 79.5 -314t220 -221t312.5 -80t312.5 80t220 221t79.5 314t-79.5 314t-220 221t-312.5 80q-129 0 -241.5 -46t-195.5 -130q-175 -177 -175 -439zM279 718q0 118 43.5 221t120.5 178q154 149 378 149 q230 0 386 -157t156 -391t-156 -391t-386 -157t-386 157t-156 391zM308 718q0 -222 147.5 -371t365.5 -149t365.5 149t147.5 371t-147.5 371.5t-365.5 149.5q-213 0 -358 -142q-73 -71 -114 -168.5t-41 -210.5zM378 718q0 99 36 184.5t100 147.5q127 122 307 122 q187 0 314.5 -130t127.5 -324t-127.5 -324t-314.5 -130q-188 0 -315.5 130t-127.5 324zM407 718q0 -183 119 -304.5t295 -121.5t295 121.5t119 304.5t-119 304.5t-295 121.5q-167 0 -285 -112q-129 -123 -129 -314zM440 1536q0 130 93 220.5t225 90.5h236q0 -12 -8 -20 t-20 -8h-208q-120 0 -205 -82.5t-85 -200.5h-28zM539 1536q0 90 64 153t155 63h208q39 0 67 27.5t28 67.5h29q0 -51 -36.5 -87t-87.5 -36h-208q-78 0 -134 -55t-56 -133h-29zM634 1536q0 51 36.5 86.5t87.5 35.5h208q78 0 134 55.5t56 133.5h29q0 -91 -64 -154t-155 -63 h-208q-39 0 -67 -27.5t-28 -66.5h-29zM729 1536q0 12 8.5 19.5t20.5 7.5h208q120 0 204.5 83t84.5 201h29q0 -130 -93 -220.5t-225 -90.5h-237z" />
<glyph unicode="&#xd6;" horiz-adv-x="1642" d="M81 718q0 151 52 283t147 232q101 106 240.5 164t300.5 58q157 0 294.5 -56t235 -153.5t154 -234.5t56.5 -293t-56.5 -293t-154 -234.5t-235 -154t-294.5 -56.5t-294.5 56.5t-235 154t-154 234.5t-56.5 293zM110 718q0 -200 92 -363t255 -255.5t364 -92.5t364 92.5 t255 255.5t92 363t-92 362.5t-255 254.5t-364 92q-154 0 -287.5 -55t-229.5 -155q-93 -96 -143.5 -224t-50.5 -275zM180 718q0 136 48 254t136 206q87 87 204.5 135t252.5 48q180 0 327 -83.5t230.5 -231t83.5 -328.5t-83.5 -328.5t-230.5 -231t-327 -83.5 q-181 0 -327.5 83.5t-230 231t-83.5 328.5zM209 718q0 -173 79.5 -314t220 -221t312.5 -80t312.5 80t220 221t79.5 314t-79.5 314t-220 221t-312.5 80q-129 0 -241.5 -46t-195.5 -130q-175 -177 -175 -439zM279 718q0 118 43.5 221t120.5 178q154 149 378 149 q230 0 386 -157t156 -391t-156 -391t-386 -157t-386 157t-156 391zM308 718q0 -222 147.5 -371t365.5 -149t365.5 149t147.5 371t-147.5 371.5t-365.5 149.5q-213 0 -358 -142q-73 -71 -114 -168.5t-41 -210.5zM378 718q0 99 36 184.5t100 147.5q127 122 307 122 q187 0 314.5 -130t127.5 -324t-127.5 -324t-314.5 -130q-188 0 -315.5 130t-127.5 324zM407 718q0 -183 119 -304.5t295 -121.5t295 121.5t119 304.5t-119 304.5t-295 121.5q-167 0 -285 -112q-129 -123 -129 -314zM414 1516v315h30v-315h-30zM514 1516v315h30v-315h-30z M614 1516v315h30v-315h-30zM714 1516v315h29v-315h-29zM898 1516v315h30v-315h-30zM998 1516v315h30v-315h-30zM1098 1516v315h29v-315h-29zM1198 1516v315h29v-315h-29z" />
<glyph unicode="&#xd7;" horiz-adv-x="827" d="M-1 506l189 190l-188 187l20 19l608 -608l-20 -19l-188 189l-186 -188l-21 20l186 188l-50 51l-186 -189l-22 20l187 190l-49 48l-188 -188l-21 20l188 189l-49 50l-189 -189zM66 949l21 20l608 -607l-21 -20zM133 1016l20 19l608 -607l-20 -19zM198 1082l21 19l187 -186 l205 205l21 -20l-205 -206l50 -50l205 206l21 -20l-205 -207l50 -50l205 207l22 -20l-207 -207l50 -50l207 207l21 -20l-207 -208l188 -188l-20 -19z" />
<glyph unicode="&#xd8;" horiz-adv-x="1642" d="M81 718q0 151 52 283t147 232q101 106 240.5 164t300.5 58q50 0 89 -4l46 126h32l-48 -130q13 -2 70 -14l52 144h32l-55 -151q19 -5 66 -22l63 173h32l-67 -185q26 -11 63 -31l78 216h32l-84 -231q158 -97 248.5 -261.5t90.5 -366.5q0 -156 -56.5 -293t-154 -234.5 t-235 -154t-294.5 -56.5q-56 0 -95 5l-54 -149h-31l55 153q-42 7 -69 14l-61 -167h-31l63 175q-48 15 -66 22l-72 -197h-31l76 209q-40 18 -63 32l-88 -241h-31l93 256q-156 97 -245.5 261.5t-89.5 364.5zM110 718q0 -200 92 -363t255 -255.5t364 -92.5t364 92.5t255 255.5 t92 363t-92 362.5t-255 254.5t-364 92q-154 0 -287.5 -55t-229.5 -155q-93 -96 -143.5 -224t-50.5 -275zM180 718q0 136 48 254t136 206q87 87 204.5 135t252.5 48q180 0 327 -83.5t230.5 -231t83.5 -328.5t-83.5 -328.5t-230.5 -231t-327 -83.5q-181 0 -327.5 83.5 t-230 231t-83.5 328.5zM209 718q0 -173 79.5 -314t220 -221t312.5 -80t312.5 80t220 221t79.5 314t-79.5 314t-220 221t-312.5 80q-129 0 -241.5 -46t-195.5 -130q-175 -177 -175 -439zM279 718q0 118 43.5 221t120.5 178q154 149 378 149q230 0 386 -157t156 -391 t-156 -391t-386 -157t-386 157t-156 391zM308 718q0 -222 147.5 -371t365.5 -149t365.5 149t147.5 371t-147.5 371.5t-365.5 149.5q-213 0 -358 -142q-73 -71 -114 -168.5t-41 -210.5zM378 718q0 99 36 184.5t100 147.5q127 122 307 122q187 0 314.5 -130t127.5 -324 t-127.5 -324t-314.5 -130q-188 0 -315.5 130t-127.5 324zM407 718q0 -187 124 -309l267 735q-153 -7 -262 -112q-129 -123 -129 -314zM555 387q23 -20 59 -41l288 791q-40 7 -72 7zM641 332q33 -16 65 -24l291 798q-31 15 -66 24zM735 301q35 -7 72 -9l276 760 q-31 24 -60 41zM838 292q170 7 283.5 127.5t113.5 298.5q0 190 -128 313z" />
<glyph unicode="&#xd9;" horiz-adv-x="1345" d="M119 536v896h30v-896q0 -241 144 -385t380 -144q237 0 381 144.5t144 384.5v896h29v-896q0 -253 -152.5 -404.5t-401.5 -151.5q-250 0 -402 151.5t-152 404.5zM219 536v896h30v-896q0 -197 116.5 -315t307.5 -118t308 118t117 315v896h29v-896q0 -210 -125 -335.5 t-329 -125.5t-329 125.5t-125 335.5zM319 536v896h29v-896q0 -154 89.5 -246t235.5 -92t235.5 92t89.5 246v896h29v-896q0 -166 -97.5 -266t-256.5 -100t-256.5 100t-97.5 266zM381 1640v33l273 -158h-56zM381 1750v32l402 -232v-33zM383 1857v32l401 -231v-32zM419 536v896 h29v-896q0 -111 62.5 -177.5t162.5 -66.5t162.5 66.5t62.5 177.5v896h30v-896q0 -124 -70.5 -198t-184.5 -74t-184 74t-70 198zM512 1892h56l216 -125v-32z" />
<glyph unicode="&#xda;" horiz-adv-x="1345" d="M119 536v896h30v-896q0 -241 144 -385t380 -144q237 0 381 144.5t144 384.5v896h29v-896q0 -253 -152.5 -404.5t-401.5 -151.5q-250 0 -402 151.5t-152 404.5zM219 536v896h30v-896q0 -197 116.5 -315t307.5 -118t308 118t117 315v896h29v-896q0 -210 -125 -335.5 t-329 -125.5t-329 125.5t-125 335.5zM319 536v896h29v-896q0 -154 89.5 -246t235.5 -92t235.5 92t89.5 246v896h29v-896q0 -166 -97.5 -266t-256.5 -100t-256.5 100t-97.5 266zM419 535v897h29v-896q0 -111 62.5 -177.5t162.5 -66.5t162.5 66.5t62.5 177.5v896h30v-897 q0 -124 -70.5 -197.5t-184.5 -73.5t-184 73.5t-70 197.5zM572 1626v32l401 231v-32zM572 1735v32l216 125h56zM573 1517v33l402 232v-32zM702 1515l273 158v-33l-217 -125h-56z" />
<glyph unicode="&#xdb;" horiz-adv-x="1345" d="M119 536v896h30v-896q0 -241 144 -385t380 -144q237 0 381 144.5t144 384.5v896h29v-896q0 -253 -152.5 -404.5t-401.5 -151.5q-250 0 -402 151.5t-152 404.5zM219 536v896h30v-896q0 -197 116.5 -315t307.5 -118t308 118t117 315v896h29v-896q0 -210 -125 -335.5 t-329 -125.5t-329 125.5t-125 335.5zM319 536v896h29v-896q0 -154 89.5 -246t235.5 -92t235.5 92t89.5 246v896h29v-896q0 -166 -97.5 -266t-256.5 -100t-256.5 100t-97.5 266zM359 1627v33l402 232l28 -16zM359 1736v33l216 124h56zM360 1519v32l498 287l28 -16zM419 536 v896h29v-896q0 -111 62.5 -177.5t162.5 -66.5t162.5 66.5t62.5 177.5v896h30v-896q0 -124 -70.5 -198t-184.5 -74t-184 74t-70 198zM489 1517l457 263l42 -25v-32l-42 24l-57 -33l99 -57v-32l-127 73l-62 -36l187 -107v-32l-216 123l-65 -37l159 -92h-56l-131 76l-132 -76 h-56z" />
<glyph unicode="&#xdc;" horiz-adv-x="1345" d="M119 536v896h30v-896q0 -241 144 -385t380 -144q237 0 381 144.5t144 384.5v896h29v-896q0 -253 -152.5 -404.5t-401.5 -151.5q-250 0 -402 151.5t-152 404.5zM219 536v896h30v-896q0 -197 116.5 -315t307.5 -118t308 118t117 315v896h29v-896q0 -210 -125 -335.5 t-329 -125.5t-329 125.5t-125 335.5zM267 1516v315h29v-315h-29zM319 536v896h29v-896q0 -154 89.5 -246t235.5 -92t235.5 92t89.5 246v896h29v-896q0 -166 -97.5 -266t-256.5 -100t-256.5 100t-97.5 266zM367 1516v315h29v-315h-29zM419 535v897h29v-896 q0 -111 62.5 -177.5t162.5 -66.5t162.5 66.5t62.5 177.5v896h30v-897q0 -124 -70.5 -197.5t-184.5 -73.5t-184 73.5t-70 197.5zM466 1516v315h30v-315h-30zM566 1516v315h30v-315h-30zM751 1516v315h29v-315h-29zM851 1516v315h29v-315h-29zM950 1516v315h30v-315h-30z M1050 1516v315h30v-315h-30z" />
<glyph unicode="&#xdd;" horiz-adv-x="1409" d="M20 1434h34l477 -826l40 70l-435 756h34l419 -726l41 71l-378 655h33l362 -625l39 68l-319 557h34l303 -527l304 527h34l-517 -896v22zM539 163v60l700 1211h33zM539 366v59l585 1009h33zM550 0v41l804 1393h34l-520 -901v-533h-29v482l-71 -122v-360h-29v309l-70 -122 v-187h-30v136l-60 -103v-33h-29zM604 1626v32l401 231v-32zM604 1735v32l216 125h56zM605 1517v33l402 232v-32zM734 1515l273 158v-33l-217 -125h-56z" />
<glyph unicode="&#xde;" horiz-adv-x="1220" d="M136 0v1434h29v-1434h-29zM236 0v1434h29v-1434h-29zM336 0v1434h29v-1434h-29zM436 0v1434h29v-206h172q224 0 370.5 -146.5t146.5 -361.5t-146.5 -361.5t-370.5 -146.5h-172v-212h-29zM465 240h172q212 0 350 138.5t138 341.5t-138 341.5t-350 138.5h-172v-66h172 q181 0 300.5 -119.5t119.5 -294.5t-119.5 -294t-300.5 -119h-172v-67zM465 335h172q169 0 280.5 111.5t111.5 273.5t-111.5 274t-280.5 112h-172v-67h172q138 0 231 -92.5t93 -226.5t-93 -226.5t-231 -92.5h-172v-66zM465 429h172q126 0 210.5 84.5t84.5 206.5t-84.5 206.5 t-210.5 84.5h-172v-66h172q95 0 161 -65.5t66 -159.5q0 -93 -65.5 -158.5t-161.5 -65.5h-172v-67zM465 524h172q84 0 141.5 57t57.5 139t-57.5 139.5t-141.5 57.5h-172v-393z" />
<glyph unicode="&#xdf;" horiz-adv-x="2207" d="M71 476h29q0 -213 128 -340.5t338 -127.5q204 0 326 115.5t122 309.5q0 140 -69 240t-192 143l-261 89q-46 16 -70.5 50.5t-24.5 80.5q0 60 40.5 97t109.5 37q74 0 122 -52t48 -138h-29q0 73 -40.5 117.5t-100.5 44.5q-55 0 -88 -29t-33 -77q0 -80 74 -105l262 -90 q132 -46 206.5 -152.5t74.5 -255.5q0 -207 -130 -330t-347 -123q-223 0 -359 135t-136 361zM97 1035q0 187 124 302.5t326 115.5q210 0 339.5 -129t129.5 -346h-28q0 203 -122 325.5t-319 122.5q-189 0 -305 -108t-116 -283q0 -138 71 -234.5t200 -140.5l236 -80 q52 -19 81 -58.5t29 -89.5q0 -77 -48.5 -122.5t-128.5 -45.5q-88 0 -142 57t-54 153h29q0 -83 46.5 -132.5t120.5 -49.5q66 0 107 38t41 102q0 41 -23.5 73t-67.5 49l-237 81q-136 47 -212.5 150t-76.5 250zM170 474h30q0 -169 101 -270.5t265 -101.5q158 0 253 89.5 t95 239.5q0 108 -53.5 185t-149.5 110l-255 87q-77 26 -118 83.5t-41 137.5q0 103 68.5 166t181.5 63q120 0 195 -77.5t75 -207.5l-29 1q0 116 -67.5 186t-173.5 70q-99 0 -160 -55.5t-61 -144.5q0 -70 37 -121t105 -74l253 -86q105 -37 163.5 -121.5t58.5 -201.5 q0 -164 -102.5 -260.5t-274.5 -96.5q-178 0 -287 109t-109 291zM197 1034q0 144 96 233.5t254 89.5q164 0 267 -103.5t103 -275.5h-29q0 159 -95 255t-246 96q-144 0 -232.5 -81.5t-88.5 -213.5q0 -104 54 -177.5t152 -106.5l247 -85q77 -27 120.5 -88.5t43.5 -145.5 q0 -120 -75.5 -191t-201.5 -71q-134 0 -215 83t-81 222h29q0 -127 73.5 -202.5t193.5 -75.5q113 0 180.5 63.5t67.5 171.5q0 74 -38 128t-107 79l-248 84q-106 36 -165 117t-59 195zM1165 476h28q0 -213 128.5 -340t338.5 -127q204 0 325.5 115.5t121.5 309.5q0 140 -69 240 t-192 143l-261 89q-46 16 -70.5 50.5t-24.5 80.5q0 60 40.5 97t109.5 37q74 0 122.5 -52.5t48.5 -138.5h-29q0 73 -41 117.5t-101 44.5q-55 0 -87.5 -29t-32.5 -77q0 -79 74 -104l262 -90q132 -46 206.5 -152.5t74.5 -255.5q0 -207 -130 -330t-347 -123q-223 0 -359 134.5 t-136 360.5zM1191 1034q0 187 123.5 303t325.5 116q210 0 340 -129.5t130 -345.5h-29q0 203 -122 325t-319 122q-189 0 -304.5 -108t-115.5 -283q0 -138 71 -234.5t200 -140.5l235 -79q52 -19 81.5 -59t29.5 -90q0 -77 -48.5 -122.5t-128.5 -45.5q-88 0 -142 57t-54 154h29 q0 -83 46.5 -132.5t120.5 -49.5q66 0 107 38t41 102q0 41 -23.5 72.5t-67.5 48.5l-238 82q-136 47 -212 149.5t-76 249.5zM1264 475h29q0 -169 101 -270.5t266 -101.5q158 0 252.5 89.5t94.5 239.5q0 108 -53.5 185t-149.5 110l-254 86q-77 26 -118.5 84t-41.5 138 q0 102 68.5 165t181.5 63q120 0 195.5 -77t75.5 -207h-29q0 116 -68 186.5t-174 70.5q-99 0 -159.5 -55t-60.5 -145q0 -70 36.5 -121t104.5 -74l253 -86q105 -37 164 -121.5t59 -201.5q0 -164 -102.5 -260.5t-274.5 -96.5q-178 0 -287 109t-109 291zM1290 1034 q0 144 96 233.5t254 89.5q165 0 268 -103.5t103 -275.5h-30q0 159 -95 255t-246 96q-144 0 -232 -81.5t-88 -213.5q0 -104 54 -177.5t152 -106.5l246 -85q77 -27 121 -88.5t44 -145.5q0 -120 -75.5 -191t-201.5 -71q-134 0 -215 83t-81 222h29q0 -127 73.5 -202.5 t193.5 -75.5q113 0 180.5 63.5t67.5 171.5q0 74 -38.5 128t-107.5 79l-247 84q-106 36 -165.5 117t-59.5 195z" />
<glyph unicode="&#xe0;" horiz-adv-x="1454" d="M20 0l537 1434h30l-536 -1434h-31zM123 0l537 1434h30l-537 -1434h-30zM226 0l536 1434h30l-536 -1434h-30zM328 0l537 1434h30l538 -1434h-30l-523 1393l-36 -95l486 -1298h-30l-471 1258l-35 -96l434 -1162h-30l-420 1122l-35 -95l382 -1027h-30l-69 186h-598l-69 -186 h-31zM435 1640v33l273 -158h-56zM435 1750v32l402 -232v-33zM438 1857v32l400 -231v-32zM439 214h576l-24 67h-527zM474 309h506l-25 66h-456zM509 403h436l-25 67h-386zM545 498h365l-182 489zM567 1892h55l216 -125v-32z" />
<glyph unicode="&#xe1;" horiz-adv-x="1454" d="M20 0l537 1434h30l-536 -1434h-31zM123 0l537 1434h30l-537 -1434h-30zM226 0l536 1434h30l-536 -1434h-30zM328 0l537 1434h30l538 -1434h-30l-523 1393l-36 -95l486 -1298h-30l-471 1258l-35 -96l434 -1162h-30l-420 1122l-35 -95l382 -1027h-30l-69 186h-598l-69 -186 h-31zM439 214h576l-24 67h-527zM474 309h506l-25 66h-456zM509 403h436l-25 67h-386zM545 498h365l-182 489zM627 1626v32l401 231l-1 -32zM627 1735v32l216 125h56zM628 1517v33l402 232v-32zM757 1515l273 158v-33l-217 -125h-56z" />
<glyph unicode="&#xe2;" horiz-adv-x="1454" d="M20 0l537 1434h30l-536 -1434h-31zM123 0l537 1434h30l-537 -1434h-30zM226 0l536 1434h30l-536 -1434h-30zM328 0l537 1434h30l538 -1434h-30l-523 1393l-36 -95l486 -1298h-30l-471 1258l-35 -96l434 -1162h-30l-420 1122l-35 -95l382 -1027h-30l-69 186h-598l-69 -186 h-31zM413 1627v33l403 232l28 -16zM413 1736v33l216 124h56zM414 1551l499 287l27 -16l-525 -303zM439 214h576l-24 67h-527zM474 309h506l-24 66h-457zM509 403h436l-25 67h-386zM544 1517l457 263l42 -25v-32l-42 24l-58 -33l100 -57v-32l-128 73l-62 -36l188 -107v-32 l-216 123l-65 -37l159 -92h-56l-131 76l-133 -76h-55zM545 498h365l-182 489z" />
<glyph unicode="&#xe3;" horiz-adv-x="1454" d="M20 0l537 1434h30l-536 -1434h-31zM123 0l537 1434h30l-537 -1434h-30zM226 0l536 1434h30l-536 -1434h-30zM328 0l537 1434h30l538 -1434h-30l-523 1393l-36 -95l486 -1298h-30l-471 1258l-35 -96l434 -1162h-30l-420 1122l-35 -95l382 -1027h-30l-69 186h-598l-69 -186 h-31zM347 1536q0 130 93 220.5t225 90.5h236q0 -12 -8 -20t-20 -8h-208q-120 0 -205 -82.5t-85 -200.5h-28zM439 214h576l-24 67h-527zM446 1536q0 90 64 153t155 63h208q39 0 67 27.5t28 67.5h28q0 -52 -36 -87.5t-87 -35.5h-208q-78 0 -134 -55t-56 -133h-29zM474 309h506 l-25 66h-456zM509 403h436l-25 67h-386zM541 1536q0 51 36.5 86.5t87.5 35.5h208q78 0 134 55.5t56 133.5h29q0 -91 -64 -154t-155 -63h-208q-39 0 -67 -27.5t-28 -66.5h-29zM545 498h365l-182 489zM636 1536q0 12 8.5 19.5t20.5 7.5h208q120 0 204.5 83t84.5 201h29 q0 -130 -93 -220.5t-225 -90.5h-237z" />
<glyph unicode="&#xe4;" horiz-adv-x="1454" d="M20 0l537 1434h30l-536 -1434h-31zM123 0l537 1434h30l-537 -1434h-30zM226 0l536 1434h30l-536 -1434h-30zM321 1516v315h30v-315h-30zM328 0l537 1434h30l538 -1434h-30l-523 1393l-36 -95l486 -1298h-30l-471 1258l-35 -96l434 -1162h-30l-420 1122l-35 -95l382 -1027 h-30l-69 186h-598l-69 -186h-31zM421 1516v315h30v-315h-30zM439 214h576l-24 67h-527zM474 309h506l-25 66h-456zM509 403h436l-25 67h-386zM521 1516v315h29v-315h-29zM545 498h365l-182 489zM621 1516v315h29v-315h-29zM805 1516v315h30v-315h-30zM905 1516v315h29v-315 h-29zM1005 1516v315h29v-315h-29zM1105 1516v315h29v-315h-29z" />
<glyph unicode="&#xe5;" horiz-adv-x="1454" d="M20 0l537 1434h30l-536 -1434h-31zM123 0l537 1434h30l-537 -1434h-30zM226 0l536 1434h30l-536 -1434h-30zM328 0l537 1434h30l538 -1434h-30l-523 1393l-36 -95l486 -1298h-30l-471 1258l-35 -96l434 -1162h-30l-420 1122l-35 -95l382 -1027h-30l-69 186h-598l-69 -186 h-31zM439 214h576l-24 67h-527zM474 309h506l-25 66h-456zM509 403h436l-25 67h-386zM515 1694q0 88 60.5 145.5t152.5 57.5t152.5 -57.5t60.5 -145.5t-60.5 -145.5t-152.5 -57.5t-152.5 57.5t-60.5 145.5zM544 1694q0 -76 52 -125.5t132 -49.5t132 49.5t52 125.5t-52 125.5 t-132 49.5t-132 -49.5t-52 -125.5zM545 498h365l-182 489zM614 1694q0 47 32.5 77.5t81.5 30.5t81 -30.5t32 -77.5t-32 -77.5t-81 -30.5t-81.5 30.5t-32.5 77.5zM643 1694q0 -35 24 -57.5t61 -22.5t61 22.5t24 57.5t-24 57.5t-61 22.5t-61 -22.5t-24 -57.5zM711 1694 q0 16 17 16t17 -16q0 -17 -17 -17t-17 17z" />
<glyph unicode="&#xe6;" horiz-adv-x="1812" d="M20 0l775 1434h32l-775 -1434h-32zM129 0l776 1434h31l-776 -1434h-31zM237 0l777 1434h32l-778 -1434h-31zM345 0l779 1434h31v-1434h-29v1380l-71 -130v-1250h-29v1196l-71 -130v-1066h-29v186h-449l-101 -186h-31zM493 214h433v67h-397zM544 309h382v66h-346zM595 403 h331v67h-295zM647 498h279v514zM1226 0v1434h462v-28h-433v-67h433v-28h-433v-66h433v-28h-433v-67h433v-28h-433v-258h433v-28h-433v-66h433v-28h-433v-67h433v-28h-433v-66h433v-28h-433v-242h433v-28h-433v-66h433v-28h-433v-67h433v-28h-433v-66h433v-28h-462z" />
<glyph unicode="&#xe7;" horiz-adv-x="1601" d="M81 718q0 156 56.5 293t154 234.5t235 153.5t294.5 56q269 0 465.5 -153.5t253.5 -400.5h-29q-58 235 -246 380.5t-444 145.5q-201 0 -364 -92t-255 -254.5t-92 -362.5t92 -363t255 -255.5t364 -92.5q253 0 440.5 144t247.5 377h29q-60 -245 -255.5 -396.5t-461.5 -151.5 h-36l88 -30q62 -21 96.5 -71t34.5 -120q0 -85 -55.5 -138.5t-146.5 -53.5q-89 0 -145 53t-56 142h29q0 -77 48 -122.5t124 -45.5q77 0 125 46t48 119q0 124 -115 163l-143 51v13q-279 35 -457.5 239t-178.5 493zM180 718q0 181 83.5 328.5t230 231t327.5 83.5 q225 0 392.5 -126.5t223.5 -333.5h-29q-56 195 -215 313.5t-372 118.5q-172 0 -312.5 -80t-220 -221t-79.5 -314t79.5 -314t220 -221t312.5 -80q210 0 369 117t216 308h30q-58 -204 -225.5 -328.5t-389.5 -124.5q-181 0 -327.5 83.5t-230 231t-83.5 328.5zM279 718 q0 234 156 391t386 157q181 0 319 -100t193 -265h-30q-53 153 -183.5 245.5t-298.5 92.5q-218 0 -365.5 -149.5t-147.5 -371.5t147.5 -371t365.5 -149q166 0 295.5 90.5t184.5 239.5h30q-56 -162 -193.5 -260t-316.5 -98q-230 0 -386 157t-156 391zM378 718q0 194 127.5 324 t315.5 130q139 0 248 -73.5t160 -197.5h-31q-49 111 -150 177t-227 66q-176 0 -295 -121.5t-119 -304.5t119 -304.5t295 -121.5q124 0 223 63.5t150 172.5h31q-51 -121 -159.5 -192.5t-244.5 -71.5q-188 0 -315.5 130t-127.5 324zM701 -238h29q0 -33 21 -53t51 -20 q33 0 53 19t20 51q0 60 -59 77l-99 35v30l111 -39q76 -24 76 -103q0 -44 -28 -71t-74 -27q-44 0 -72.5 27.5t-28.5 73.5z" />
<glyph unicode="&#xe8;" d="M136 0v1434h30v-1434h-30zM223 1640v33l273 -158h-56zM223 1750v32l402 -232l-1 -33zM225 1857v32l401 -231v-32zM236 0v1434h29v-1434h-29zM336 0v1434h29v-1434h-29zM354 1892h56l216 -125v-32zM436 0v1434h462v-28h-433v-67h433v-28h-433v-66h433v-28h-433v-67h433 v-28h-433v-258h433v-28h-433v-66h433v-28h-433v-67h433v-28h-433v-66h433v-28h-433v-242h433v-28h-433v-66h433v-28h-433v-67h433v-28h-433v-66h433v-28h-462z" />
<glyph unicode="&#xe9;" d="M136 0v1434h29v-1434h-29zM236 0v1434h29v-1434h-29zM336 0v1434h29v-1434h-29zM414 1626v32l401 231v-32zM414 1735v32l216 125h56zM415 1517v33l402 232v-32zM436 0v1434h462v-28h-433v-67h433v-28h-433v-66h433v-28h-433v-67h433v-28h-433v-258h433v-28h-433v-66h433 v-28h-433v-67h433v-28h-433v-66h433v-28h-433v-242h433v-28h-433v-66h433v-28h-433v-67h433v-28h-433v-66h433v-28h-462zM544 1515l273 158v-33l-217 -125h-56z" />
<glyph unicode="&#xea;" d="M136 0v1434h29v-1434h-29zM201 1627v33l402 232l28 -16zM201 1736v33l216 124h55zM202 1519v32l498 287l28 -16zM236 0v1434h29v-1434h-29zM331 1516l457 264l42 -25v-32l-42 24l-57 -33l99 -57v-32l-127 73l-63 -36l188 -107v-32l-216 123l-65 -37l159 -92h-56l-131 76 l-132 -77h-56zM336 0v1434h29v-1434h-29zM436 0v1434h462v-28h-433v-67h433v-28h-433v-66h433v-28h-433v-67h433v-28h-433v-258h433v-28h-433v-66h433v-28h-433v-67h433v-28h-433v-66h433v-28h-433v-242h433v-28h-433v-66h433v-28h-433v-67h433v-28h-433v-66h433v-28h-462z " />
<glyph unicode="&#xeb;" d="M108 1516v315h30v-315h-30zM136 0v1434h30v-1434h-30zM208 1516v315h30v-315h-30zM236 0v1434h29v-1434h-29zM308 1516v315h30v-315h-30zM336 0v1434h29v-1434h-29zM408 1516v315h29v-315h-29zM436 0v1434h462v-28h-433v-67h433v-28h-433v-66h433v-28h-433v-67h433v-28 h-433v-258h433v-28h-433v-66h433v-28h-433v-67h433v-28h-433v-66h433v-28h-433v-242h433v-28h-433v-66h433v-28h-433v-67h433v-28h-433v-66h433v-28h-462zM592 1516v315h30v-315h-30zM692 1516v315h30v-315h-30zM792 1516v315h30v-315h-30zM892 1516v315h29v-315h-29z" />
<glyph unicode="&#xec;" horiz-adv-x="602" d="M9 1640v33l273 -158h-56zM9 1750v32l402 -232v-33zM11 1857v32l401 -231v-32zM136 0v1434h30v-1434h-30zM140 1892l272 -157v32l-216 125h-56zM236 0v1434h29v-1434h-29zM336 0v1434h29v-1434h-29zM436 0v1434h29v-1434h-29z" />
<glyph unicode="&#xed;" horiz-adv-x="602" d="M136 0v1434h30v-1434h-30zM200 1626v32l401 231v-32zM200 1735v32l216 125h56zM201 1517v33l402 232v-32zM236 0v1434h29v-1434h-29zM330 1515l273 158v-33l-217 -125h-56zM336 0v1434h29v-1434h-29zM436 0v1434h29v-1434h-29z" />
<glyph unicode="&#xee;" horiz-adv-x="602" d="M-13 1627v33l402 232l28 -16zM-13 1736v33l216 124h56zM-12 1519v32l498 287l28 -16zM117 1516l457 264l43 -25v-32l-42 24l-58 -33l100 -57v-32l-128 73l-62 -36l187 -107v-32l-216 123l-65 -37l159 -92h-56l-131 76l-132 -77h-56zM136 0v1434h30v-1434h-30zM236 0v1434 h29v-1434h-29zM336 0v1434h29v-1434h-29zM436 0v1434h29v-1434h-29z" />
<glyph unicode="&#xef;" horiz-adv-x="602" d="M-105 1516v315h29v-315h-29zM-5 1516v315h29v-315h-29zM95 1516v315h29v-315h-29zM136 0v1434h30v-1434h-30zM194 1516v315h30v-315h-30zM236 0v1434h29v-1434h-29zM336 0v1434h29v-1434h-29zM379 1516v315h29v-315h-29zM436 0v1434h29v-1434h-29zM479 1516v315h29v-315 h-29zM579 1516v315h29v-315h-29zM678 1516v315h30v-315h-30z" />
<glyph unicode="&#xf0;" horiz-adv-x="1472" d="M20 560v28h717v-28h-226v-249h148q171 0 283.5 115t112.5 291t-112.5 290.5t-283.5 114.5h-148v-251h226v-28h-717v28h162v563h30v-563h70v563h30v-563h70v563h29v-563h71v563h177q157 0 292 -54t230 -148.5t149 -227.5t54 -287t-54 -287t-149 -227.5t-230 -148.5 t-292 -54h-177v560h-71v-560h-29v560h-70v-560h-30v560h-70v-560h-30v560h-162zM20 654v28h717v-28h-717zM20 749v28h717v-28h-717zM511 28h148q150 0 279.5 52t221 143t143.5 219t52 275t-52 275t-143.5 219t-221 143t-279.5 52h-148v-67h148q135 0 251.5 -46.5 t198.5 -128.5t129 -197.5t47 -249.5q0 -178 -80 -320.5t-223 -222.5t-323 -80h-148v-66zM511 122h148q259 0 427.5 168.5t168.5 426.5t-168.5 426t-427.5 168h-148v-66h148q228 0 377 -149.5t149 -378.5t-149 -378.5t-377 -149.5h-148v-67zM511 217h148q215 0 355.5 141.5 t140.5 358.5t-140.5 358.5t-355.5 141.5h-148v-67h148q184 0 305 -122.5t121 -310.5t-121.5 -311t-304.5 -123h-148v-66z" />
<glyph unicode="&#xf1;" horiz-adv-x="1482" d="M136 0v1434h29v-1434h-29zM236 0v1434h29v-1434h-29zM336 0v1434h29v-1434h-29zM361 1536q0 130 93 220.5t225 90.5h237q0 -12 -8.5 -20t-20.5 -8h-208q-120 0 -204.5 -82.5t-84.5 -200.5h-29zM436 0v1434h29l554 -855v855h29v-1434h-29l-554 854v-854h-29zM460 1536 q0 90 64 153t155 63h208q39 0 67 27.5t28 67.5h29q0 -51 -36.5 -87t-87.5 -36h-208q-78 0 -134 -55t-56 -133h-29zM465 907l554 -854v122l-554 855v-123zM465 1083l554 -855v123l-554 854v-122zM465 1258l554 -854v122l-554 855v-123zM556 1536q0 51 36 86.5t87 35.5h208 q78 0 134 55.5t56 133.5h29q0 -91 -64 -154t-155 -63h-208q-39 0 -67 -27.5t-28 -66.5h-28zM651 1536q0 12 8 19.5t20 7.5h208q120 0 205 83t85 201h28q0 -130 -93 -220.5t-225 -90.5h-236zM1118 0v1434h30v-1434h-30zM1218 0v1434h30v-1434h-30zM1318 0v1434h30v-1434h-30z " />
<glyph unicode="&#xf2;" horiz-adv-x="1642" d="M81 718q0 151 52 283t147 232q101 106 240.5 164t300.5 58q157 0 294.5 -56t235 -153.5t154 -234.5t56.5 -293t-56.5 -293t-154 -234.5t-235 -154t-294.5 -56.5t-294.5 56.5t-235 154t-154 234.5t-56.5 293zM110 718q0 -200 92 -363t255 -255.5t364 -92.5t364 92.5 t255 255.5t92 363t-92 362.5t-255 254.5t-364 92q-154 0 -287.5 -55t-229.5 -155q-93 -96 -143.5 -224t-50.5 -275zM180 718q0 136 48 254t136 206q87 87 204.5 135t252.5 48q180 0 327 -83.5t230.5 -231t83.5 -328.5t-83.5 -328.5t-230.5 -231t-327 -83.5 q-181 0 -327.5 83.5t-230 231t-83.5 328.5zM209 718q0 -173 79.5 -314t220 -221t312.5 -80t312.5 80t220 221t79.5 314t-79.5 314t-220 221t-312.5 80q-129 0 -241.5 -46t-195.5 -130q-175 -177 -175 -439zM279 718q0 118 43.5 221t120.5 178q154 149 378 149 q230 0 386 -157t156 -391t-156 -391t-386 -157t-386 157t-156 391zM308 718q0 -222 147.5 -371t365.5 -149t365.5 149t147.5 371t-147.5 371.5t-365.5 149.5q-213 0 -358 -142q-73 -71 -114 -168.5t-41 -210.5zM378 718q0 99 36 184.5t100 147.5q127 122 307 122 q187 0 314.5 -130t127.5 -324t-127.5 -324t-314.5 -130q-188 0 -315.5 130t-127.5 324zM407 718q0 -183 119 -304.5t295 -121.5t295 121.5t119 304.5t-119 304.5t-295 121.5q-167 0 -285 -112q-129 -123 -129 -314zM529 1640v33l273 -158h-56zM529 1750v32l402 -232l-1 -33z M531 1857v32l401 -231v-32zM660 1892h56l216 -125v-32z" />
<glyph unicode="&#xf3;" horiz-adv-x="1642" d="M81 718q0 151 52 283t147 232q101 106 240.5 164t300.5 58q157 0 294.5 -56t235 -153.5t154 -234.5t56.5 -293t-56.5 -293t-154 -234.5t-235 -154t-294.5 -56.5t-294.5 56.5t-235 154t-154 234.5t-56.5 293zM110 718q0 -200 92 -363t255 -255.5t364 -92.5t364 92.5 t255 255.5t92 363t-92 362.5t-255 254.5t-364 92q-154 0 -287.5 -55t-229.5 -155q-93 -96 -143.5 -224t-50.5 -275zM180 718q0 136 48 254t136 206q87 87 204.5 135t252.5 48q180 0 327 -83.5t230.5 -231t83.5 -328.5t-83.5 -328.5t-230.5 -231t-327 -83.5 q-181 0 -327.5 83.5t-230 231t-83.5 328.5zM209 718q0 -173 79.5 -314t220 -221t312.5 -80t312.5 80t220 221t79.5 314t-79.5 314t-220 221t-312.5 80q-129 0 -241.5 -46t-195.5 -130q-175 -177 -175 -439zM279 718q0 118 43.5 221t120.5 178q154 149 378 149 q230 0 386 -157t156 -391t-156 -391t-386 -157t-386 157t-156 391zM308 718q0 -222 147.5 -371t365.5 -149t365.5 149t147.5 371t-147.5 371.5t-365.5 149.5q-213 0 -358 -142q-73 -71 -114 -168.5t-41 -210.5zM378 718q0 99 36 184.5t100 147.5q127 122 307 122 q187 0 314.5 -130t127.5 -324t-127.5 -324t-314.5 -130q-188 0 -315.5 130t-127.5 324zM407 718q0 -183 119 -304.5t295 -121.5t295 121.5t119 304.5t-119 304.5t-295 121.5q-167 0 -285 -112q-129 -123 -129 -314zM720 1626v32l401 231v-32zM720 1735v32l216 125h56z M721 1517v33l402 232v-32zM850 1515l273 158v-33l-217 -125h-56z" />
<glyph unicode="&#xf4;" horiz-adv-x="1642" d="M81 718q0 151 52 283t147 232q101 106 240.5 164t300.5 58q157 0 294.5 -56t235 -153.5t154 -234.5t56.5 -293t-56.5 -293t-154 -234.5t-235 -154t-294.5 -56.5t-294.5 56.5t-235 154t-154 234.5t-56.5 293zM110 718q0 -200 92 -363t255 -255.5t364 -92.5t364 92.5 t255 255.5t92 363t-92 362.5t-255 254.5t-364 92q-154 0 -287.5 -55t-229.5 -155q-93 -96 -143.5 -224t-50.5 -275zM180 718q0 136 48 254t136 206q87 87 204.5 135t252.5 48q180 0 327 -83.5t230.5 -231t83.5 -328.5t-83.5 -328.5t-230.5 -231t-327 -83.5 q-181 0 -327.5 83.5t-230 231t-83.5 328.5zM209 718q0 -173 79.5 -314t220 -221t312.5 -80t312.5 80t220 221t79.5 314t-79.5 314t-220 221t-312.5 80q-129 0 -241.5 -46t-195.5 -130q-175 -177 -175 -439zM279 718q0 118 43.5 221t120.5 178q154 149 378 149 q230 0 386 -157t156 -391t-156 -391t-386 -157t-386 157t-156 391zM308 718q0 -222 147.5 -371t365.5 -149t365.5 149t147.5 371t-147.5 371.5t-365.5 149.5q-213 0 -358 -142q-73 -71 -114 -168.5t-41 -210.5zM378 718q0 99 36 184.5t100 147.5q127 122 307 122 q187 0 314.5 -130t127.5 -324t-127.5 -324t-314.5 -130q-188 0 -315.5 130t-127.5 324zM407 718q0 -183 119 -304.5t295 -121.5t295 121.5t119 304.5t-119 304.5t-295 121.5q-167 0 -285 -112q-129 -123 -129 -314zM507 1627v33l402 232l28 -16zM507 1736v33l216 124h55z M508 1519v32l498 287l28 -16zM637 1517l457 263l42 -25v-32l-42 24l-57 -33l99 -57v-32l-127 73l-63 -36l188 -107v-32l-216 123l-65 -37l159 -92h-56l-131 76l-132 -76h-56z" />
<glyph unicode="&#xf5;" horiz-adv-x="1642" d="M81 718q0 151 52 283t147 232q101 106 240.5 164t300.5 58q157 0 294.5 -56t235 -153.5t154 -234.5t56.5 -293t-56.5 -293t-154 -234.5t-235 -154t-294.5 -56.5t-294.5 56.5t-235 154t-154 234.5t-56.5 293zM110 718q0 -200 92 -363t255 -255.5t364 -92.5t364 92.5 t255 255.5t92 363t-92 362.5t-255 254.5t-364 92q-154 0 -287.5 -55t-229.5 -155q-93 -96 -143.5 -224t-50.5 -275zM180 718q0 136 48 254t136 206q87 87 204.5 135t252.5 48q180 0 327 -83.5t230.5 -231t83.5 -328.5t-83.5 -328.5t-230.5 -231t-327 -83.5 q-181 0 -327.5 83.5t-230 231t-83.5 328.5zM209 718q0 -173 79.5 -314t220 -221t312.5 -80t312.5 80t220 221t79.5 314t-79.5 314t-220 221t-312.5 80q-129 0 -241.5 -46t-195.5 -130q-175 -177 -175 -439zM279 718q0 118 43.5 221t120.5 178q154 149 378 149 q230 0 386 -157t156 -391t-156 -391t-386 -157t-386 157t-156 391zM308 718q0 -222 147.5 -371t365.5 -149t365.5 149t147.5 371t-147.5 371.5t-365.5 149.5q-213 0 -358 -142q-73 -71 -114 -168.5t-41 -210.5zM378 718q0 99 36 184.5t100 147.5q127 122 307 122 q187 0 314.5 -130t127.5 -324t-127.5 -324t-314.5 -130q-188 0 -315.5 130t-127.5 324zM407 718q0 -183 119 -304.5t295 -121.5t295 121.5t119 304.5t-119 304.5t-295 121.5q-167 0 -285 -112q-129 -123 -129 -314zM440 1536q0 130 93 220.5t225 90.5h236q0 -12 -8 -20 t-20 -8h-208q-120 0 -205 -82.5t-85 -200.5h-28zM539 1536q0 90 64 153t155 63h208q39 0 67 27.5t28 67.5h29q0 -51 -36.5 -87t-87.5 -36h-208q-78 0 -134 -55t-56 -133h-29zM634 1536q0 51 36.5 86.5t87.5 35.5h208q78 0 134 55.5t56 133.5h29q0 -91 -64 -154t-155 -63 h-208q-39 0 -67 -27.5t-28 -66.5h-29zM729 1536q0 12 8.5 19.5t20.5 7.5h208q120 0 204.5 83t84.5 201h29q0 -130 -93 -220.5t-225 -90.5h-237z" />
<glyph unicode="&#xf6;" horiz-adv-x="1642" d="M81 718q0 151 52 283t147 232q101 106 240.5 164t300.5 58q157 0 294.5 -56t235 -153.5t154 -234.5t56.5 -293t-56.5 -293t-154 -234.5t-235 -154t-294.5 -56.5t-294.5 56.5t-235 154t-154 234.5t-56.5 293zM110 718q0 -200 92 -363t255 -255.5t364 -92.5t364 92.5 t255 255.5t92 363t-92 362.5t-255 254.5t-364 92q-154 0 -287.5 -55t-229.5 -155q-93 -96 -143.5 -224t-50.5 -275zM180 718q0 136 48 254t136 206q87 87 204.5 135t252.5 48q180 0 327 -83.5t230.5 -231t83.5 -328.5t-83.5 -328.5t-230.5 -231t-327 -83.5 q-181 0 -327.5 83.5t-230 231t-83.5 328.5zM209 718q0 -173 79.5 -314t220 -221t312.5 -80t312.5 80t220 221t79.5 314t-79.5 314t-220 221t-312.5 80q-129 0 -241.5 -46t-195.5 -130q-175 -177 -175 -439zM279 718q0 118 43.5 221t120.5 178q154 149 378 149 q230 0 386 -157t156 -391t-156 -391t-386 -157t-386 157t-156 391zM308 718q0 -222 147.5 -371t365.5 -149t365.5 149t147.5 371t-147.5 371.5t-365.5 149.5q-213 0 -358 -142q-73 -71 -114 -168.5t-41 -210.5zM378 718q0 99 36 184.5t100 147.5q127 122 307 122 q187 0 314.5 -130t127.5 -324t-127.5 -324t-314.5 -130q-188 0 -315.5 130t-127.5 324zM407 718q0 -183 119 -304.5t295 -121.5t295 121.5t119 304.5t-119 304.5t-295 121.5q-167 0 -285 -112q-129 -123 -129 -314zM414 1516v315h30v-315h-30zM514 1516v315h30v-315h-30z M614 1516v315h30v-315h-30zM714 1516v315h29v-315h-29zM898 1516v315h30v-315h-30zM998 1516v315h30v-315h-30zM1098 1516v315h29v-315h-29zM1198 1516v315h29v-315h-29z" />
<glyph unicode="&#xf7;" d="M82 533v28h860v-28h-860zM82 628v28h860v-28h-860zM82 722v28h860v-28h-860zM82 817v27h860v-27h-860zM347 167v310h29v-310h-29zM347 898v310h29v-310h-29zM447 167v310h29v-310h-29zM447 898v310h29v-310h-29zM547 167v310h29v-310h-29zM547 898v310h29v-310h-29z M646 167v310h30v-310h-30zM646 898v310h30v-310h-30z" />
<glyph unicode="&#xf8;" horiz-adv-x="1642" d="M81 718q0 151 52 283t147 232q101 106 240.5 164t300.5 58q50 0 89 -4l46 126h32l-48 -130q13 -2 70 -14l52 144h32l-55 -151q19 -5 66 -22l63 173h32l-67 -185q26 -11 63 -31l78 216h32l-84 -231q158 -97 248.5 -261.5t90.5 -366.5q0 -156 -56.5 -293t-154 -234.5 t-235 -154t-294.5 -56.5q-56 0 -95 5l-54 -149h-31l55 153q-42 7 -69 14l-61 -167h-31l63 175q-48 15 -66 22l-72 -197h-31l76 209q-40 18 -63 32l-88 -241h-31l93 256q-156 97 -245.5 261.5t-89.5 364.5zM110 718q0 -200 92 -363t255 -255.5t364 -92.5t364 92.5t255 255.5 t92 363t-92 362.5t-255 254.5t-364 92q-154 0 -287.5 -55t-229.5 -155q-93 -96 -143.5 -224t-50.5 -275zM180 718q0 136 48 254t136 206q87 87 204.5 135t252.5 48q180 0 327 -83.5t230.5 -231t83.5 -328.5t-83.5 -328.5t-230.5 -231t-327 -83.5q-181 0 -327.5 83.5 t-230 231t-83.5 328.5zM209 718q0 -173 79.5 -314t220 -221t312.5 -80t312.5 80t220 221t79.5 314t-79.5 314t-220 221t-312.5 80q-129 0 -241.5 -46t-195.5 -130q-175 -177 -175 -439zM279 718q0 118 43.5 221t120.5 178q154 149 378 149q230 0 386 -157t156 -391 t-156 -391t-386 -157t-386 157t-156 391zM308 718q0 -222 147.5 -371t365.5 -149t365.5 149t147.5 371t-147.5 371.5t-365.5 149.5q-213 0 -358 -142q-73 -71 -114 -168.5t-41 -210.5zM378 718q0 99 36 184.5t100 147.5q127 122 307 122q187 0 314.5 -130t127.5 -324 t-127.5 -324t-314.5 -130q-188 0 -315.5 130t-127.5 324zM407 718q0 -187 124 -309l267 735q-153 -7 -262 -112q-129 -123 -129 -314zM555 387q23 -20 59 -41l288 791q-40 7 -72 7zM641 332q33 -16 65 -24l291 798q-31 15 -66 24zM735 301q35 -7 72 -9l276 760 q-31 24 -60 41zM838 292q170 7 283.5 127.5t113.5 298.5q0 190 -128 313z" />
<glyph unicode="&#xf9;" horiz-adv-x="1345" d="M119 536v896h30v-896q0 -241 144 -385t380 -144q237 0 381 144.5t144 384.5v896h29v-896q0 -253 -152.5 -404.5t-401.5 -151.5q-250 0 -402 151.5t-152 404.5zM219 536v896h30v-896q0 -197 116.5 -315t307.5 -118t308 118t117 315v896h29v-896q0 -210 -125 -335.5 t-329 -125.5t-329 125.5t-125 335.5zM319 536v896h29v-896q0 -154 89.5 -246t235.5 -92t235.5 92t89.5 246v896h29v-896q0 -166 -97.5 -266t-256.5 -100t-256.5 100t-97.5 266zM381 1640v33l273 -158h-56zM381 1750v32l402 -232v-33zM383 1857v32l401 -231v-32zM419 536v896 h29v-896q0 -111 62.5 -177.5t162.5 -66.5t162.5 66.5t62.5 177.5v896h30v-896q0 -124 -70.5 -198t-184.5 -74t-184 74t-70 198zM512 1892h56l216 -125v-32z" />
<glyph unicode="&#xfa;" horiz-adv-x="1345" d="M119 536v896h30v-896q0 -241 144 -385t380 -144q237 0 381 144.5t144 384.5v896h29v-896q0 -253 -152.5 -404.5t-401.5 -151.5q-250 0 -402 151.5t-152 404.5zM219 536v896h30v-896q0 -197 116.5 -315t307.5 -118t308 118t117 315v896h29v-896q0 -210 -125 -335.5 t-329 -125.5t-329 125.5t-125 335.5zM319 536v896h29v-896q0 -154 89.5 -246t235.5 -92t235.5 92t89.5 246v896h29v-896q0 -166 -97.5 -266t-256.5 -100t-256.5 100t-97.5 266zM419 535v897h29v-896q0 -111 62.5 -177.5t162.5 -66.5t162.5 66.5t62.5 177.5v896h30v-897 q0 -124 -70.5 -197.5t-184.5 -73.5t-184 73.5t-70 197.5zM572 1626v32l401 231v-32zM572 1735v32l216 125h56zM573 1517v33l402 232v-32zM702 1515l273 158v-33l-217 -125h-56z" />
<glyph unicode="&#xfb;" horiz-adv-x="1345" d="M119 536v896h30v-896q0 -241 144 -385t380 -144q237 0 381 144.5t144 384.5v896h29v-896q0 -253 -152.5 -404.5t-401.5 -151.5q-250 0 -402 151.5t-152 404.5zM219 536v896h30v-896q0 -197 116.5 -315t307.5 -118t308 118t117 315v896h29v-896q0 -210 -125 -335.5 t-329 -125.5t-329 125.5t-125 335.5zM319 536v896h29v-896q0 -154 89.5 -246t235.5 -92t235.5 92t89.5 246v896h29v-896q0 -166 -97.5 -266t-256.5 -100t-256.5 100t-97.5 266zM359 1627v33l402 232l28 -16zM359 1736v33l216 124h56zM360 1519v32l498 287l28 -16zM419 536 v896h29v-896q0 -111 62.5 -177.5t162.5 -66.5t162.5 66.5t62.5 177.5v896h30v-896q0 -124 -70.5 -198t-184.5 -74t-184 74t-70 198zM489 1517l457 263l42 -25v-32l-42 24l-57 -33l99 -57v-32l-127 73l-62 -36l187 -107v-32l-216 123l-65 -37l159 -92h-56l-131 76l-132 -76 h-56z" />
<glyph unicode="&#xfc;" horiz-adv-x="1345" d="M119 536v896h30v-896q0 -241 144 -385t380 -144q237 0 381 144.5t144 384.5v896h29v-896q0 -253 -152.5 -404.5t-401.5 -151.5q-250 0 -402 151.5t-152 404.5zM219 536v896h30v-896q0 -197 116.5 -315t307.5 -118t308 118t117 315v896h29v-896q0 -210 -125 -335.5 t-329 -125.5t-329 125.5t-125 335.5zM267 1516v315h29v-315h-29zM319 536v896h29v-896q0 -154 89.5 -246t235.5 -92t235.5 92t89.5 246v896h29v-896q0 -166 -97.5 -266t-256.5 -100t-256.5 100t-97.5 266zM367 1516v315h29v-315h-29zM419 535v897h29v-896 q0 -111 62.5 -177.5t162.5 -66.5t162.5 66.5t62.5 177.5v896h30v-897q0 -124 -70.5 -197.5t-184.5 -73.5t-184 73.5t-70 197.5zM466 1516v315h30v-315h-30zM566 1516v315h30v-315h-30zM751 1516v315h29v-315h-29zM851 1516v315h29v-315h-29zM950 1516v315h30v-315h-30z M1050 1516v315h30v-315h-30z" />
<glyph unicode="&#xfd;" horiz-adv-x="1409" d="M20 1434h34l477 -826l40 70l-435 756h34l419 -726l41 71l-378 655h33l362 -625l39 68l-319 557h34l303 -527l304 527h34l-517 -896v22zM539 163v60l700 1211h33zM539 366v59l585 1009h33zM550 0v41l804 1393h34l-520 -901v-533h-29v482l-71 -122v-360h-29v309l-70 -122 v-187h-30v136l-60 -103v-33h-29zM604 1626v32l401 231v-32zM604 1735v32l216 125h56zM605 1517v33l402 232v-32zM734 1515l273 158v-33l-217 -125h-56z" />
<glyph unicode="&#xfe;" horiz-adv-x="1220" d="M136 0v1434h29v-1434h-29zM236 0v1434h29v-1434h-29zM336 0v1434h29v-1434h-29zM436 0v1434h29v-206h172q224 0 370.5 -146.5t146.5 -361.5t-146.5 -361.5t-370.5 -146.5h-172v-212h-29zM465 240h172q212 0 350 138.5t138 341.5t-138 341.5t-350 138.5h-172v-66h172 q181 0 300.5 -119.5t119.5 -294.5t-119.5 -294t-300.5 -119h-172v-67zM465 335h172q169 0 280.5 111.5t111.5 273.5t-111.5 274t-280.5 112h-172v-67h172q138 0 231 -92.5t93 -226.5t-93 -226.5t-231 -92.5h-172v-66zM465 429h172q126 0 210.5 84.5t84.5 206.5t-84.5 206.5 t-210.5 84.5h-172v-66h172q95 0 161 -65.5t66 -159.5q0 -93 -65.5 -158.5t-161.5 -65.5h-172v-67zM465 524h172q84 0 141.5 57t57.5 139t-57.5 139.5t-141.5 57.5h-172v-393z" />
<glyph unicode="&#xff;" horiz-adv-x="1409" d="M20 1434h34l477 -826l40 70l-435 756h34l419 -726l41 71l-378 655h33l362 -625l39 68l-319 557h34l303 -527l304 527h34l-517 -896v22zM299 1516v315h29v-315h-29zM399 1516v315h29v-315h-29zM499 1516v315h29v-315h-29zM539 163v60l700 1211h33zM539 366v59l585 1009h33 zM550 0v41l804 1393h34l-520 -901v-533h-29v482l-71 -122v-360h-29v309l-70 -122v-187h-30v136l-60 -103v-33h-29zM598 1516v315h30v-315h-30zM783 1516v315h29v-315h-29zM883 1516v315h29v-315h-29zM982 1516v315h30v-315h-30zM1082 1516v315h30v-315h-30z" />
<glyph unicode="&#x152;" horiz-adv-x="2121" d="M81 718q0 156 56 293t153.5 234.5t234 153.5t291.5 56q266 0 419 -150v129h29v-1434h-29v130q-154 -150 -419 -150q-207 0 -375.5 96t-264 265t-95.5 377zM110 718q0 -200 92 -363t253.5 -255.5t360.5 -92.5q266 0 419 156v83q-77 -85 -185.5 -128t-233.5 -43 q-178 0 -324 83.5t-229 231t-83 328.5t83 328.5t229 231t324 83.5q266 0 419 -172v84q-154 154 -419 154q-199 0 -360.5 -92t-253.5 -254.5t-92 -362.5zM209 718q0 -130 47 -244.5t127.5 -195.5t193 -128t239.5 -47q125 0 234.5 45.5t184.5 134.5v95q-71 -102 -180.5 -155 t-238.5 -53q-149 0 -272 71t-194 197t-71 280t71 280t194 197t272 71q129 0 238.5 -53t180.5 -155v94q-75 89 -184.5 135t-234.5 46q-127 0 -239.5 -47t-193 -128t-127.5 -195.5t-47 -244.5zM308 718q0 -146 67 -265.5t183.5 -187t257.5 -67.5q132 0 243 59.5t176 167.5v133 q-46 -133 -159.5 -213.5t-259.5 -80.5q-184 0 -311 130t-127 324t127 324t311 130q146 0 259.5 -80.5t159.5 -213.5v132q-65 109 -176 169t-243 60q-141 0 -257.5 -68t-183.5 -187.5t-67 -265.5zM407 718q0 -182 118.5 -304t290.5 -122q179 0 299 121.5t120 304.5 t-120 304.5t-299 121.5q-172 0 -290.5 -122t-118.5 -304zM1335 0v1434h29v-1434h-29zM1434 0v1434h30v-1434h-30zM1534 0v1434h463v-28h-433v-67h433v-28h-433v-66h433v-28h-433v-67h433v-28h-433v-258h433v-28h-433v-66h433v-28h-433v-67h433v-28h-433v-66h433v-28h-433 v-242h433v-28h-433v-66h433v-28h-433v-67h433v-28h-433v-66h433v-28h-463z" />
<glyph unicode="&#x153;" horiz-adv-x="2121" d="M81 718q0 156 56 293t153.5 234.5t234 153.5t291.5 56q266 0 419 -150v129h29v-1434h-29v130q-154 -150 -419 -150q-207 0 -375.5 96t-264 265t-95.5 377zM110 718q0 -200 92 -363t253.5 -255.5t360.5 -92.5q266 0 419 156v83q-77 -85 -185.5 -128t-233.5 -43 q-178 0 -324 83.5t-229 231t-83 328.5t83 328.5t229 231t324 83.5q266 0 419 -172v84q-154 154 -419 154q-199 0 -360.5 -92t-253.5 -254.5t-92 -362.5zM209 718q0 -130 47 -244.5t127.5 -195.5t193 -128t239.5 -47q125 0 234.5 45.5t184.5 134.5v95q-71 -102 -180.5 -155 t-238.5 -53q-149 0 -272 71t-194 197t-71 280t71 280t194 197t272 71q129 0 238.5 -53t180.5 -155v94q-75 89 -184.5 135t-234.5 46q-127 0 -239.5 -47t-193 -128t-127.5 -195.5t-47 -244.5zM308 718q0 -146 67 -265.5t183.5 -187t257.5 -67.5q132 0 243 59.5t176 167.5v133 q-46 -133 -159.5 -213.5t-259.5 -80.5q-184 0 -311 130t-127 324t127 324t311 130q146 0 259.5 -80.5t159.5 -213.5v132q-65 109 -176 169t-243 60q-141 0 -257.5 -68t-183.5 -187.5t-67 -265.5zM407 718q0 -182 118.5 -304t290.5 -122q179 0 299 121.5t120 304.5 t-120 304.5t-299 121.5q-172 0 -290.5 -122t-118.5 -304zM1335 0v1434h29v-1434h-29zM1434 0v1434h30v-1434h-30zM1534 0v1434h463v-28h-433v-67h433v-28h-433v-66h433v-28h-433v-67h433v-28h-433v-258h433v-28h-433v-66h433v-28h-433v-67h433v-28h-433v-66h433v-28h-433 v-242h433v-28h-433v-66h433v-28h-433v-67h433v-28h-433v-66h433v-28h-463z" />
<glyph unicode="&#x178;" horiz-adv-x="1409" d="M20 1434h34l477 -826l40 70l-435 756h34l419 -726l41 71l-378 655h33l362 -625l39 68l-319 557h34l303 -527l304 527h34l-517 -896v22zM299 1516v315h29v-315h-29zM399 1516v315h29v-315h-29zM499 1516v315h29v-315h-29zM539 163v60l700 1211h33zM539 366v59l585 1009h33 zM550 0v41l804 1393h34l-520 -901v-533h-29v482l-71 -122v-360h-29v309l-70 -122v-187h-30v136l-60 -103v-33h-29zM598 1516v315h30v-315h-30zM783 1516v315h29v-315h-29zM883 1516v315h29v-315h-29zM982 1516v315h30v-315h-30zM1082 1516v315h30v-315h-30z" />
<glyph unicode="&#x2c6;" horiz-adv-x="792" d="M82 1218v32l402 232l28 -16zM82 1327v32l216 125h56zM83 1109v32l498 287l28 -16zM212 1107l457 263l42 -24v-33l-42 25l-57 -33l99 -58v-32l-127 74l-62 -36l187 -108v-32l-216 123l-65 -37l159 -91h-56l-131 75l-132 -76h-56z" />
<glyph unicode="&#x2dc;" horiz-adv-x="1007" d="M82 1126q0 130 93 220.5t225 90.5h236q0 -12 -8 -20t-20 -8h-208q-120 0 -204.5 -82.5t-84.5 -200.5h-29zM181 1126q0 91 64 154t155 63h208q39 0 67 27.5t28 66.5h29q0 -51 -36.5 -86.5t-87.5 -35.5h-208q-78 0 -134 -55.5t-56 -133.5h-29zM276 1126q0 51 36.5 86.5 t87.5 35.5h208q78 0 134 55.5t56 133.5h29q0 -91 -64 -154t-155 -63h-208q-39 0 -67 -27.5t-28 -66.5h-29zM371 1126q0 12 8.5 20t20.5 8h208q120 0 204.5 82.5t84.5 200.5h29q0 -130 -93 -220.5t-225 -90.5h-237z" />
<glyph unicode="&#x2000;" horiz-adv-x="948" />
<glyph unicode="&#x2001;" horiz-adv-x="1897" />
<glyph unicode="&#x2002;" horiz-adv-x="948" />
<glyph unicode="&#x2003;" horiz-adv-x="1897" />
<glyph unicode="&#x2004;" horiz-adv-x="632" />
<glyph unicode="&#x2005;" horiz-adv-x="474" />
<glyph unicode="&#x2006;" horiz-adv-x="316" />
<glyph unicode="&#x2007;" horiz-adv-x="316" />
<glyph unicode="&#x2008;" horiz-adv-x="237" />
<glyph unicode="&#x2009;" horiz-adv-x="379" />
<glyph unicode="&#x200a;" horiz-adv-x="105" />
<glyph unicode="&#x2010;" d="M82 533v28h860v-28h-860zM82 628v28h860v-28h-860zM82 722v28h860v-28h-860zM82 817v27h860v-27h-860z" />
<glyph unicode="&#x2011;" d="M82 533v28h860v-28h-860zM82 628v28h860v-28h-860zM82 722v28h860v-28h-860zM82 817v27h860v-27h-860z" />
<glyph unicode="&#x2012;" d="M82 533v28h860v-28h-860zM82 628v28h860v-28h-860zM82 722v28h860v-28h-860zM82 817v27h860v-27h-860z" />
<glyph unicode="&#x2013;" horiz-adv-x="1310" d="M82 533v28h1147v-28h-1147zM82 628v28h1147v-28h-1147zM82 722v28h1147v-28h-1147zM82 817v27h1147v-27h-1147z" />
<glyph unicode="&#x2014;" horiz-adv-x="1597" d="M82 533v28h1434v-28h-1434zM82 628v28h1434v-28h-1434zM82 722v28h1434v-28h-1434zM82 817v27h1434v-27h-1434z" />
<glyph unicode="&#x2018;" horiz-adv-x="530" d="M101 807v315q0 149 85 232.5t244 83.5v-25q-146 0 -222.5 -76t-76.5 -215v-315h-30zM201 807v315q0 111 59 171.5t170 60.5v-25q-99 0 -149.5 -53t-50.5 -154v-315h-29zM301 807v315h29v-315h-29zM401 807v315h29v-315h-29z" />
<glyph unicode="&#x2019;" horiz-adv-x="530" d="M101 803v25q146 0 223 76t77 214v316h29v-316q0 -149 -85 -232t-244 -83zM101 886v25q99 0 149.5 53t50.5 154v316h29v-316q0 -111 -59 -171.5t-170 -60.5zM101 1118v316h30v-316h-30zM201 1118v316h29v-316h-29z" />
<glyph unicode="&#x201a;" horiz-adv-x="530" d="M101 0v315h30v-315h-30zM101 -207q99 0 149.5 53t50.5 154v315h29v-315q0 -111 -59 -171.5t-170 -60.5v25zM101 -290q146 0 223 76t77 214v315h29v-315q0 -149 -85 -232t-244 -83v25zM201 0v315h29v-315h-29z" />
<glyph unicode="&#x201c;" horiz-adv-x="972" d="M101 807v315q0 149 85 232.5t244 83.5v-25q-146 0 -222.5 -76t-76.5 -215v-315h-30zM201 807v315q0 111 59 171.5t170 60.5v-25q-99 0 -149.5 -53t-50.5 -154v-315h-29zM301 807v315h29v-315h-29zM401 807v315h29v-315h-29zM543 807v315q0 149 85 232.5t244 83.5v-25 q-146 0 -222.5 -76t-76.5 -215v-315h-30zM643 807v315q0 111 59 171.5t170 60.5v-25q-99 0 -149 -53t-50 -154v-315h-30zM743 807v315h30v-315h-30zM843 807v315h29v-315h-29z" />
<glyph unicode="&#x201d;" horiz-adv-x="972" d="M101 803v25q146 0 223 76t77 214v316h29v-316q0 -149 -85 -232t-244 -83zM101 886v25q99 0 149.5 53t50.5 154v316h29v-316q0 -111 -59 -171.5t-170 -60.5zM101 1118v316h30v-316h-30zM201 1118v316h29v-316h-29zM543 803v25q146 0 223 76t77 214v316h29v-316 q0 -149 -85 -232t-244 -83zM543 886v25q99 0 149.5 53t50.5 154v316h30v-316q0 -110 -59 -171t-171 -61zM543 1118v316h30v-316h-30zM643 1118v316h30v-316h-30z" />
<glyph unicode="&#x201e;" horiz-adv-x="972" d="M101 0v315h30v-315h-30zM101 -207q99 0 149.5 53t50.5 154v315h29v-315q0 -111 -59 -171.5t-170 -60.5v25zM101 -290q146 0 223 76t77 214v315h29v-315q0 -149 -85 -232t-244 -83v25zM201 0v315h29v-315h-29zM543 0v315h30v-315h-30zM543 -207q99 0 149.5 53t50.5 154 v315h30v-315q0 -110 -59 -171t-171 -61v25zM543 -290q146 0 223 76t77 214v315h29v-315q0 -149 -85 -232t-244 -83v25zM643 0v315h30v-315h-30z" />
<glyph unicode="&#x2022;" horiz-adv-x="739" d="M102 718q0 112 75.5 184.5t191.5 72.5t191.5 -72.5t75.5 -184.5t-75.5 -184.5t-191.5 -72.5t-191.5 72.5t-75.5 184.5zM131 718q0 -99 67 -164t171 -65t171.5 65t67.5 164t-67.5 164t-171.5 65t-171 -65t-67 -164zM202 718q0 70 47.5 116.5t119.5 46.5q73 0 120.5 -46.5 t47.5 -116.5t-47.5 -116t-120.5 -46t-120 46t-47 116zM230 718q0 -58 39.5 -96t99.5 -38t100 38t40 96t-40 96.5t-100 38.5t-99.5 -38.5t-39.5 -96.5zM301 718q0 29 19.5 48.5t48.5 19.5t49 -19.5t20 -48.5t-20 -48.5t-49 -19.5t-48.5 19.5t-19.5 48.5zM329 718 q0 -17 11.5 -28.5t28.5 -11.5t28.5 11.5t11.5 28.5t-11.5 28.5t-28.5 11.5t-28.5 -11.5t-11.5 -28.5z" />
<glyph unicode="&#x2026;" horiz-adv-x="1554" d="M101 0v315h30v-315h-30zM201 0v315h29v-315h-29zM301 0v315h29v-315h-29zM401 0v315h29v-315h-29zM613 0v315h30v-315h-30zM713 0v315h29v-315h-29zM813 0v315h29v-315h-29zM913 0v315h29v-315h-29zM1125 0v315h30v-315h-30zM1225 0v315h29v-315h-29zM1325 0v315h29v-315 h-29zM1425 0v315h29v-315h-29z" />
<glyph unicode="&#x202f;" horiz-adv-x="379" />
<glyph unicode="&#x2039;" horiz-adv-x="831" d="M61 720l296 509h33l-311 -537zM121 624l350 605h34l-367 -633zM182 529l405 700h33l-421 -729zM241 432l460 797h34l-291 -503l327 -521h-34l-309 493l-40 -70l264 -423h-34l-247 394l-39 -69l203 -325h-34l-186 296l-40 -69l142 -227h-34l-135 217z" />
<glyph unicode="&#x203a;" horiz-adv-x="831" d="M61 1229h34l309 -493l40 69l-264 424h34l247 -395l39 69l-203 326h34l186 -297l40 69l-142 228h34l135 -217l7 -11l-460 -796h-34l290 503zM212 205l421 729l17 -29l-405 -700h-33zM327 205l367 632l17 -28l-350 -604h-34zM442 205l311 536l18 -28l-296 -508h-33z" />
<glyph unicode="&#x205f;" horiz-adv-x="474" />
<glyph unicode="&#x20ac;" horiz-adv-x="1306" d="M82 453v28h648v-28h-196q2 -75 49.5 -118.5t121.5 -43.5q75 0 122.5 46t47.5 124h30q0 -90 -55.5 -143.5t-144.5 -53.5q-88 0 -143 51t-57 139h-71q2 -118 76.5 -187t194.5 -69q122 0 196 71.5t74 192.5h29q0 -134 -82 -213t-217 -79q-133 0 -215.5 77t-84.5 207h-71 q2 -160 104 -255.5t267 -95.5q167 0 268.5 98t101.5 261h29q0 -177 -109.5 -282t-289.5 -105q-178 0 -288 103t-112 276l-71 -1q2 -204 131.5 -325.5t339.5 -121.5q212 0 341 124t129 331h29q0 -220 -137 -351.5t-362 -131.5q-224 0 -361 129t-139 346h-123zM82 549v28h648 v-28h-648zM82 643v28h123v91h-123v28h648v-28h-196v-91h196v-28h-648zM82 857v27h648v-27h-648zM82 951v28h123q2 217 139 346t361 129q226 0 362.5 -131t136.5 -351h-29q0 207 -129 330.5t-341 123.5q-210 0 -339.5 -121.5t-131.5 -325.5h71q2 173 112 276t288 103 q180 0 289.5 -104.5t109.5 -281.5h-29q0 163 -101.5 260.5t-268.5 97.5q-165 0 -267 -95.5t-104 -255.5h71q2 130 84.5 207.5t215.5 77.5q135 0 217 -79t82 -213h-29q0 121 -74 192.5t-196 71.5q-120 0 -194.5 -70t-76.5 -187h71q2 88 57 139t143 51q90 0 145 -53.5 t55 -143.5h-30q0 78 -47.5 123.5t-122.5 45.5q-74 0 -121.5 -43.5t-49.5 -118.5h196v-28h-648zM234 671h71v91h-71v-91zM334 671h71v91h-71v-91zM434 671h70v91h-70v-91z" />
<glyph unicode="&#x2122;" horiz-adv-x="1546" d="M82 1311v28h546v-28h-213v-574h-29v574h-71v-574h-29v574h-204zM82 1406v28h546v-28h-546zM715 737v697h29v-697h-29zM815 737v697h29l242 -545l242 545h32l-259 -580l37 -82l295 662h32v-697h-29v633l-67 -149v-484h-28v420l-188 -420h-31l-278 626v-165l205 -461h-32 l-173 391v-391h-29z" />
<glyph unicode="&#x25fc;" horiz-adv-x="1433" d="M0 0v1434h1434v-1434h-1434z" />
</font>
</defs>
</svg>
